<?xml version="1.0" encoding="utf-8" ?>
<svg baseProfile="full" height="300mm" version="1.1" viewBox="0,0,200,300" width="200mm" xmlns="http://www.w3.org/2000/svg" xmlns:ev="http://www.w3.org/2001/xml-events" xmlns:xlink="http://www.w3.org/1999/xlink"><defs /><rect fill="#222222" height="300" width="200" x="0" y="0" /><text fill="#FFFFFF" style="font-size:12px; font-family:Arial; font-weight:bold;" x="10" y="20">Over 10km Runs</text><text fill="#FFFFFF" style="font-size:4px; font-family:Arial" x="10" y="280">Runner</text><text fill="#FFFFFF" style="font-size:9px; font-family:Arial" x="10" y="290">Weihang</text><text fill="#FFFFFF" style="font-size:4px; font-family:Arial" x="65" y="280">SPECIAL TRACKS</text><rect fill="yellow" height="2.6" width="2.6" x="65" y="283" /><text fill="#FFFFFF" style="font-size:3px; font-family:Arial" x="70" y="285.5">Over 20.0 km</text><rect fill="red" height="2.6" width="2.6" x="65" y="287" /><text fill="#FFFFFF" style="font-size:3px; font-family:Arial" x="70" y="289.5">Over 40.0 km</text><text fill="#FFFFFF" style="font-size:4px; font-family:Arial" x="120" y="280">STATISTICS</text><text fill="#FFFFFF" style="font-size:3px; font-family:Arial" x="120" y="285">Number: 1</text><text fill="#FFFFFF" style="font-size:3px; font-family:Arial" x="120" y="290">Weekly: 1.0</text><text fill="#FFFFFF" style="font-size:3px; font-family:Arial" x="141" y="285">Total: 10.1 km</text><text fill="#FFFFFF" style="font-size:3px; font-family:Arial" x="141" y="290">Avg: 10.1 km</text><text fill="#FFFFFF" style="font-size:3px; font-family:Arial" x="167" y="285">Min: 10.1 km</text><text fill="#FFFFFF" style="font-size:3px; font-family:Arial" x="167" y="290">Max: 10.1 km</text><polyline fill="none" points="70.85392535105348,89.95784573303536 71.13621178735048,88.62719740497414 69.72477960120887,74.65532001643442 67.88991775922477,71.6613296730211 63.091048325411975,69.0 61.96190257649869,69.0 58.57446532789618,70.49699851125479 57.86874923482537,71.49499670427758 57.44531957898289,72.82565994770266 57.02188992314041,77.98196907457896 57.86874923482537,82.30660202552099 58.29217889159918,90.45683855738025 60.40932717081159,93.11813087039627 63.51447798125446,93.45079208363313 68.73677707090974,92.12014679599088 73.11221684888005,95.44675784278661 74.80593547224998,102.76527665997855 77.06422697100788,108.08781379112042 77.76994306501001,111.74704731698148 79.74594812560827,116.57056903617922 81.58080996759236,119.73079915030394 80.59280743729323,121.7267305921996 78.8990888139233,123.22367746429518 78.05222950130701,124.88695004652254 71.98307109996676,130.87471635721158 71.13621178735048,133.03695953881834 70.14820925798267,143.8481295668753 71.55964144412428,149.00419911218341 70.14820925798267,156.32246151030995 68.8779202895239,157.65305090963375 67.88991775922477,159.64893283660058 64.64362373016775,162.64275084098335 63.79676441848278,162.14378158107866 60.8327568275854,167.2997894162545 59.70361107774079,171.9568138041068 59.98589751496911,175.116929415497 62.24418901279569,179.27496632013936 68.03106097783893,184.2645956770284 69.44249316398054,184.92987836070824 72.97107363026589,188.4226077008061 75.79393800348043,192.91324798332062 78.8990888139233,195.24172293650918 80.31052099913359,196.90491716004908 83.41567181050777,198.73442871589214 84.82710399664938,201.89448897447437 93.43684033397585,210.7093593821628 97.24770723748952,216.19783792307135 99.5059987353161,217.86100934806745 104.02258173190057,222.01892999513075 104.3048681691289,223.0168292678427 112.7734612878412,230.50105305062607 114.18489347398281,230.66736871842295 116.44318497274071,230.33473736490123 119.54833578318357,225.17894212401006 122.3712001554668,223.34946221404243 126.60549671482295,220.18944630399346 129.85179074294865,216.19783792307135 133.23922799061984,213.53675987920724 137.19123811274767,212.20621912030037 138.88495673704892,211.0419950062642 141.00210501626134,210.7093593821628 142.13125076610595,210.0440879171947 142.97811007779092,207.54931734444108 139.7318160487339,202.39344526070636 138.88495673704892,200.2313001792645 135.07408983353525,194.41012514568865 134.9329466149211,192.0816489259014 132.67465511709452,187.59100620052777 131.40436614863575,182.93402944109403 130.98093649279326,176.28118088888004 131.5455093672499,169.79462567414157 132.67465511709452,166.63449905987363 135.49751948937774,162.31010468571912 138.17924064397812,157.15408002096228 137.7558109872043,152.66333469108213 136.7678084569052,150.66744364320766 132.53351189754903,145.67770462180488 128.72264499403536,143.51547932170797 124.77063487283885,138.85836828604806 123.50034590438008,136.36348153755534 122.65348659269512,135.86450369900558 122.08891371823847,134.36756920721382 120.11290865764022,132.37165427021682 118.41919003333896,126.71654779661912 116.86661462858319,123.55633212521207 112.91460450645536,120.56243756762706 106.13973001111299,117.56853714655153 91.03740561660379,118.56650460488163 83.27452859096229,121.56040307180956 80.87509387452155,124.05531398160383 76.07622444070876,127.38185552658979 75.22936512902379,128.21348978148308 72.12421431858093,132.70430694066454 70.430495695211,142.8501786136767 70.57163891289383,145.34505477559287 71.70078466273844,147.00830328685697 72.12421431858093,150.00214604788925 71.70078466273844,153.49495519162156 70.28935247566551,158.3183451751247 69.16020672675222,160.8131960905157 65.9139126976952,163.9733347389847 65.6316262613982,165.13759469951037 65.49048304185271,163.6406888726633 61.1150432638824,168.63036926009227 59.56246785912663,173.62003336125053 61.25618648342788,178.60968117543962 66.33734235353768,184.0982749608811 72.68878719303757,189.75316915952135 82.42766927927732,200.56393808324356 86.66196583863348,203.55767596082296 95.55398861318827,213.70307739253622 98.94142586085945,216.19783792307135 102.89343598298728,221.68629675975535 104.58715460635722,222.85051276779268 110.09174013324082,227.8399999033427 112.06774519383907,230.33473736490123 113.19689094368368,230.8336843685247 116.16089853551239,229.6694744398119 118.84261968918145,226.0105231780326 122.51234337501228,224.51367695548106 124.91177809145302,221.3536634518532 128.01692890189588,218.02732639131136 130.55750683695078,215.865203420748 131.9689390230924,213.86939488828648 135.77980592753738,212.03990144375712 138.74381351843476,211.54094830644317 141.1432482348755,210.54304154322017 141.99010754656047,209.37881616293453 142.13125076610595,207.54931734444108 140.0141024859622,204.38926877523772 137.05009489506483,196.07332027424127 134.08608730323613,192.24796877370682 132.67465511709452,188.58892794616986 130.55750683695078,178.7760024885647 130.41636361833662,176.44750245520845 131.9689390230924,169.29565874801483 133.8038008660078,166.46817642555106 134.79180339630693,162.97539692407008 136.4855220206082,158.81731568358373 136.3443788010627,155.32451870117802 134.9329466149211,151.4990652295528 133.94494408462197,147.17462803865783 132.53351189754903,144.8460798682645 129.42836108710617,142.8501786136767 128.58150177635252,142.51752815116197 127.59349924512208,142.51752815116197 124.20606199838221,139.35734514717478 119.12490612640977,130.7083898319397 117.71347394026816,126.38389382313471 114.46717991121113,120.06345457141288 110.65631300862879,118.06752095662523 107.69230541680008,117.23588118166663 102.61114954575896,116.73689709941391 97.67113689240068,117.06955317244865 93.43684033397585,118.23384885769337 89.20254377368838,118.40017674001865 79.32251846976578,124.22164123109542 77.20537018962204,126.71654779661912 72.40650075580925,136.19715560937766 71.55964144412428,139.52367073099595 70.99506856966764,142.8501786136767 73.11221684888005,148.83787455991842 73.25336006749421,152.49701053649187 72.12421431858093,155.32451870117802 70.57163891289383,156.98775635485072 68.73677707090974,160.8131960905157 65.34933982416987,163.8070118149044 61.53847291972488,168.63036926009227 60.26818395219743,172.1231358407531 60.40932717081159,176.11485930380877 62.66761866863817,180.27289349411149 64.64362373016775,182.6013877011137 67.46648810338229,184.43091637524776 70.14820925798267,186.75940424820874 73.95907616056502,191.5826892744517 84.40367433987558,200.56393808324356 85.39167687110603,202.55976398615167 88.92025733739138,206.2187713747844 90.19054630491883,208.21458989579696 93.29569711443037,210.54304154322017 99.08256907947361,216.36415514687542 101.19971735868603,217.86100934806745 103.59915207605809,221.3536634518532 110.79745622631162,229.33684286870994 112.7734612878412,230.33473736490123 114.18489347398281,230.16842166054994 121.38319762516767,226.0105231780326 124.06491877883673,223.51577866019215 125.19406452868134,221.68629675975535 126.88778315205127,220.35576309356838 128.01692890189588,218.19364341604523 131.82779580447823,214.36834726540837 135.07408983353525,213.20412479771767 136.62666523829103,212.03990144375712 140.0141024859622,211.37463055783883 141.56667789071798,210.54304154322017 142.2723939847201,208.71354411821812 141.8489643279463,206.88404450472444 139.16724317427725,203.058720054687 136.4855220206082,196.23963968805037 136.62666523829103,193.91116625466384 135.07408983353525,192.58060841460247 132.2512254603207,187.4246858464321 130.1340771811083,176.11485930380877 130.55750683695078,172.95474575518165 131.40436614863575,171.62416967540048 133.38037121016532,170.29359243647195 135.07408983353525,166.63449905987363 136.7678084569052,156.32246151030995 137.33238133136183,154.49289919540752 136.62666523829103,151.166416649241 133.94494408462197,147.83992686413694 132.81579833570868,145.67770462180488 130.1340771811083,143.8481295668753 126.0409238403663,142.18487761658616 121.10091118793935,133.86859071697108 119.12490612640977,128.54614335705992 117.00775784719735,124.38796846196055 114.3260366935283,121.7267305921996 110.51516979001462,119.56447141221724 108.82145116571337,118.23384885769337 103.1757224202156,117.40220917318948 97.38885045610368,117.90119303844403 91.31969205383211,118.06752095662523 89.9082598676905,117.90119303844403 87.50882515031844,118.89916027977597 85.53282008878887,120.72876519721467 81.86309640482068,122.05938557977788 80.16937778145075,123.22367746429518 75.22936512902379,131.706348711974 72.97107363026589,134.86654753400944 71.70078466273844,141.5195763290394 71.27735500689596,147.83992686413694 71.55964144412428,155.32451870117802 69.44249316398054,159.4826094424352 67.04305844660848,163.30804293474648 61.67961613833904,167.46611196000595 60.691613608039916,173.12106768402737 61.1150432638824,176.28118088888004 64.50248051155359,181.10449897544459 67.46648810338229,184.43091637524776 77.3465134082362,192.91324798332062 79.1813752502203,195.4080424400745 84.68596077803522,199.89866220252588 88.21454124432057,203.72399456019048 92.58998102229089,209.71145207597874 95.13055895734578,212.20621912030037 96.82427758071572,214.70098209334537 98.80028264131397,216.69678954058327 101.48200379684567,218.19364341604523 105.7163003552705,223.51577866019215 110.65631300862879,228.17263179994188 111.50317232031375,230.00210593850352 113.62032059952617,231.0 115.45518244244158,230.66736871842295 119.68947900086641,227.67368392762728 125.19406452868134,221.68629675975535 126.0409238403663,221.51998011465184 128.15807211957872,220.18944630399346 129.7106475252658,217.36205811053514 131.40436614863575,215.865203420748 135.6386627079919,213.03780723025557 138.46152708120644,210.7093593821628 142.55468042194843,208.71354411821812 142.97811007779092,207.54931734444108 140.57867535948753,205.0545427011093 138.88495673704892,202.89240138349123 134.9329466149211,194.07748590304982 133.23922799061984,189.25420874811243 133.09808477200568,186.9257246745983 131.82779580447823,184.76355771662202 131.82779580447823,181.43714104103856 131.26322293002158,178.44335984415375 130.55750683695078,177.61175291519612 131.40436614863575,170.45991465484258 131.26322293002158,167.9650794827612 131.82779580447823,165.4702402394032 136.90895167645067,159.31628602964338 135.49751948937774,150.8337679967517 134.65066017676145,148.3389007935766 131.5455093672499,144.34710479935165 127.02892637066543,141.02060017443728 126.0409238403663,140.6879493133165 122.51234337501228,136.86245921300724 120.11290865764022,133.3696120644454 118.13690359611064,129.04512358421925 117.43118750303984,126.38389382313471 114.18489347398281,122.72469533619005 111.50317232031375,120.06345457141288 107.12773254234344,117.56853714655153 104.58715460635722,117.90119303844403 95.27170217595994,116.57056903617922 91.88426492922008,117.23588118166663 84.96824721526355,121.22774797608145 83.41567181050777,121.56040307180956 79.74594812560827,124.38796846196055 73.95907616056502,130.87471635721158 73.11221684888005,133.20328581088688 74.94707869179547,135.03287360654213 72.97107363026589,139.19101954461075 71.98307109996676,143.34915417199954 72.40650075580925,148.83787455991842 71.70078466273844,155.9898139797151 70.85392535105348,157.98569807817694 68.73677707090974,161.3121657849988 66.19619913585484,163.4743659128435 65.20819660462439,163.8070118149044 60.55047039035708,169.12933640345 59.56246785912663,171.9568138041068 60.26818395219743,177.27911001758184 61.820759357884526,179.60760878399014 69.3013499462977,185.4288401834201 76.07622444070876,192.24796877370682 78.4756591571495,195.4080424400745 85.95624974556267,202.06080775498413 88.63797089923173,206.71772624959704 92.58998102229089,209.21249817870557 98.80028264131397,216.86310671037063 100.63514448422939,218.19364341604523 103.03457920160145,221.85261338658165 106.98658932372928,225.17894212401006 111.92660197615623,229.83579019806348 114.04375025536865,230.16842166054994 115.73746887873858,228.67157950927503 117.99576037749648,225.844207003247 124.34720521699637,220.85471335379407" stroke="#4DD2FF" stroke-linecap="round" stroke-linejoin="round" stroke-width="0.5"><title>2018-10-24 10.1km</title><desc>17059065905</desc></polyline></svg>