<?xml version="1.0" encoding="utf-8" ?>
<svg baseProfile="full" height="300mm" version="1.1" viewBox="0,0,200,300" width="200mm" xmlns="http://www.w3.org/2000/svg" xmlns:ev="http://www.w3.org/2001/xml-events" xmlns:xlink="http://www.w3.org/1999/xlink"><defs /><rect fill="#222222" height="300" width="200" x="0" y="0" /><text fill="#FFFFFF" style="font-size:12px; font-family:Arial; font-weight:bold;" x="10" y="20">Over 10km Runs</text><text fill="#FFFFFF" style="font-size:4px; font-family:Arial" x="10" y="280">Runner</text><text fill="#FFFFFF" style="font-size:9px; font-family:Arial" x="10" y="290">Weihang</text><text fill="#FFFFFF" style="font-size:4px; font-family:Arial" x="65" y="280">SPECIAL TRACKS</text><rect fill="yellow" height="2.6" width="2.6" x="65" y="283" /><text fill="#FFFFFF" style="font-size:3px; font-family:Arial" x="70" y="285.5">Over 20.0 km</text><rect fill="red" height="2.6" width="2.6" x="65" y="287" /><text fill="#FFFFFF" style="font-size:3px; font-family:Arial" x="70" y="289.5">Over 40.0 km</text><text fill="#FFFFFF" style="font-size:4px; font-family:Arial" x="120" y="280">STATISTICS</text><text fill="#FFFFFF" style="font-size:3px; font-family:Arial" x="120" y="285">Number: 2</text><text fill="#FFFFFF" style="font-size:3px; font-family:Arial" x="120" y="290">Weekly: 1.0</text><text fill="#FFFFFF" style="font-size:3px; font-family:Arial" x="141" y="285">Total: 22.6 km</text><text fill="#FFFFFF" style="font-size:3px; font-family:Arial" x="141" y="290">Avg: 11.3 km</text><text fill="#FFFFFF" style="font-size:3px; font-family:Arial" x="167" y="285">Min: 10.1 km</text><text fill="#FFFFFF" style="font-size:3px; font-family:Arial" x="167" y="290">Max: 12.5 km</text><polyline fill="none" points="50.77371969242813,36.0 50.96589255682193,36.26546232875262 51.83067044685595,37.27142009032832 52.106918939505704,37.64865231415024 52.215016175759956,37.732481553728576 52.323113411956,37.7604246220144 52.467243060295004,37.900139876437606 53.01974004559452,38.668571185626206 53.17588049796177,38.8362283432798 53.356042558385525,38.87814260009327 53.59625863889232,38.86417118260579 54.78532823763089,38.445027984140324 55.12163075048011,38.3053132948844 55.13364155445015,38.333256244295626 55.54200889141066,38.738428360025864 55.84227899211692,39.10168508286006 56.73107849014923,40.261305758860544 57.53580235998379,41.00178120935743 57.860094068804756,41.25326251199294 59.79383351717843,42.60845922814042 60.23823326622369,42.943763528441195 60.4304061307339,43.04156045879063 61.05496794014471,43.48863123645424 65.21070613374468,46.26881933606637 66.724067441246,47.34455511653505 67.13243477814831,47.72175913560204 67.39667246676981,47.86146405983891 67.61286693927832,48.001168839255115 67.98520186409587,48.420282308303285 69.6667144279927,50.040842122602044 69.7628008602187,50.166574396862416 71.8406699570478,52.23415496815869 72.2970805100631,52.72310519464372 73.02973955578636,53.40763253098703 73.84647422964917,54.245824533572886 74.11071191827068,54.46934152035101 74.49505764717469,54.93034413475834 76.29667825129582,56.69052142872533 77.44971543800784,57.863960185684846 78.0622664433904,58.506553270461154 78.56672021257691,58.98151140731352 79.21530363004422,59.63806842845224 79.52758453477873,59.88951495123911 79.75578981125727,60.140961004799465 80.20018956030253,60.671790021820925 80.60855689720483,61.24452424797346 81.01692423416534,61.70550368647673 81.25714031478856,61.998853417346254 81.77360488794511,62.58555096354394 81.96577775239712,62.82302305381745 82.10990740073612,63.13033925539639 82.24202624504687,63.5214679530327 82.44620991352713,64.38753460149746 82.44620991352713,64.5970660190942 82.47023152158363,64.70881597533298 83.17886895919219,65.65868686216709 83.95957122102845,66.9717326539685 84.42799257807201,67.69809291615093 85.05255438754102,68.28476565501478 88.45161192736123,72.12601216408075 89.4725302697043,73.3272522414045 90.08508127514506,73.96977160983079 90.58953504433157,74.4726107185852 91.23811846179888,75.05925397499232 92.4632204726222,76.09285731078126 94.90141369024059,77.89466039460967 95.56200791179435,78.41145218414022 97.31558529980248,79.6824722122401 97.56781218439573,79.8780126915808 97.71194183273474,80.0316514406004 97.69993102870649,80.0316514406004 98.2764496220625,80.39479687879793 99.36943278851686,81.23282108019339 101.65148555388441,82.90885385718138 102.54028505191673,83.59322791745944 102.72044711228227,83.7887627252494 103.09278203715803,83.99826399041922 103.30897650960833,84.1518980445835 104.0416355553316,84.72453252262494 105.89129937562393,86.06532568986586 106.72004485351499,86.72175081669411 106.912217717967,86.83348243491491 107.59683354757726,87.39213913741696 108.25742776913103,87.82509648999257 109.00209761882434,88.46754677397257 109.67470264434814,88.98429804223997 109.7347566644894,89.05412914282351 109.7827998806024,89.15189262288914 109.8068214886589,89.12396020720189 110.37132927792845,89.40328410331858 110.63556696654996,89.50104733028274 110.77969661488896,89.59881048634998 113.78239762177691,91.80544572726649 115.668093854154,93.32772367674625 116.68901219661348,94.10980474905227 116.67700139252702,94.09583905538602 116.71303380461177,94.09583905538602 117.97416822751984,94.79412196703197 119.13921621820191,95.39464237951324 120.07605893234722,95.93929811574344 120.9528476264095,96.40015894384123 122.12990642111981,97.05653376826376 122.62234938621987,97.34980659355642 122.74245742656058,97.43359871224675 122.81452225067187,97.57325212762225 122.82653305475833,97.78273197966337 122.57430617016507,98.34134332783287 122.29805767751532,99.0954649780324 122.18996044126106,99.45855908365047 122.09387400903506,99.84958241200366 122.02180918486556,100.40818520034372 121.98577677278081,101.26004999870202 122.09387400903506,106.5247343894589 122.08186320500681,107.57206089264946 122.14191722508986,110.462639853562 122.10588481306331,110.82570336438948 122.11789561709156,110.96534291609714 122.18996044126106,111.18876589814317 122.21398204925936,111.45408020881587 122.20197124528931,112.41758568609657 122.22599285334582,113.85584917657252 122.26202526537236,114.2189035564661 122.27403606940061,114.77744684868958 122.33409008954186,115.28013383482175 122.37012250162661,115.8107458439772 122.40615491376957,118.08676842229033 122.45419812982436,119.10607897072623 122.46620893391082,120.58616003222414 122.49023054190911,120.93523338841624 122.53827375802211,121.10278827861475 122.85055466275662,121.40997170368792 122.93463029095437,121.63337739180133 122.98267350712558,121.703191593464 123.16283556749113,121.81489424104802 123.59522451250814,121.92659679614007 125.28874788037501,122.21981556336686 126.02140692609828,122.40133162381244 127.01830366038484,122.77832573845808 127.2224873288651,122.87606478143425 127.45069260534365,123.02965456312813 127.95514637453016,123.57419874412881 128.20737325912341,123.9372269774176 129.50454009411624,126.39462318527512 129.9969830592745,127.3161352272582 130.1411127075553,127.53953113839088 130.3573071800638,127.80481330254406 130.5975232606288,128.02820840477943 131.58240919094533,128.75423993330332 131.85865768353688,128.9217851160065 132.13490617612842,129.06140594270255 132.42316547286464,129.18706456324435 132.90359763399465,129.34064716281136 133.1558245185297,129.4104573775985 133.98456999642076,129.52215364608855 135.75015818857355,129.87120388943003 135.9543418570538,129.9410138297244 136.11048230936285,130.0527096591686 136.4347740181256,130.12251950564678 136.8191197469714,130.1504434341332 136.98727100342512,130.20629127370194 137.47971396852518,130.40175853036635 137.92411371757044,130.6111874198541 138.30845944641624,130.83457787703082 138.69280517532025,131.12777729105437 139.0411184921395,131.4628615557158 139.3774210049305,131.82586857039132 140.37431773921708,133.0405387896608 140.84273909626063,133.64088899960916 141.8156142225489,134.67404357439955 141.94773306685966,134.89742730758735 142.13990593125345,135.4000393556198 142.2960463836207,135.48380784837354 142.88457578094676,135.72115162876435 143.52114839450223,135.9305722649442 143.82141849515028,135.98641771306575 144.25380744010909,136.04226313804975 145.15461774222786,136.22376060971874 145.44287703890586,136.3214899165032 145.68309311947087,136.4611030891101 145.98336322017713,136.76825156058476 146.13950367248617,136.9916318281903 146.41575216513593,137.25689541580505 146.46379538130714,137.3685851915361 146.43977377319243,137.45235246265656 146.27162251679692,137.67573159816675 146.07944965234492,138.03872190504626 145.79119035572512,138.69489421357866 145.75515794364037,138.83450493155397 145.7671687476104,139.00203760252043 145.79119035572512,139.12768696931016 145.85124437586637,139.2393751971831 145.97135241609067,139.33710232074372 146.18754688865738,139.4487903753179 147.92911347263725,140.3143696654006 148.50563206593506,140.57962672396388 149.08215065929107,140.9007266764238 149.17823709151708,140.97053091286216 149.21426950360183,141.04033511318266 149.22628030763008,141.15202175868035 149.16622628748883,141.31955155362084 148.14530794514576,143.14840495956014 148.013189100835,143.32989287760574 148.0372107088915,143.34385347660282 147.965145884722,143.76267077456578 148.013189100835,143.9860394688585 148.0372107088915,144.0" stroke="#4DD2FF" stroke-linecap="round" stroke-linejoin="round" stroke-width="0.5"><title>2026-01-16 12.5km</title><desc>17064450385</desc></polyline><polyline fill="none" points="80.56928356690332,169.9718971552793 80.75747452490032,169.08479826990515 79.81651973398402,159.7702133442508 78.59327850583941,157.77421978197526 75.39403221663088,156.0 74.64126838417724,156.0 72.38297688541934,156.9979990074644 71.91249949019402,157.66333113610744 71.6302130529657,158.5504399650963 71.34792661527172,161.98797938297503 71.91249949019402,164.8710680169752 72.19478592742234,170.30455903813709 73.60621811402962,172.0787539135199 75.6763186538592,172.30052805575542 79.15785138029605,171.41343119728845 82.07481123227626,173.63117189507466 83.20395698165521,178.5101844399469 84.70948464702815,182.0585425273748 85.17996204271913,184.49803154461551 86.49729875009507,187.71371269074734 87.72053997823969,189.8205327668693 87.06187162455171,191.15115372813307 85.93272587563843,192.1491183094913 85.36815300071612,193.25796669756528 81.32204739982262,197.2498109047301 80.75747452490032,198.69130635913461 80.098806171678,205.89875304454472 81.0397609625943,209.3361327414168 80.098806171678,214.21497434016783 79.25194685999304,215.10203393967822 78.59327850583941,216.43262189102825 76.42908248631284,218.42850056057796 75.86450961232185,218.09585438726936 73.88850455125794,221.53319294413086 73.13574071833864,224.63787586940452 73.3239316768013,226.74461961025372 74.82945934170857,229.51664421334863 78.68737398507074,232.8430637846468 79.62832877598703,233.28658557368908 81.9807157535106,235.6150718005374 83.86262533534318,238.608831988764 85.93272587563843,240.16114862426184 86.87368066608906,241.26994477328844 88.94378120684996,242.48961914388929 89.8847359973006,244.5963259829441 95.62456022249535,250.4729062546976 98.1651381580159,254.13189194863662 99.6706658238545,255.24067289871164 102.68172115460038,258.0126199966762 102.86991211306304,258.6778861784842 108.5156408585608,263.6673687003786 109.45659564901143,263.77824581228197 110.96212331485003,263.5564915766008 113.03222385514528,260.11929474934004 114.91413343697786,258.8996414759895 117.73699780972674,256.7929642025847 119.90119382878765,254.13189194863662 122.15948532707989,252.35783991939388 124.79415874183178,251.4708127467893 125.92330449121073,250.69466333743185 127.33473667735234,250.4729062546976 128.0875005107373,250.02939194475766 128.65207338472828,248.3662115628831 126.48787736613303,244.92896350705996 125.92330449121073,243.4875334528042 123.38272655522451,239.60675009700935 123.2886310769245,238.05443261715118 121.7831034110859,235.06067080027424 120.93624409893528,231.9560196272796 120.6539576612413,227.52078725921456 121.0303395781666,223.19641711597797 121.7831034110859,221.08966603979934 123.66501299245283,218.20673645706847 125.45282709551975,214.7693866805639 125.17054065829143,211.77555646072142 124.51187230460346,210.4449624287663 121.68900793185458,207.1184697478311 119.14842999633402,205.67698621435557 116.51375658158213,202.57224552391563 115.6668972694315,200.90898769162595 115.10232439497486,200.57633579929825 114.72594247851521,199.57837947132066 113.40860577160493,198.24776951340027 112.27946002222598,194.4776985310018 111.24440975254402,192.3708880833583 108.60973633732647,190.37495837837923 104.09315334074199,188.37902476429008 94.02493707789108,189.044336403138 88.84968572761863,191.0402687144233 87.25006258301437,192.70354265428614 84.05081629380584,194.9212370176101 83.48624341888353,195.47565985424444 81.41614287858829,198.46953796036541 80.286997129675,205.23345240904018 80.38109260890633,206.89670318365097 81.13385644182563,208.0055355244549 81.41614287858829,210.00143069855403 81.13385644182563,212.3299701276701 80.19290165044367,215.54556344996672 79.44013781799003,217.20879739359953 77.27594179846346,219.31555649265647 77.08775084046647,220.09172979963478 76.99365536123514,219.09379258169793 74.07669550925493,222.42024617339484 73.04164523957297,225.74668890738394 74.17079098848626,229.0731207835488 77.55822823569179,232.73218330717646 81.79252479504794,236.50211277289782 88.28511285269633,243.7092920554569 91.10797722544521,245.7051173071377 97.0359924081713,252.4687182616908 99.2942839069292,254.13189194863662 101.92895732168108,257.79086450650357 103.05810307106003,258.5670085118618 106.72782675549388,261.8933332688175 108.04516346240416,263.5564915766008 108.79792729578912,263.889122912311 110.77393235685304,263.1129829598358 112.5617464594543,260.6736821186496 115.00822891620919,259.67578463687096 116.60785206081346,257.56910896790214 118.6779526011087,255.3515509275021 120.37167122447863,253.9101356137544 121.31262601539493,252.57959659211338 123.85320395138115,251.35993429576047 125.8292090119794,251.0272988708457 127.42883215658367,250.3620276954025 127.99340503104031,249.58587744191755 128.0875005107373,248.3662115628831 126.67606832366437,246.25951251678634 124.70006326306611,240.71554684941657 122.7240582020022,238.16531251568813 121.7831034110859,235.72595196403563 120.37167122447863,229.18400165904313 120.27757574571297,227.6316683033947 121.31262601539493,222.86377249867655 122.53586724353954,220.9787842836231 123.19453559722751,218.65026461600792 124.32368134660646,215.87821045564488 124.22958586737514,213.54967913404107 123.2886310769245,210.99937681970187 122.62996272277087,208.11641869239975 121.68900793185458,206.56405324547086 119.61890739155933,205.23345240904018 119.05433451710269,205.01168543403037 118.39566616341472,205.01168543403037 116.13737466512248,202.90489676466677 112.74993741791695,197.13892655458767 111.808982626535,194.25592921534553 109.64478660747409,190.04230304749217 107.10420867195353,188.71168063767254 105.12820361088961,188.15725412103347 101.74076636368409,187.82459806615952 98.44742459477857,188.04636878159363 95.62456022249535,188.8225659050513 92.8016958492808,188.93345115997363 86.21501231286675,192.81442748731934 84.80358012625948,194.4776985310018 81.60433383705094,200.7981037395075 81.0397609625943,203.01578048721422 80.66337904613465,205.23345240904018 82.07481123227626,209.22524970653467 82.16890671150759,211.66467369091697 81.41614287858829,213.54967913404107 80.38109260890633,214.65850423648953 79.15785138029605,217.20879739359953 76.89955988246948,219.2046745432308 74.35898194648325,222.42024617339484 73.51212263479829,224.74875722709112 73.60621811402962,227.40990620246157 75.11174577940255,230.1819289959967 76.42908248631284,231.73425846733153 78.31099206861109,232.95394425012637 80.098806171678,234.50626949872822 82.6393841067329,237.72179284959566 89.60244956007227,243.7092920554569 90.26111791376024,245.03984265739564 92.61350489128381,247.47918091644533 93.46036420296878,248.80972659704275 95.53046474326402,250.3620276954025 99.38837938616052,254.24277009780053 100.79981157230213,255.24067289871164 102.39943471737206,257.56910896790214 107.19830415118486,262.89122857910115 108.5156408585608,263.5564915766008 109.45659564901143,263.4456144403666 114.25546508282423,260.6736821186496 116.04327918589115,259.01051910675596 116.79604301881045,257.79086450650357 117.92518876772374,256.9038420623401 118.6779526011087,255.46242894395255 121.2185305361636,252.91223151015583 123.38272655522451,252.13608319836203 124.41777682537213,251.35993429576047 126.67606832366437,250.91642037185375 127.71111859381199,250.3620276954025 128.18159598950297,249.14236274536233 127.89930955180898,247.92269633640535 126.11149544920772,245.372480036458 124.32368134660646,240.82642645854503 124.41777682537213,239.27411083644256 123.38272655522451,238.38707227632403 121.50081697339192,234.94979056424927 120.08938478771597,227.40990620246157 120.37167122447863,225.30316383671016 120.93624409893528,224.41611311689485 122.25358080631122,223.52906162419822 123.38272655522451,221.08966603979934 124.51187230460346,214.21497434016783 124.88825422106311,212.99526613019407 124.41777682537213,210.7776110994164 122.62996272277087,208.55995124275796 121.87719889031723,207.1184697478311 120.08938478771597,205.89875304454472 117.36061589373276,204.78991841105744 114.0672741252929,199.2457271446474 112.74993741791695,195.6974289045902 111.33850523130968,192.9253123078961 109.55069112870842,191.15115372813307 107.01011319318786,189.7096476079896 105.88096744380891,188.8225659050513 102.11714827967808,188.26813944871537 98.25923363724723,188.60079535888508 94.21312803588808,188.71168063767254 93.27217324497178,188.60079535888508 91.67255010036752,189.26610685314517 90.35521339252591,190.48584346473217 87.90873093623668,191.37292371981312 86.77958518732339,192.1491183094913 83.48624341888353,197.8042324745329 81.9807157535106,199.91103168926202 81.13385644182563,204.3463842192432 80.8515700045973,208.55995124275796 81.0397609625943,213.54967913404107 79.62832877598703,216.32173962821253 78.0287056309171,218.87202862312552 74.45307742571458,221.64407463988755 73.79440907202661,225.4140451226849 74.07669550925493,227.52078725921456 76.33498700754717,230.73633265017997 78.31099206861109,232.95394425012637 84.8976756054908,238.608831988764 86.12091683363542,240.2720282933442 89.79064051853493,243.2657748016063 92.1430274960585,245.8159963734215 95.0599873480387,249.80763471720275 96.75370597140864,251.4708127467893 97.88285172032192,253.13398806215264 99.20018842769787,254.46452636027243 100.98800253076479,255.46242894395255 103.81086690351367,259.01051910675596 107.10420867195353,262.1150878665503 107.66878154687583,263.33473729225807 109.08021373301744,264.0 110.30345496116206,263.77824581228197 113.12631933391094,261.7824559516739 116.79604301881045,257.79086450650357 117.36061589373276,257.6799867430236 118.7720480794087,256.7929642025847 119.80709835002199,254.90803874027915 120.93624409893528,253.9101356137544 123.75910847214982,252.02520482009277 125.6410180539824,250.4729062546976 128.36978694796562,249.14236274536233 128.65207338472828,248.3662115628831 127.05245023965836,246.7030284673674 125.92330449121073,245.2616009223275 123.2886310769245,239.3849906020332 122.15948532707989,236.16947249870282 122.06538984784856,234.61714978306554 121.2185305361636,233.17570514441468 121.2185305361636,230.95809402735904 120.84214862016961,228.9622398960637 120.37167122447863,228.407835276681 120.93624409893528,223.63994310318958 120.84214862016961,221.97671965509653 121.2185305361636,220.31349349289667 124.60596778383479,216.21085735305678 123.66501299245283,210.5558453310514 123.10044011799619,208.89260052901227 121.0303395781666,206.23140319949016 118.01928424695507,204.01373344962485 117.36061589373276,203.79196620883886 115.00822891620919,201.24163947522175 113.40860577160493,198.91307470947504 112.09126906376332,196.0300823894795 111.620791668538,194.25592921534553 109.45659564901143,191.81646355742123 107.66878154687583,190.04230304749217 104.75182169489563,188.37902476429008 103.05810307106003,188.60079535888508 96.8478014501743,187.71371269074734 94.58950995234773,188.15725412103347 89.97883147653192,190.81849865068216 88.94378120684996,191.0402687144233 86.49729875009507,192.9253123078961 82.6393841067329,197.2498109047301 82.07481123227626,198.80219054047484 83.29805246088654,200.02191573765595 81.9807157535106,202.7940130296629 81.32204739982262,205.5661027812166 81.60433383705094,209.22524970653467 81.13385644182563,213.99320931977127 80.56928356690332,215.32379871874582 79.15785138029605,217.54144385666586 77.46413275692612,218.98291060852353 76.80546440323815,219.2046745432308 73.70031359326094,222.75289093551692 73.04164523957297,224.63787586940452 73.51212263479829,228.18607334501576 74.54717290494591,229.73840585595462 79.53423329722136,233.61922678886913 84.05081629380584,238.16531251568813 85.6504394384101,240.2720282933442 90.63749982975423,244.7072051699506 92.42531393282115,247.81181749957614 95.0599873480387,249.4749987857649 99.20018842769787,254.575404473464 100.42342965630814,255.46242894395255 102.02305280091241,257.9017422576435 104.65772621519864,260.11929474934004 107.95106798410416,263.2238601319259 109.36250017024577,263.4456144403666 110.49164591915905,262.4477196728112 111.99717358499765,260.5628046687925 116.2314701443538,257.23647556919605" stroke="#4DD2FF" stroke-linecap="round" stroke-linejoin="round" stroke-width="0.5"><title>2018-10-24 10.1km</title><desc>17059065905</desc></polyline></svg>