<?xml version="1.0" encoding="utf-8" ?>
<svg baseProfile="full" height="300mm" version="1.1" viewBox="0,0,200,300" width="200mm" xmlns="http://www.w3.org/2000/svg" xmlns:ev="http://www.w3.org/2001/xml-events" xmlns:xlink="http://www.w3.org/1999/xlink"><defs /><rect fill="#222222" height="300" width="200" x="0" y="0" /><text fill="#FFFFFF" style="font-size:12px; font-family:Arial; font-weight:bold;" x="10" y="20">Over 10km Runs</text><text fill="#FFFFFF" style="font-size:4px; font-family:Arial" x="10" y="280">Runner</text><text fill="#FFFFFF" style="font-size:9px; font-family:Arial" x="10" y="290">Weihang</text><text fill="#FFFFFF" style="font-size:4px; font-family:Arial" x="65" y="280">SPECIAL TRACKS</text><rect fill="yellow" height="2.6" width="2.6" x="65" y="283" /><text fill="#FFFFFF" style="font-size:3px; font-family:Arial" x="70" y="285.5">Over 20.0 km</text><rect fill="red" height="2.6" width="2.6" x="65" y="287" /><text fill="#FFFFFF" style="font-size:3px; font-family:Arial" x="70" y="289.5">Over 40.0 km</text><text fill="#FFFFFF" style="font-size:4px; font-family:Arial" x="120" y="280">STATISTICS</text><text fill="#FFFFFF" style="font-size:3px; font-family:Arial" x="120" y="285">Number: 5</text><text fill="#FFFFFF" style="font-size:3px; font-family:Arial" x="120" y="290">Weekly: 1.7</text><text fill="#FFFFFF" style="font-size:3px; font-family:Arial" x="141" y="285">Total: 64.5 km</text><text fill="#FFFFFF" style="font-size:3px; font-family:Arial" x="141" y="290">Avg: 12.9 km</text><text fill="#FFFFFF" style="font-size:3px; font-family:Arial" x="167" y="285">Min: 10.1 km</text><text fill="#FFFFFF" style="font-size:3px; font-family:Arial" x="167" y="290">Max: 14.9 km</text><polyline fill="none" points="14.0,82.17183600569842 14.067164179112297,82.13633519666473 14.13432835819549,82.06533352348197 14.335820895503275,81.71742426174751 14.488466757145943,81.51861817648023 14.622795115341432,81.25590925083088 14.708276797813596,81.11390400693199 15.10515603798558,80.56718107112101 15.22727272726479,80.37547199603432 15.331071913155029,80.24766564807942 15.654681139742024,79.77193992509274 15.953867028496461,79.40981813161488 16.137042062415276,79.0902973131524 16.619402985088527,78.35894405523868 17.095658073289087,77.67728738996811 17.16892808684497,77.5778785598086 17.449796472181333,77.26544986912631 17.51696065129363,77.22284584643057 17.60854816826759,77.19444314992143 17.730664857517695,77.2015438251401 19.34260515603819,77.62758299290726 19.525780189957004,77.66308613731235 19.586838534625713,77.65598550991126 19.592944369040197,77.63468362326239 19.586838534625713,77.54947601041204 19.605156038014684,77.46426829162374 19.59905020351289,77.45006699486112 19.67842605157057,77.41456374007248 19.721166892821202,77.37906046690478 19.745590230682865,77.33645651481493 19.763907734042732,77.25834920052876 19.788331071904395,76.55537936602923 19.83107191315503,76.09382959364302 19.837177747598616,75.63937754977087 19.81886024423875,76.1151319592609 19.800542740849778,76.20034135548485 19.782225237460807,76.21454291123518 19.770013568515424,76.19324057651102 19.794436906377086,75.92341043035412 19.85549525101669,74.76596906594932 19.904341926740017,73.53039658780472 19.928765264572576,73.22505053064378 19.97150610582321,73.04042202202254 19.983717774768593,72.95520869641769 20.002035278157564,72.35871244982991 19.995929443684872,72.08176599875151 20.020352781546535,71.84742581965111 20.050881953851786,71.16570437778137 20.06919945726986,71.0520834780109 20.081411126157036,71.0094755920145 20.185210312047275,70.86034778236353 20.252374491188675,70.81063844035089 21.833785617374815,69.95137125704787 22.65196743555134,69.51818288861978 24.6058344640187,68.46005552136194 24.911126187245827,68.32512535335263 25.069877883332083,68.21149974258151 25.405698778835358,68.04106097305339 25.55223880597623,67.94873979584372 25.93080054273014,67.75699541486392 25.973541384009877,67.75699541486392 26.028493894147687,67.78540202369913 26.07123473539832,67.83511356078816 26.10176390770357,67.90612997979042 26.29104477612418,68.65179793456628 26.5352781546826,69.53238582937774 26.559701492544264,69.66731361969869 26.559701492544264,69.64600924941624 26.5352781546826,69.63180633221782 26.52917232020991,69.61050195090502 26.52917232020991,69.56079170206067 26.54138398912619,69.54658876718895 26.767299864295637,69.53238582937774 26.748982360906666,69.53948729864351 26.736770691990387,69.56789316837967 26.748982360906666,69.61050195090502 26.79782903662999,69.64600924941624 26.864993215742288,69.66021216367517 27.22523744913633,69.65311070692405 27.60379918589024,69.61760341209447 27.79308005425264,69.63180633221782 28.037313432840165,69.61050195090502 28.281546811398584,69.62470487252722 28.904341926740017,69.59629902634333 29.545454545441316,69.62470487252722 30.064450474921614,69.67441507497279 31.132971506100148,69.82354546598071 31.804613297135802,69.94426983047742 32.75101763906423,70.06499398222513 33.10515603798558,70.10050104519905 33.71573948441073,70.19992072363675 34.137042062415276,70.25673190366797 34.375169606501004,70.30644164756086 35.25440976934624,70.41296240589872 36.02985074627213,70.52658436555066 36.231343283550814,70.54078709726309 36.438941655360395,70.58339527473436 36.76865671642008,70.61890206902171 37.0800542740908,70.67571290166961 37.635685210319934,70.73252368717658 37.800542740820674,70.76803040420054 38.472184531914536,70.85324645000946 39.31478968792362,70.98817163906642 39.65671641789959,71.03077953831234 40.206241519685136,71.11599525732163 40.25508819537936,71.13729917048477 40.27340569876833,71.16570437778137 40.37720488465857,71.19410957327636 41.079375848028576,71.25091992895614 41.26255088194739,71.2864263773372 41.84260515603819,71.37164177835803 42.20895522387582,71.41424943913444 42.49592944368487,71.46395834321447 44.0223880597041,71.67699609509873 44.229986431484576,71.72670480854867 44.37652645862545,71.72670480854867 44.65739484396181,71.75510977146041 44.956580732687144,71.80481842825247 45.451153324276675,71.86162827756925 45.6282225237519,71.8971344094607 45.74423337855842,71.8971344094607 45.86024423336494,71.87583073254063 45.99457259156043,71.80481842825247 46.067842605145415,71.7835147226142 46.34260515603819,71.76221101036936 46.5929443690693,71.72670480854867 47.82021709633409,71.40714816419495 48.217096336506074,71.30773023752408 48.43690637720283,71.2864263773372 49.13297150610015,71.09469133750099 49.34667571235332,71.05918478975946 49.65807327002403,71.08759002941224 49.90230664858245,71.15150177561009 50.048846675723325,71.20831216661463 50.195386702835094,71.27932508911908 50.52510176389478,71.4852621482205 50.67774762547924,71.59178107382468 50.92808683853946,71.7125023226472 51.43487109904527,72.0249563319594 52.28968792402884,72.52914047874947 52.888059701479506,72.90550087420706 53.01628222523141,73.00491648256866 53.07734056987101,73.01911870054028 53.12618724559434,72.98361315006332 53.30936227951315,72.72797264336259 53.64518317504553,72.33740891642083 53.90773405699292,72.00365269477334 54.12754409768968,71.75510977146041 55.20217096337001,70.46267203643947 55.916553595656296,69.64600924941624 56.124151967436774,69.36195034598495 56.20963364993804,69.27673244529433 57.93758480323595,67.20306418843393 58.85345997285913,66.13069741839718 60.1601085481816,64.5682786989928 61.34464043419575,63.14786711797933 61.86363636364695,62.50157009805844 61.979647218453465,62.38083261605789 62.303256445069565,61.99731214377971 62.38873812754173,61.90498282045883 62.56580732698785,61.76293746462761 62.69402985073975,61.61378952390805 62.90162822252023,61.429129718722834 63.194708276801975,61.19475309517293 63.39620081410976,61.02429686515097 63.74423337855842,60.76150934601901 63.90909090908826,60.619461618531204 64.75780189957004,60.03706285553926 65.01424694710295,59.895013625427964 65.19742198099266,59.83109137574502 65.34396200816263,59.80978394592967 65.52713704205235,59.82398889987235 65.72252374491654,59.866603744048916 66.33310719131259,60.05126776232646 67.04138398915529,60.24303371581482 69.17232021709788,60.85384021088976 69.74016282224329,61.05270626628044 71.07123473539832,61.59958494119928 71.26662143826252,61.66350554022938 71.43147896879236,61.70611923978868 71.57191316148965,61.72032380041492 71.7306648575468,61.72032380041492 71.87720488465857,61.699016958380525 72.0542740841338,61.656403254397446 72.35956580733182,61.51435738299915 73.22048846675898,61.03139921654656 73.36092265942716,60.974580384812725 73.44640434192843,60.974580384812725 73.53799185890239,61.00298980656953 73.61736770690186,61.05270626628044 74.09362279513152,61.58538035553647 74.19131614651997,61.656403254397446 74.27679782905034,61.691914676230226 74.96065128900227,61.8339601793632 76.31614654001896,62.08964134263806 76.95115332430578,62.24589047254267 77.40298507464468,62.28140158871247 77.5739484396181,62.23878824709391 77.75101763909333,62.14645924931392 77.97693351426278,62.054130127049575 79.80868385345093,61.4575389519523 80.33378561734571,61.265776399151946 81.29240162821952,60.974580384812725 81.87245590231032,60.77571410256496 82.34260515603819,60.654973578035424 82.54409769334598,60.57684724283172 83.172998643131,60.36377496661589 83.45997286296915,60.292750727217935 83.61261872455361,60.221726414172736 84.18046132969903,60.02285794578347 84.41248303934117,59.951833352810354 84.67503392131766,59.895013625427964 84.76662143829162,59.84529632529302 84.83378561737482,59.74586161670595 84.90094979648711,59.70324669741967 85.73744911805261,59.426249075586384 85.90230664855335,59.35522386386583 85.96336499322206,59.31971123039693 85.99389416552731,59.2770960459311 86.0,59.24868590819824 85.98778833108372,59.184763055236544 85.77408412483055,58.91486590711429 85.65807327002403,58.72309623440378 85.62754409768968,58.694685866852524 85.5542740841338,58.66627548749966 85.51153324288316,58.62365989640239 85.15739484396181,58.190399881357735 84.974219810043,57.9915255139058 84.91316146540339,57.906293465333874 84.87042062418186,57.828163994301576" stroke="#4DD2FF" stroke-linecap="round" stroke-linejoin="round" stroke-width="0.5"><title>2026-05-16 14.9km</title><desc>18528937043</desc></polyline><polyline fill="none" points="184.88590375788044,58.02133620271343 184.8920251657837,58.06406101590983 185.0634245876572,58.2492015658936 185.16748852239107,58.384496267441136 185.25930964120198,58.519790702383034 185.38173779967474,58.66220560899819 185.52865158987697,58.868706698849564 185.57150144531624,58.91143098471366 185.65107974834973,58.93279311768856 185.74290086718975,59.03960368279513 185.88981465736288,59.26746566633665 185.981635776232,59.4312409999111 186.0,59.52380949389044 185.98775718413526,59.566533372075355 185.963271552464,59.602136583591346 185.90205747322761,59.644860413063725 185.81635776226176,59.67334295127512 184.83081108654733,59.99377069186448 184.51861928243306,60.064976653360645 184.29212718925555,60.15754429290246 184.10236354361405,60.207388354807335 183.75344329196378,60.335558633531036 183.2698520659469,60.47796977372491 182.50467607547762,60.734309081715764 182.2230913109961,60.80551427518367 181.9537493623793,60.905201422014215 181.39670124129043,61.07609333696746 180.80292467269464,61.282587166722806 179.8785920761875,61.58164609505184 179.63373575924197,61.68133211501117 179.10729467778583,61.83798128260969 177.87689168509678,62.23672300558246 177.6442781839869,62.27944519571611 177.65039959189016,62.272324832527374 177.4545145383454,62.364889496217074 177.11783710253076,62.4432133449227 177.0505016153911,62.4432133449227 176.8974664172856,62.421852304141794 176.18126169018797,62.25096373855922 174.57745281414827,61.95902812184795 174.1918041149329,61.86646291102079 174.1305900356965,61.83798128260969 174.06325454855687,61.78101799028809 173.7326985206746,61.41075543835905 173.55517769086873,61.23274388536811 173.47559938786435,61.16865961330768 173.39602108483086,61.14017769542261 173.2735929263581,61.154418655838526 173.1817718075181,61.190021043985325 172.2451963951753,61.72405465070915 171.98809726236505,61.84510169081477 171.85954769595992,61.880703720809834 171.66366264238604,61.909185331525805 171.49226322054164,61.909185331525805 171.34534943039762,61.88782412461296 171.063764665887,61.80237923045206 169.5762625403877,61.20426199405483 169.36813467097818,61.1259367320381 169.01309301136644,61.01200891870394 165.63407583744265,60.064976653360645 165.43819078386878,60.022253085327975 165.33412684916402,60.01513248807896 165.14436320352252,60.02937368183484 164.9974494133785,60.064976653360645 164.81992858357262,60.15042370965966 164.6913790171675,60.22875008453411 163.5834041829512,61.04049088976171 163.11205577282817,61.396514531101275 162.80598537664628,61.638609552748676 162.3223941506585,62.0729543638663 161.88165278013912,62.571379450149834 161.60618942358997,62.92027485784638 161.3307260669826,63.226446918488364 160.5288216289773,64.20903640392498 158.17820098620723,67.00720334446669 157.81703791872133,67.45575385406846 157.1375616391888,68.24605000508745 156.72130590036977,68.74443028955284 156.07243666044087,69.50623316417477 155.92552287026774,69.6984624610559 155.79697330386261,69.81949544602685 155.56435980275273,70.11851720046252 154.97670464208932,70.82334904248273 153.07906818567426,73.08018618551432 152.98724706683424,73.17985551692982 152.9566400272015,73.20121321200713 152.91379017173313,73.20121321200713 152.87094031629385,73.17985551692982 152.6872980785556,73.05170920713135 152.41183472200646,72.89508561490948 152.24655670803622,72.7740580490863 151.2610100323218,72.19027503078541 150.75293317463365,71.84854608382739 150.58765516069252,71.69903913495364 150.54480530522414,71.66344219441089 150.35504165958264,71.5851288602571 150.11018534263712,71.43562133805244 149.96939296039636,71.36442716547026 149.7918721305905,71.30035234708339 149.60822989288135,71.2576357682774 149.20421696992707,71.25051633588009 148.94711783708772,71.27899406099459 148.69001870430657,71.32883005153417 148.3594626764243,71.4000242609909 148.18194184661843,71.46409898640559 148.02890664854203,71.53529305567645 146.4128549566376,71.94821720231266 146.1679986396921,71.98381399527716 145.86804965144256,72.00517206222139 145.80683557217708,71.99805270731304 145.81295698010945,71.99805270731304 145.5558578473283,72.03364947445516 145.34160856998642,72.01941076983348 144.58867539535277,71.90550102639827 144.52133990818402,71.90550102639827 144.38666893387563,71.8770235610209 142.8440741370432,71.67056158400374 142.29926883181906,71.57800946182397 141.86464886923204,71.5210542477289 141.47900017001666,71.48545721494156 141.23414385310025,71.43562133805244 140.98928753615473,71.41426309401868 140.73218840334448,71.35730774416152 140.4812106784666,71.32883005153417 140.45672504676622,71.34306889932486 140.44448223090149,71.44274075125577 140.39551096750074,71.50681543682003 140.3281754803611,71.57800946182397 140.2730828090571,71.5851288602571 140.22411154565634,71.61360644664819 140.18738309812034,71.67056158400374 140.12616901888396,72.05500752590888 140.08331916338648,72.2329910296321 140.07107634757995,72.37537750056799 140.01598367624683,72.6530302700121 139.97313382080756,72.98051670947461 139.9057983336388,73.24392858222564 139.82622003060533,73.69243836578244 139.7772487672337,73.9914432613441 139.7343989117362,74.41859085462784 139.63033497703145,75.00235493699438 139.55075667405617,75.32271116688207 139.42832851558342,75.57899507520051 139.28141472538118,75.7996832301942 139.0855296718364,76.02748961436737 137.83676245537936,77.21634192472266 137.09607209658134,77.89974471978348 136.90630845096894,78.08483180700568 136.7777588845638,78.18449387821602 136.61248087059357,78.2414435683022 136.5145383438503,78.25568098343501 135.62081278694677,78.2343248596153 135.4065635096049,78.22008744004415 135.19843564019538,78.22720615020808 134.48223091309774,78.22008744004415 134.13943206937984,78.18449387821602 133.82724026526557,78.20585001751897 133.29467777590617,78.19873130515771 133.06818568272865,78.21296872914536 132.97024315592716,78.22008744004415 132.7559938785853,78.26991839562834 132.70090120728128,78.29839321116742 132.61520149634453,78.37669889305107 132.57235164090525,78.42652973505028 132.53562319334014,78.50483527089091 132.5233803775045,78.62585274168669 132.51725896957214,79.34483449675463 132.51113756163977,79.4658504881154 132.4866519299685,79.52279911618098 132.45604489033576,79.55127341250045 132.40095221900265,79.57974769704015 132.35810236356338,79.58686626633425 131.81329705831013,79.57262912701844 130.54616561811417,79.5583919847486 130.29518789320718,79.52991769136861 130.05033157626167,79.5583919847486 129.3402482570964,79.5583919847486 129.15660601938725,79.54415483953926 128.5750722666271,79.53703626580682 128.2873660941841,79.54415483953926 126.76925692908117,79.54415483953926 126.57949328346876,79.52991769136861 126.38360822989489,79.53703626580682 125.12871960553457,79.52279911618098 124.86549906479195,79.52991769136861 124.57167148444569,79.52279911618098 124.31457235166454,79.49432480805262 124.1125658901583,79.50856196359382 122.74749192316085,79.50856196359382 122.42917871111422,79.49432480805262 122.3189933685062,79.48720622916153 122.26390069717309,79.4729690692111 122.21492943380144,79.43025757161377 122.1843223941687,79.3661902754393 122.17207957833307,79.25941131572472 122.1843223941687,78.71839536962216 122.17820098623633,78.29839321116742 122.15983676246833,78.25568098343501 122.09250127529958,78.17737516365014 122.00068015645957,78.12042542044219 121.98843734059483,78.07059435643896 121.97007311682682,78.0207632563106 121.90885903759045,77.96381338333595 121.83540214248933,77.94245716879232 121.30896106103319,77.92110094761301 120.80700561130652,77.88550723087974 120.5254208467959,77.88550723087974 119.76024485632661,77.84991349573829 119.64393810575712,77.84991349573829 119.58884543448221,77.83567599650996 119.59496684238547,77.83567599650996 119.38683897297597,77.81431974214502 118.67063424587832,77.65770700727444 118.32171399422805,77.55092539246107 117.36677435811725,77.30176764586213 117.19537493624375,77.22346073888912 117.20149634417612,77.23057955228433 117.17088930454338,77.25193598811165 117.14028226493974,77.30176764586213 117.06682536986773,77.53668783129251 117.03621833023499,77.60787560768222 116.6322054072516,78.2343248596153 116.19758544466458,78.81805652190087 115.8303009692172,79.35907168326958 115.75072266624193,79.45161332371936 115.66502295530518,79.52279911618098 115.67726577114081,79.52279911618098 115.6038088760397,79.64381479409349 115.4507736779633,79.93567525811523 115.23652440062142,80.23465298468363 114.65499064786127,81.11734154012811 114.26934194867499,81.63698353258224 114.11630675056949,81.81494221576577 114.04897126340074,81.97154547578248 114.02448563170037,81.97866379728657 114.0,81.97866379728657" stroke="#4DD2FF" stroke-linecap="round" stroke-linejoin="round" stroke-width="0.5"><title>2026-05-16 14.1km</title><desc>18523809104</desc></polyline><polyline fill="none" points="82.46315378151485,186.0 82.41504834246007,185.82293737944565 82.40703076933278,185.6831508543546 82.358925330278,185.6272361835945 82.21460901314276,185.5713214781499 81.8939060861594,185.42221542737389 81.09214876877377,184.97489579480316 80.89170943942736,184.88170392520988 80.21021571964957,184.49961625237484 80.1460751342529,184.4343816097462 80.11400484154001,184.38778540752537 80.10598726835451,184.3318699330557 80.12202241475461,184.27595442387974 80.27435630501714,183.95909921664133 80.49884835389093,183.37198221143626 80.85963914674358,182.7196254970695 81.06007847606088,182.25365352395602 81.268535378651,181.83427668800869 81.32465839083306,181.75040108657413 81.4609571347828,181.61060824406013 81.50906257383758,181.53605197273282 81.28457052496378,181.48945427181752 81.18835964685422,181.42421745004685 81.13223663461395,181.3217023489924 81.13223663461395,181.3310219084451 81.15628935417044,181.20054798827914 81.14827178101405,181.1073522153747 81.09214876877377,181.02347593731974 81.0199906102207,180.94891918016947 80.83558642721619,180.81844470671786 80.66721739058266,180.73456815976533 80.08193454885622,180.6600111635562 79.29621237781248,180.4922576965837 78.98352702401462,180.44565945588693 78.91136886543245,180.41770049990737 78.83921070690849,180.37110222063347 78.71894710927154,180.2779055898427 78.51850777992513,179.92375751367217 78.3741914627899,179.728043506002 77.6926977430121,179.01042184078688 76.56221992545761,177.65904085162038 76.41790360835148,177.5192416614227 76.12927097408101,177.25828259262198 75.9208140715782,177.1091627854039 75.66425172999152,176.95072271980462 75.2553554980841,176.76432228588237 74.84645926623489,176.6152016611013 74.67007265638676,176.56860141522338 73.75606931454968,176.42880053301633 73.2750149241183,176.37288011938654 72.27281827735715,176.18647848997352 72.03229108217056,176.10259763089562 71.84788689916604,176.00007647487655 71.16639317935915,175.58999068418052 70.78956724019372,175.3103856657326 70.63723334990209,175.15194243676524 70.51696975226514,174.9934989291287 70.42877644737018,174.84437537327176 70.00384506912087,174.0335117181312 69.84349360564374,173.7539018689422 69.63503670311184,173.34380585361214 69.44261494695093,172.9243875433167 69.29829862981569,172.66341516469402 69.0657890077855,172.31855764766078 68.68094549540547,171.9084550981206 68.58473461732501,171.843211338557 68.47248859287356,171.78728807846346 67.58253797056386,171.47970952733885 66.65249948238488,171.3119389659405 66.00307605531998,171.1814505354705 65.78660157960257,171.08824439797172 65.70642584786401,171.03232066917553 65.65030283565284,170.9577556434524 65.62625011612545,170.88319055600005 65.61823254293995,170.78998410988424 65.56210953075788,168.7860221908195 65.53805681123049,167.91917833769548 65.54607438438688,167.6954753439568 65.5220216648595,167.0709682125016 65.55409195754328,166.3346034945571 65.53003923801589,165.79397746398172 65.5220216648595,165.40248762293777 65.4979689453321,165.0855660290399 65.5059865184885,164.92710481386166 65.60219739659806,164.52628990750236 65.57814467707067,164.3025784864003 65.48193379899021,163.94836759986356 65.44986350627732,163.67804782812163 65.44986350627732,163.12808440858498 65.41779321359354,161.77646512459614 65.39374049406615,161.36631457128533 65.33761748185498,160.81633703382977 65.3055471891712,159.30621194537525 65.2814944696438,158.7935093974229 65.25744175011641,157.40453691878065 65.26545932327281,157.18080780455057 65.31356476232759,156.92911188661674 65.39374049406615,156.50961712643038 65.5140040917031,156.0155430135128 65.7384961405478,155.47485502824566 65.92290032355231,155.10196487072972 65.9469530430797,154.99941980668518 65.03294970124261,154.52398207449005 62.683800761267776,153.23749091682112 61.90609616340953,152.76204388010228 61.78583256577258,152.65949615083082 61.57737566324067,152.57559337636485 61.40900662660715,152.46372288881685 59.99791374796769,151.4102689793217 59.62910538195865,151.15855692852347 59.0919279793161,150.76700345057907 57.5365187835705,149.54571856718394 57.5365187835705,149.52707286799705 57.47237819817383,149.47113574739342 56.99934138089884,149.16348096261936 56.24568950253888,148.52019937850855 55.419879465625854,147.8862362182481 54.858649343426805,147.47602238233958 54.45777068476309,147.1497145869871 52.6698518669582,145.84447157612158 52.38923680584412,145.602067218686 52.156727183784824,145.43424843496905 51.202635976078454,144.70703008971032 50.40087865869282,144.13830395606055 50.10422845123685,143.90521843685565 49.5670510486234,143.52295687854348 49.44678745098645,143.42039862326055 49.35057657290599,143.26189927157247 48.94969791418407,143.04745852796623 48.76529373120866,142.92625266428513 48.228116328537,142.51601622206363 48.06776486503077,142.37616246209654 47.00944520608755,141.62094840276404 45.7827565104526,140.68857662476512 45.534211742080515,140.4927773241143 45.55024688842241,140.4927773241143 45.55024688842241,140.47412974944746 45.21350881509716,140.23171092724078 44.227347314707,139.3552681986257 43.786380790144904,138.9077196832077 43.04074648494134,138.04991214038455 42.896430167835206,137.85410709843563 42.896430167835206,137.86343115772615 42.80823686288204,137.79816272247263 42.62383267990663,137.62100530251337 42.19088372850092,137.09885508841398 41.21273980126716,136.00792432712478 40.82789628894534,135.59765634498035 40.50719336196198,135.1967108277895 40.274683739902684,134.84238539527723 39.994068678846816,134.34819233023882 39.8016469226568,133.98453909598902 39.42482098346227,133.19195644154388 39.33662767853821,132.9681671339422 39.168258641904686,132.3900421795188 39.04799504429684,131.5787960602538 39.05601261748234,131.60677018615388 39.08006533700973,131.60677018615388 38.999889605271164,131.49487363042863 38.67116910510231,131.1032345894273 38.54288793433807,130.97268786357017 38.08588626343408,130.5437472876729 37.90148208042956,130.41319974994985 37.47655070220935,130.13345438837132 37.268093799677445,129.95628187608963 37.09972476301482,129.76978411780146 36.722898823878495,129.30353803061735 35.953211799118435,128.41766380758781 35.78484276251402,128.287113184575 35.28775322571164,127.83950961017399 34.67040009130142,127.19607557002018 34.518066200980684,127.05619799577835 34.14124026184436,126.67386484970484 33.90873063978506,126.40343310663593 33.6120804323582,126.14232582462137 33.459746542037465,125.95582015918626 33.02679759063176,125.62010898687731 32.706094663677504,125.29372192368464 32.345303870824864,124.89273048190807 28.961887991434196,121.48889392565616 28.87369468648103,121.4329393718217 28.536956613184884,121.25574972172035 28.23228883257252,121.03193071737769 26.684897210012423,119.97810875325376 25.233716465503676,118.93360046223825 24.880943245865637,118.70044963395776 24.55222274569678,118.44864606054762 23.742447855125647,117.93571067447192 22.547829452203587,117.08702933798486 22.2992846838315,116.88185242805048 21.994616903190035,116.58341245063639 21.152771719935117,115.57617021444457 21.01647297598538,115.3803162472177 20.84810393929365,115.21244107864914 20.79999850023887,115.22176748514175 20.551453731866786,115.34301068131026 20.33497925620759,115.52021198163857 20.206698085414246,115.58549658321135 19.50916921926546,115.81865548758651 19.348817755788332,115.85596085619181 19.260624450893374,115.8466345154884 19.180448719096603,115.80000279748492 19.108290560543537,115.73471835164673 18.80362277996028,115.28705230338528 18.691376755508827,115.15648261950264 18.603183450584766,115.09119770646066 18.458867133478634,115.06321844348713 18.386708974896464,115.016586319216 18.17023449917906,114.7367930657274 17.98583031623275,114.56891669574543 17.625039523351006,114.13057136317366 17.53684621845605,114.0" stroke="#4DD2FF" stroke-linecap="round" stroke-linejoin="round" stroke-width="0.5"><title>2026-01-16 12.9km</title><desc>17068148245</desc></polyline><polyline fill="none" points="117.18247979492298,114.0 117.31059503788128,114.17697488583508 117.8871136312082,114.84761339355464 118.0712792929844,115.0991015427644 118.1433441171539,115.15498770248814 118.2154089412943,115.17361641467141 118.3114953735203,115.26675991762022 118.67982669704361,115.77904745708656 118.78392033194541,115.89081889551744 118.90402837222791,115.91876173339551 119.06417242591851,115.90944745507295 119.85688549175393,115.63001865609112 120.08108716696734,115.53687552992051 120.08909436964313,115.55550416286133 120.36133926094044,115.82561890668148 120.56151932806824,116.06779005524004 121.15405232677585,116.84087050591188 121.69053490663646,117.33452080623829 121.90672937917407,117.50217500799772 123.19588901146199,118.40563948542695 123.49215551078669,118.62917568562261 123.6202707538032,118.6943736391986 124.0366452934104,118.99242082430283 126.80713742246735,120.84587955737516 127.81604496081127,121.56303674435912 128.08828985210857,121.81450609039894 128.26444831115077,121.90764270655927 128.40857795951888,122.00077922616765 128.65680124273058,122.28018820553552 129.7778096186521,123.3605614150656 129.8418672401458,123.44438293123676 131.22711330468883,124.82276997877489 131.53138700668933,125.14873679642915 132.01982637052424,125.60508835399378 132.56431615308975,126.16388302238192 132.74047461216105,126.31289434689825 132.99670509810676,126.62022942316253 134.19778550084447,127.79368095248356 134.9664769586525,128.57597345712566 135.3748442955839,129.0043688469741 135.7111468083458,129.32100760487083 136.1435357533628,129.75871228562755 136.35172302316641,129.92634330082365 136.50385987418122,130.09397400319722 136.80012637350592,130.44786001454486 137.07237126480322,130.82968283197988 137.34461615610053,131.1370024576463 137.50476020982023,131.3325689448975 137.84906992525794,131.72370064236748 137.97718516827445,131.88201536920678 138.07327160047134,132.08689283693093 138.16135083002155,132.34764530202665 138.29747327568475,132.92502306766255 138.29747327568475,133.06471067939856 138.31348768103635,133.13921065021714 138.78591263946146,133.77245790810412 139.30638081399957,134.64782176930748 139.61866171873407,135.13206194409577 140.03503625837038,135.5231771033432 142.30107461821171,138.08400810938474 142.98168684646953,138.88483482760057 143.39005418340093,139.31318107321567 143.72635669619194,139.64840714572347 144.15874564117985,140.0395026499973 144.97548031507176,140.728571540516 146.6009424601507,141.92977359640645 147.0413386078726,142.27430145609833 148.21039019984892,143.12164814148855 148.37854145624442,143.25200846105145 148.47462788849953,143.35443429373117 148.46662068579462,143.35443429373117 148.85096641469863,143.5965312525368 149.57962185901124,144.15521405345498 151.10099036921747,145.27256923811365 151.69352336792508,145.72881861163478 151.81363140817848,145.859175150159 152.06185469141928,145.9988426602722 152.20598433972918,146.10126536306052 152.6944237035641,146.48302168174996 153.92753291706322,147.3768837932439 154.48002990233363,147.81450054446032 154.60814514529193,147.88898828993842 155.06455569836544,148.26142609160888 155.50495184605825,148.55006432665687 156.00139841251075,148.97836451597686 156.44980176290846,149.3228653614933 156.48983777631656,149.369419428549 156.52186658704886,149.4345950819261 156.53788099242956,149.41597347147035 156.91421951862867,149.6021894022124 157.09037797767087,149.66736488686 157.18646440992597,149.73254032423574 159.1882650811749,151.20363048484433 160.44539590275963,152.21848245116416 161.12600813104655,152.73986983269424 161.11800092834164,152.7305593702622 161.14202253639814,152.7305593702622 161.98277881831746,153.19608131135465 162.75947747880127,153.59642825301125 163.38403928821208,153.9595320771623 163.9685650842439,154.2667726292275 164.7532709473744,154.70435584550432 165.0815662574605,154.89987106237095 165.1616382843349,154.9557324748239 165.2096815004479,155.04883475174574 165.21768870315282,155.1884879864374 165.0495374467573,155.56089555188373 164.8653717850102,156.06364331868826 164.7933069608116,156.30570605576213 164.729249339347,156.5663882746594 164.681206123234,156.9387901335649 164.6571845151775,157.50669999913225 164.729249339347,161.01648959297745 164.7212421366421,161.71470726175903 164.7612781500502,163.6417599023698 164.7372565420228,163.88380224291905 164.7452637446986,163.97689527739567 164.7933069608116,164.12584393209545 164.8093213661632,164.3027201392033 164.8013141635165,164.94505712405953 164.8173285688681,165.90389945104835 164.8413501768955,166.14593570430588 164.8493573795713,166.5182978991288 164.8893933930376,166.8534225565454 164.9134150010941,167.20716389598238 164.9374366091797,168.72451228152931 164.9694654198829,169.40405264715082 164.9774726225878,170.39077335481852 164.9934870279394,170.6234889256084 165.0255158386717,170.73519218574074 165.23370310850441,170.9399811357871 165.28975352729321,171.0889182612009 165.32178233805462,171.13546106230933 165.44189037830802,171.20992949402716 165.73014967498602,171.2843978640958 166.85916525355424,171.47987704224215 167.34760461738915,171.60088774920587 168.01220244026626,171.85221715897205 168.14832488590037,171.91737652095617 168.30046173688606,172.01976970874966 168.63676424967707,172.38279916275496 168.80491550607258,172.62481798494264 169.6696933960484,174.26308212351432 169.9979887061636,174.87742348483152 170.0940751383605,175.0263540922606 170.2382047866995,175.20320886835543 170.3983488403901,175.35213893651962 171.0549394605914,175.83615995553555 171.23910512236762,175.9478567440019 171.42327078408562,176.0409372951326 171.61544364856672,176.12470970882714 171.93573175597703,176.22709810853848 172.10388301234343,176.27363825173234 172.65637999761384,176.3481024307257 173.83343879235326,176.58080259295093 173.96956123801647,176.6273425531399 174.07365487288916,176.70180643944332 174.28984934539767,176.74834633709543 174.54607983131427,176.76696228942455 174.65818066895008,176.8041941824631 174.98647597897798,176.93450568690605 175.2827424783609,177.07412494656455 175.5389729642775,177.2230519180157 175.7952034502232,177.41851819403382 176.0274123280542,177.6419077038081 176.2516140032676,177.8839123802536 176.91621182614472,178.6936925264381 177.22849273085012,179.09392599973944 177.87707614834653,179.78269571626151 177.96515537789674,179.93161820505338 178.09327062082593,180.2666929037514 178.19736425575684,180.32253856558236 178.58971718730754,180.48076775250956 179.01409892964875,180.62038150995795 179.21427899674745,180.6576118087105 179.50253829339636,180.69484209203074 180.10307849480887,180.81584040648158 180.29525135926087,180.88099327767122 180.45539541295148,180.97406872607826 180.65557548010838,181.17883437372075 180.75966911498108,181.32775455212686 180.94383477672818,181.50459694387246 180.9758635875187,181.57905679435498 180.95984918210888,181.6349016417662 180.84774834453128,181.78382106543722 180.71963310157298,182.0258146033666 180.52746023712098,182.4632628090476 180.50343862906448,182.55633662103355 180.51144583174028,182.66802506834938 180.52746023712098,182.75179131287587 180.56749625055818,182.82625013145298 180.64756827740348,182.89140154716733 180.79169792574248,182.96586025020952 181.9527423150721,183.54291311026464 182.337088043947,183.71975114930683 182.72143377288012,183.9338177842801 182.78549139434472,183.98035394190083 182.80951300240122,184.02689007545996 182.81752020507702,184.10134783912508 182.77748419166892,184.21303436908056 182.0968719634402,185.4322699730401 182.0087927338609,185.55326191840868 182.0248071392707,185.5625689843946 181.9767639231286,185.84178051637718 182.0087927338609,185.99069297923415 182.0248071392707,186.0" stroke="#4DD2FF" stroke-linecap="round" stroke-linejoin="round" stroke-width="0.5"><title>2026-01-16 12.5km</title><desc>17064450385</desc></polyline><polyline fill="none" points="37.046189044602215,203.31459810357774 37.17164968326688,202.72319884668104 36.54434648924507,196.51347556285327 35.72885233699344,195.1828131880029 33.5960214775987,194.0 33.094178922474384,194.0 31.588651256635785,194.66533267166233 31.274999659974128,195.10888742411043 31.086808701744303,195.7002933100448 30.898617743514478,197.9919862553361 31.274999659974128,199.91404534468893 31.463190618203953,203.5363726921496 32.40414540912025,204.71916927571874 33.78421243582852,204.86701870383695 36.10523425345309,204.2756207982311 38.04987415461801,205.75411459681345 38.80263798753731,209.00678962667007 39.806323098018765,211.37236168491654 40.119974695146084,212.99868769646855 40.998199166730046,215.1424751271843 41.813693318516016,216.54702184459893 41.374581082724035,217.43410248542204 40.6218172502704,218.09941220632754 40.24543533381075,218.83864446508233 37.54803159972653,221.49987393658375 37.17164968326688,222.46087090612855 36.73253744770773,227.26583536306862 37.3598406414967,229.5574218276306 36.73253744770773,232.80998289346462 36.16796457301825,233.4013559598243 35.72885233699344,234.28841459401883 34.286054990952834,235.61900037381565 33.909673074726015,235.39723625825718 32.59233636735007,237.68879529606784 32.09049381199293,239.75858391297515 32.21595445089042,241.16307974018855 33.21963956113905,243.01109614229063 35.7915826565586,245.22870918974513 36.41888585058041,245.5243903825176 37.98714383528568,247.0767145336722 39.24175022332929,249.0725546592148 40.6218172502704,250.10743241623277 41.24912044382654,250.84662984893657 42.62918747100048,251.6597460959456 43.25649066478945,253.06421732198214 47.08304014825262,256.98193750320934 48.776758771855384,259.4212612991105 49.78044388233684,260.1604485991411 51.78781410283409,262.0084133311175 51.913274741731584,262.45192411902826 55.67709390562959,265.7782458002912 56.304397099418566,265.85216387483524 57.30808220966719,265.7043277177145 58.6881492366083,263.4128631662461 59.94275562465191,262.5997609840124 61.824665206251666,261.1953094684286 63.26746255229227,259.4212612991105 64.77299021789804,258.2385599463014 66.52943916106597,257.64720849791775 67.28220299398527,257.1297755583655 68.22315778490156,256.98193750320934 68.7250003402587,256.6862612965051 69.10138225648552,255.5774743753136 67.65858491044492,253.28597567143152 67.28220299398527,252.32502230192767 65.58848437014967,249.73783339810325 65.52575405105017,248.702955078159 64.52206894056872,246.7071138668689 63.95749606587924,244.6373464182252 63.769305107416585,241.68052483949577 64.02022638521157,238.7976114107296 64.52206894056872,237.39311069325777 65.7766753283795,235.47115763806505 66.96855139685795,233.17959112039534 66.78036043862812,231.18370430718642 66.34124820283614,230.29664161917754 64.45933862100355,228.07897983194562 62.76561999740079,227.11799080960918 61.009171054232866,225.04816368268803 60.44459817954339,223.93932512780884 60.06821626308374,223.71755719953217 59.817294985754415,223.05225298093865 58.93907051417045,222.16517967561958 58.18630668125115,219.65179902070668 57.49627316812985,218.24725872231647 55.73982422472909,216.9166389189195 52.728768893750384,215.58601650956552 46.016624718438834,216.0295576021308 42.566457151435316,217.36017914302647 41.50004172162153,218.46902843622956 39.367210862226784,219.94749134517042 38.990828945767134,220.3171065695351 37.61076191905886,222.31302530691028 36.85799808637239,226.8223016060656 36.92072840570472,227.93113545578672 37.422570961061865,228.67035701638088 37.61076191905886,230.00095379905542 37.422570961061865,231.55331341846613 36.79526776680723,233.69704230001662 36.293425211682916,234.80586492910516 34.85062786540948,236.2103709951043 34.725167226977646,236.7278198664426 34.662436907412484,236.06252838781802 32.717797006014735,238.28016411559656 32.0277634926606,240.49779260496143 32.7805273255799,242.7154138557962 35.0388188236393,245.15478887147037 37.861683196388185,247.6680751820095 42.190075234975666,252.4728613703628 44.071984817041084,253.8034115381306 48.023994938703254,258.3124788411078 49.52952260454185,259.4212612991105 51.28597154770978,261.86057633766904 52.03873538039625,262.3780056745745 54.48521783668548,264.5955555125838 55.36344230826944,265.7043277177145 55.865284863859415,265.92608194152126 57.18262157100253,265.4086553066154 58.37449763948098,263.7824547457858 60.00548594421707,263.1171897579916 61.0719013735652,261.71273931191536 62.4519684005063,260.2343672850402 63.58111414941959,259.27342374256114 64.2084173434414,258.3863977281144 65.90213596750982,257.5732895305846 67.2194726744201,257.351532580622 68.28588810423389,256.9080184636405 68.66227002069354,256.39058496127836 68.7250003402587,255.5774743753136 67.78404554910958,254.17300834454363 66.46670884173363,250.477031233022 65.14937213459052,248.77687501051696 64.52206894056872,247.15063464274863 63.58111414941959,242.7893344393815 63.51838383008726,241.75444553565467 64.2084173434414,238.57584833243163 65.02391149569303,237.3191895224736 65.46302373148501,235.76684307737742 66.21578756440431,233.91880697046872 66.15305724460632,232.366452756105 65.52575405105017,230.66625121317338 65.08664181502536,228.7442791283247 64.45933862100355,227.7093688303721 63.07927159406245,226.8223016060656 62.70288967806846,226.67445695603965 62.26377744227648,226.67445695603965 60.75824977667071,225.26993117650272 58.49995827837847,221.42595103639178 57.872655084123835,219.50395281030796 56.42985773831606,216.69486869842513 54.736139114480466,215.8077870918787 53.41880240733735,215.43816941406112 51.160510908812284,215.21639871085063 48.96494972985238,215.36424585443456 47.08304014825262,215.88171060342574 45.20113056595437,215.9556341067073 40.81000820850022,218.5429516582517 39.8690534173511,219.65179902070668 37.73622255795635,223.8654024930438 37.3598406414967,225.34385365818162 37.10891936393455,226.8223016060656 38.04987415461801,229.48349980439525 38.11260447418317,231.10978246066952 37.61076191905886,232.366452756105 36.92072840570472,233.10566949105123 36.10523425345309,234.80586492910516 34.59970658831298,236.1364496955066 32.90598796424456,238.28016411559656 32.341415089555085,239.83250481809955 32.40414540912025,241.60660413501319 33.40783051936887,243.45461933070328 34.286054990952834,244.4895056449459 35.54066137899645,245.30262950010365 36.73253744770773,246.33751299919095 38.42625607107766,248.48119523306377 43.06829970655963,252.4728613703628 43.50741194235161,253.35989510494983 45.07566992728971,254.98612061102176 45.64024280174635,255.87315106479218 47.02030982868746,256.9080184636405 49.592252924107015,259.49518006527796 50.53320771455765,260.1604485991411 51.599623144604266,261.71273931191536 54.7988694338128,265.2608190527535 55.67709390562959,265.7043277177145 56.304397099418566,265.6304096269305 59.5036433886271,263.7824547457858 60.69551945710555,262.6736794045428 61.19736201246269,261.86057633766904 61.95012584514916,261.2692280415795 62.4519684005063,260.30828596267384 64.14568702387623,258.6081543401815 65.58848437014967,258.09072213229956 66.27851788327098,257.5732895305846 67.78404554910958,257.27761358127464 68.47407906246372,256.9080184636405 68.78773065959103,256.09490849700524 68.59953970112838,255.28179755766178 67.40766363264993,253.58165335765807 66.21578756440431,250.55095097242156 66.27851788327098,249.5160738909617 65.58848437014967,248.9247148509021 64.33387798210606,246.63319370953832 63.3929231914226,241.60660413501319 63.58111414941959,240.20210922457045 63.95749606587924,239.6107420779299 64.8357205374632,239.01937441620976 65.58848437014967,237.39311069325777 66.34124820283614,232.80998289346462 66.5921694803983,231.99684408685425 66.27851788327098,230.51840739964973 65.08664181502536,229.03996749519138 64.58479925990105,228.07897983194562 63.3929231914226,227.26583536306862 61.57374392892234,226.5266122740577 59.378182749962434,222.83048476313706 58.49995827837847,220.46495260309894 57.55900348722935,218.61687487200834 56.36712741898373,217.43410248542204 54.673408795148134,216.47309840540402 53.920644962228835,215.88171060342574 51.41143218637444,215.51209296582965 48.839489091187716,215.73386357264826 46.1420853571035,215.8077870918787 45.51478216308169,215.73386357264826 44.4483667332679,216.17740456876345 43.57014226168394,216.99056230986025 41.93915395741351,217.58194914658088 41.18639012495987,218.09941220632754 38.990828945767134,221.86948831641348 37.98714383528568,223.27402112621348 37.422570961061865,226.230922812887 37.23438000283204,229.03996749519138 37.3598406414967,232.366452756105 36.41888585058041,234.21449308551382 35.35247042053379,235.91468574875034 32.96871828357689,237.7627164266305 32.52960604778491,240.27603008178994 32.717797006014735,241.68052483949577 34.2233246716205,243.82422176684486 35.54066137899645,245.30262950010365 39.93178373691626,249.0725546592148 40.74727788893506,250.1813521955628 43.19376034545712,252.17718320112908 44.76201833039522,253.87733091565315 46.70665823179297,256.53842314484064 47.83580398070626,257.64720849791775 48.58856781339273,258.7559920414351 49.46679228497669,259.64301757357316 50.65866835368797,260.30828596267384 52.54057793552056,262.6736794045428 54.736139114480466,264.74339191109175 55.112521030940115,265.55649152823025 56.05347582185641,266.0 56.86896997387521,265.85216387483524 58.7508795557078,264.52163730119355 61.19736201246269,261.86057633766904 61.57374392892234,261.7866578287212 62.5146987196058,261.1953094684286 63.20473223295994,259.93869249353884 63.95749606587924,259.27342374256114 65.83940564794466,258.0168032134534 67.09401203575544,256.98193750320934 68.91319129848853,256.09490849700524 69.10138225648552,255.5774743753136 68.0349668264389,254.4686856449116 67.28220299398527,253.50773394823773 65.52575405105017,249.5899937346694 64.77299021789804,247.44631499919342 64.71025989856571,246.41143318871036 64.14568702387623,245.45047009625705 64.14568702387623,243.97206268494483 63.89476574654691,242.64149326406186 63.58111414941959,242.271890184551 63.95749606587924,239.0932954021264 63.89476574654691,237.98447977012256 64.14568702387623,236.87566232861718 66.4039785224013,234.14057156874333 65.7766753283795,230.37056355411187 65.40029341191985,229.26173368602758 64.02022638521157,227.48760213307105 62.01285616448149,226.00915563310264 61.57374392892234,225.86131080589257 60.00548594421707,224.16109298355877 58.93907051417045,222.60871647304157 58.06084604235366,220.68672159302514 57.74719444545917,219.50395281030796 56.304397099418566,217.87764237163356 55.112521030940115,216.69486869842513 53.167881129775196,215.58601650956552 52.03873538039625,215.73386357264826 47.89853430003859,215.1424751271843 46.393006634898484,215.43816941406112 43.319220984354615,217.2123324337881 42.62918747100048,217.36017914302647 40.998199166730046,218.61687487200834 38.42625607107766,221.49987393658375 38.04987415461801,222.5347936936887 38.86536830710247,223.34794382512337 37.98714383528568,225.19600868650014 37.54803159972653,227.0440685208887 37.73622255795635,229.48349980439525 37.422570961061865,232.66213954653358 37.046189044602215,233.54919914586935 36.10523425345309,235.02762923779665 34.97608850430697,235.98860707238782 34.53697626874782,236.1364496955066 32.46687572868541,238.50192729040282 32.0277634926606,239.75858391297515 32.341415089555085,242.12404889671598 33.03144860314205,243.15893723728368 36.35615553124808,245.74615119263763 39.367210862226784,248.77687501051696 40.43362629204057,250.1813521955628 43.758333219913766,253.13813678000588 44.950209288392216,255.20787833310897 46.70665823179297,256.3166658571572 49.46679228497669,259.7169363157009 50.28228643746115,260.30828596267384 51.34870186704211,261.9344948384678 53.105150810210034,263.4128631662461 55.30071198916994,265.48257342132274 56.241666780086234,265.6304096269305 56.99443061253987,264.9651464485796 57.99811572325416,263.7085364458617 60.82098009600304,261.49098371277796" stroke="#4DD2FF" stroke-linecap="round" stroke-linejoin="round" stroke-width="0.5"><title>2018-10-24 10.1km</title><desc>17059065905</desc></polyline></svg>