<?xml version="1.0" encoding="utf-8" ?>
<svg baseProfile="full" height="300mm" version="1.1" viewBox="0,0,200,300" width="200mm" xmlns="http://www.w3.org/2000/svg" xmlns:ev="http://www.w3.org/2001/xml-events" xmlns:xlink="http://www.w3.org/1999/xlink"><defs /><rect fill="#222222" height="300" width="200" x="0" y="0" /><text fill="#FFFFFF" style="font-size:12px; font-family:Arial; font-weight:bold;" x="10" y="20">Over 10km Runs</text><text fill="#FFFFFF" style="font-size:4px; font-family:Arial" x="10" y="280">Runner</text><text fill="#FFFFFF" style="font-size:9px; font-family:Arial" x="10" y="290">Weihang</text><text fill="#FFFFFF" style="font-size:4px; font-family:Arial" x="65" y="280">SPECIAL TRACKS</text><rect fill="yellow" height="2.6" width="2.6" x="65" y="283" /><text fill="#FFFFFF" style="font-size:3px; font-family:Arial" x="70" y="285.5">Over 20.0 km</text><rect fill="red" height="2.6" width="2.6" x="65" y="287" /><text fill="#FFFFFF" style="font-size:3px; font-family:Arial" x="70" y="289.5">Over 40.0 km</text><text fill="#FFFFFF" style="font-size:4px; font-family:Arial" x="120" y="280">STATISTICS</text><text fill="#FFFFFF" style="font-size:3px; font-family:Arial" x="120" y="285">Number: 4</text><text fill="#FFFFFF" style="font-size:3px; font-family:Arial" x="120" y="290">Weekly: 1.3</text><text fill="#FFFFFF" style="font-size:3px; font-family:Arial" x="141" y="285">Total: 49.6 km</text><text fill="#FFFFFF" style="font-size:3px; font-family:Arial" x="141" y="290">Avg: 12.4 km</text><text fill="#FFFFFF" style="font-size:3px; font-family:Arial" x="167" y="285">Min: 10.1 km</text><text fill="#FFFFFF" style="font-size:3px; font-family:Arial" x="167" y="290">Max: 14.1 km</text><polyline fill="none" points="94.24664172760095,61.52400322804897 94.25352831147029,61.57206864289765 94.44635266109253,61.78035176163394 94.56342458765721,61.93255830086855 94.66672334633768,62.08476454018091 94.8044550246268,62.24498131011933 94.96973303859704,62.4772950362094 95.0179391259735,62.52535985779832 95.10746471688617,62.549392257395084 95.21076347559574,62.66955414314725 95.37604148953687,62.92589887462964 95.47934024824644,63.110146124898165 95.5,63.214285680624016 95.486226832174,63.2623500435875 95.45868049652199,63.302403656540264 95.38981465736288,63.35046796469396 95.29340248255176,63.382510820185416 94.18466247236938,63.742992028346634 93.83344669270446,63.823098735032545 93.57864308790886,63.92723732950981 93.36515898656216,63.98331189915916 92.97262370344833,64.12750346272514 92.42858357419027,64.28771599544416 91.56776058490505,64.5760977169266 91.25097772484878,64.65620355957799 90.94796803264762,64.76835159976326 90.32128889643354,64.96060500408203 89.65329025677056,65.1929105625677 88.6134160857182,65.52935185693786 88.33795272913994,65.64149862938211 87.74570651250542,65.81772894292953 86.36150314571569,66.26631338128209 86.09981295696343,66.31437584518426 86.10669954086188,66.30636543659784 85.88632885561674,66.41050068323966 85.50756674035802,66.49861501304258 85.43181431730045,66.49861501304258 85.25964971943176,66.47458384215861 84.45391940145055,66.28233420588367 82.64963441592408,65.95390663707803 82.21577962930314,65.84977077489748 82.14691379017313,65.81772894292953 82.07116136711556,65.75364523907047 81.69928583575529,65.33709986815666 81.4995749022055,65.1368368710464 81.41004931132193,65.0647420649766 81.32052372043836,65.03269990735134 81.18279204214923,65.04872098781925 81.07949328343966,65.0887736744844 80.0258459445613,65.68956148204597 79.73660942015704,65.82573940216389 79.59199115794036,65.86579168590833 79.37162047266611,65.89783349796926 79.17879612310207,65.89783349796926 79.01351810919004,65.87380214018776 78.69673524910468,65.77767663425766 77.02329535791068,65.10479474331805 76.78915150483954,65.01667882354377 76.38972963779815,64.8885100335392 72.58833531712298,63.823098735032545 72.36796463184874,63.77503472099488 72.25089270531316,63.76702404909156 72.03740860396647,63.78304539206874 71.87213059002534,63.823098735032545 71.67241965650464,63.91922667337349 71.52780139431707,64.00734384510724 70.28132970581646,64.92055225098011 69.7510627444135,65.32107884748984 69.40673354870523,65.59343574684317 68.86269341950538,66.08207365935232 68.36685937765287,66.64280188141856 68.05696310152416,67.03530921507627 67.74706682536635,67.37975278330123 66.84492433260311,68.48516595442197 64.20047610948677,71.63310376252775 63.79416765854694,72.13772308582702 63.029756844072836,73.02680625572248 62.56146913790144,73.58748407574603 61.83149124297779,74.44451230969571 61.66621322903666,74.6607702686888 61.52159496684908,74.79693237678293 61.259904778096825,75.13333185052761 60.59879272233229,75.9262676727958 58.463951708894456,78.46520945869997 58.360652950184885,78.57733745654696 58.32622003060533,78.6013648635053 58.27801394319977,78.6013648635053 58.229807855794206,78.57733745654696 58.023210338375065,78.43317285802186 57.713314062246354,78.25697131677589 57.52737629652256,78.12081530522119 56.41863628636929,77.4640594096345 55.84704982145922,77.07961434430763 55.66111205579364,76.91141902682284 55.61290596838808,76.87137246871134 55.39942186701228,76.78326996778924 55.123958510463126,76.61507400530536 54.965567080449546,76.53498056115495 54.765856146928854,76.46289639046881 54.55925862948061,76.41484023931844 54.10474409116432,76.40683087786601 53.81550756673096,76.43886831861892 53.5262710423267,76.49493380797503 53.154395510966424,76.57502729362022 52.95468457744573,76.6471113597072 52.78251997960615,76.72720468763873 50.96446182622458,77.19174435260356 50.68899846964632,77.23179074469226 50.351555857865606,77.25581857000361 50.282690018677386,77.24780929572444 50.28957660263404,77.24780929572444 50.00034007822978,77.28785565876024 49.759309641231084,77.27183711605903 48.91225981974276,77.14368865469442 48.836507396714296,77.14368865469442 48.685002550599165,77.11165150615125 46.94958340417361,76.8793817820042 46.33667743578553,76.77526064455742 45.847729977889685,76.71118602869683 45.413875191268744,76.67113936681562 45.13841183471959,76.61507400530536 44.86294847817044,76.59104598077101 44.573711953737075,76.5269712121808 44.29136201326037,76.49493380797503 44.26381567760836,76.51095251173683 44.25004250978236,76.62308334516274 44.19494983844925,76.69516736642254 44.11919741539168,76.77526064455742 44.05721816018922,76.78326996778924 44.00212548885611,76.81530725248012 43.9608059853781,76.8793817820042 43.89194014624809,77.31188346665294 43.843734058813425,77.5121149083352 43.829960891016526,77.67229968814354 43.76798163575586,77.98465905376361 43.719775548408506,78.35308129816258 43.64402312532184,78.64941965500475 43.55449753443827,79.15399316150433 43.49940486313426,79.49037366901757 43.451198775699595,79.9709147114554 43.33412684916402,80.62764930412231 43.24460125830956,80.98805006274779 43.10686958002043,81.27636945959966 42.94159156605019,81.52464363396575 42.72122088080505,81.78092581615783 41.31635776229086,83.1183846653148 40.48308110865764,83.88721280975733 40.26959700731095,84.09543578288867 40.12497874512337,84.20755561299302 39.93904097942868,84.2716240143418 39.82885563682066,84.28764110636257 38.823414385318756,84.26361546706903 38.58238394829095,84.24759837004967 38.34824009521981,84.25560691898136 37.54250977723859,84.24759837004967 37.156861078052316,84.20755561299302 36.80564529841649,84.23158126971248 36.20651249788352,84.22357271830697 35.95170889305882,84.23958982028853 35.8415235504217,84.24759837004967 35.600493113393895,84.30365819508006 35.53851385816233,84.33569236256153 35.442101683380315,84.42378625467973 35.39389559600386,84.47984595192975 35.35257609252585,84.56793967975682 35.338802924670745,84.70408433439297 35.331916340772295,85.5129388088535 35.32502975684474,85.64908179912891 35.29748342122184,85.71314900570724 35.26305050161318,85.74518258906755 35.201071246381616,85.7772161591638 35.152865158976056,85.7852245496324 34.53995919061708,85.76920776789484 33.114436320378445,85.75319098284672 32.83208637984353,85.72115740278969 32.55662302329438,85.75319098284672 31.757779289240716,85.75319098284672 31.551181771821575,85.73717419448076 30.89695629995549,85.7291657990354 30.573286855971674,85.73717419448076 28.865414045227226,85.73717419448076 28.651929943880532,85.72115740278969 28.43155925863539,85.7291657990354 27.019809556222754,85.71314900570724 26.72368644789094,85.72115740278969 26.39313041997957,85.71314900570724 26.103893895604415,85.68111540906102 25.87663662643172,85.69713220904669 24.340928413555957,85.69713220904669 23.982826049992582,85.68111540906102 23.85886753955856,85.67310700780217 23.796888284297893,85.65709020286886 23.741795612993883,85.60903976806003 23.707362693414325,85.53696405986557 23.693589525617426,85.41683773019031 23.707362693414325,84.80819479082857 23.700476109515876,84.33569236256153 23.67981635776232,84.28764110636257 23.604063934704755,84.19954705910641 23.500765176024288,84.13547859800019 23.486992008140078,84.07941865099565 23.46633225644473,84.02335866335488 23.397466417285614,83.95929005625658 23.314827410300495,83.93526431488863 22.722581193665974,83.9112385660701 22.15788131271256,83.8711956347397 21.841098452627193,83.8711956347397 20.980275463371072,83.83115268270194 20.849430368980393,83.83115268270194 20.787451113777934,83.81513549607917 20.794337697676383,83.81513549607917 20.560193844605237,83.79110970991314 19.754463526624022,83.61492038318829 19.361928243510192,83.49479106651415 18.28762115284917,83.2144886015958 18.094796803285135,83.12639333125117 18.101683387212688,83.13440199632169 18.06725046763313,83.15842798662925 18.032817548024468,83.2144886015958 17.950178541068453,83.47877381020226 17.915745621488895,83.55886005864159 17.461231083143502,84.26361546706903 16.97228362521855,84.92031358713575 16.55908859038027,85.52895564368373 16.469562999496702,85.63306498918973 16.373150824714685,85.71314900570724 16.386923992511583,85.71314900570724 16.30428498555557,85.84929164335335 16.132120387686882,86.177634665386 15.891089950688183,86.51398460777273 15.236864478822099,87.5070092326423 14.803009692259366,88.0916064741541 14.63084509439068,88.29180999274104 14.555092671333114,88.46798866025347 14.527546335652005,88.47599677195103 14.5,88.47599677195103" stroke="#4DD2FF" stroke-linecap="round" stroke-linejoin="round" stroke-width="0.5"><title>2026-05-16 14.1km</title><desc>18523809104</desc></polyline><polyline fill="none" points="181.52104800424422,115.5 181.46692938529304,115.30080455187999 181.45790961553575,115.14354471115075 181.40379099661368,115.08064070653927 181.24143513981835,115.0177366629141 180.8806443469657,114.84999235579744 179.97866736489232,114.34675776915537 179.75317311938852,114.24191691585293 178.98649268463487,113.81206828392169 178.9143345260527,113.73867931096174 178.8782554467616,113.68625858346786 178.86923567691701,113.62335367468768 178.8872752166062,113.5604487268647 179.05865084318793,113.20398661871877 179.31120439816732,112.54347998786398 179.71709404009744,111.80957868420228 179.94258828560123,111.28536021444597 180.17710230100784,110.81356127400795 180.2402406897163,110.71920122238953 180.39357677666703,110.5619342745631 180.4476953955891,110.4780584693217 180.19514184060972,110.42563605579198 180.08690460276557,110.35224463129998 180.0237662139698,110.23691514261736 180.0237662139698,110.24739964699984 180.0508255234745,110.10061648681585 180.041805753659,109.99577124229108 179.97866736489232,109.9014104294838 179.89748943652376,109.81753407768701 179.69003473065095,109.6707502950594 179.50061956440913,109.57638917973236 178.84217636749963,109.49251255900163 177.95823892505723,109.30378990864847 177.6064679020492,109.25136688787461 177.52528997365152,109.21991306239943 177.44411204528296,109.16748999820993 177.30881549796322,109.06264378857304 177.08332125245943,108.66422720287665 176.9209653956641,108.44404894424952 176.15428496091045,107.6367245708825 174.88249741619802,106.11642095806747 174.7201415594318,105.95914686909964 174.39542984587024,105.66556791670155 174.16091583055095,105.49780813357211 173.87228319628048,105.31956305977656 173.41227493539918,105.1098625716113 172.952266674547,104.94210186873534 172.75383173846058,104.88967659212358 171.72557797891204,104.73240059964155 171.1843917896622,104.66949013430713 170.0569205620559,104.45978830121749 169.78632746747462,104.36542233475484 169.57887276160182,104.25008603423339 168.81219232681906,103.78873951970309 168.38826314522885,103.47418387394282 168.21688751867623,103.29593524135998 168.0815909713274,103.11768629526341 167.98237350332784,102.94992229492345 167.50432570278645,102.03770068289305 167.32393030638923,101.72313960255269 167.08941629104083,101.2617815853082 166.87294181535253,100.78993598622765 166.7105859585572,100.49634206027986 166.44901263379143,100.10837735361565 166.01606368235662,99.6470119853766 165.90782644454157,99.57361275587755 165.78154966700822,99.51069908826321 164.78035521690617,99.16467321825621 163.73406191772665,98.97593133667397 163.00346056226408,98.82913185239886 162.7599267771002,98.72427494771546 162.66972907888703,98.66136075281247 162.60659069014946,98.57747509888577 162.57953138067387,98.4935893754955 162.57051161082927,98.38873212361068 162.5073732221208,96.13427496466466 162.48031391264522,95.15907562990469 162.4893336824607,94.9074097619523 162.46227437301422,94.20483923906431 162.4983534522762,93.37642893137672 162.47129414280062,92.76822464697034 162.46227437301422,92.32779857580317 162.43521506353864,91.97126178266626 162.44423483335413,91.79299291559437 162.55247207119828,91.34207614594197 162.5254127617518,91.09040079719125 162.41717552387854,90.6919135498465 162.38109644461656,90.38780380663229 162.38109644461656,89.7690949596581 162.34501736532548,88.24852326516702 162.31795805584989,87.78710389268963 162.25481966711232,87.16837916305667 162.21874058785033,85.46948843854625 162.19168127837474,84.89269807210076 162.16462196889916,83.33010403363005 162.17364173871465,83.07840878011484 162.22776035766583,82.79525087243383 162.31795805584989,82.3233192672269 162.45325460319873,81.7674858902028 162.705808158149,81.15921190677182 162.91326286405092,80.7397104795673 162.9403221734974,80.62434728251537 161.91206841394887,80.08947983380494 159.26927585643716,78.64217728142103 158.39435818386846,78.10729936511052 158.25906163651962,77.9919331696874 158.02454762117122,77.89754254840955 157.8351324549585,77.77168824991531 156.24765296650003,76.58655260173691 155.8327435547253,76.30337654458708 155.228418976767,75.86287888190418 153.47858363154228,74.4889333880783 153.47858363154228,74.46795697649941 153.4064254729892,74.40502771580941 152.87425905355485,74.05891608294041 152.02640069040353,73.33522430081939 151.09736439885455,72.62201574552455 150.46598051139154,72.16052518013021 150.01499202038394,71.79342891035776 148.00358335033525,70.32503052313405 147.6878914065892,70.05232562101446 147.4263180817943,69.863529489332 146.3529654731392,69.04540885092138 145.4509884910367,68.40559195056994 145.11725700768875,68.14337074145442 144.51293242973043,67.7133264883596 144.3776358824107,67.59794845116267 144.26939864453743,67.41963668051903 143.81841015350074,67.17839084395382 143.61095544765703,67.04203424731531 143.0066308696114,66.58051824981521 142.82623547321418,66.42318276985316 141.63562585687032,65.57356695310591 140.25560107428464,64.52464870286349 139.97598820985877,64.30437448962766 139.99402774951886,64.30437448962766 139.99402774951886,64.28339596813021 139.61519741703523,64.01067479314224 138.50576572905993,63.024676723449375 138.00967838894576,62.52118464360683 137.17083979558083,61.55615115792898 137.0084839388437,61.33587048573827 137.0084839388437,61.34636005243374 136.90926647078595,61.272933062777156 136.70181176494225,61.07363096532208 136.21474419458536,60.48621197446482 135.11433227645466,59.25891486801265 134.68138332507806,58.79736338809744 134.32059253225452,58.34629968125955 134.05901920743054,57.94768356968416 133.74332726371358,57.39171637151594 133.52685278802528,56.9826064829831 133.10292360640597,56.09095099673141 133.00370613840641,55.83918802568223 132.8142909721646,55.18879745195591 132.67899442487396,54.276145567782805 132.68801419468946,54.30761645941675 132.71507350416505,54.30761645941675 132.6248758059519,54.18173283422948 132.25506524325465,53.74113891310117 132.11074892617762,53.59427384650917 131.59662204637425,53.11171569862927 131.38916734050144,52.964849718693586 130.91111954001826,52.650136186915915 130.67660552466987,52.45081711059902 130.48719035842805,52.24100713252119 130.06326117686694,51.716480284441786 129.19736327402643,50.71987178353447 129.00794810784282,50.57300233263959 128.44872237893287,50.0694483114421 127.75420010273228,49.3455850162718 127.58282447615056,49.18822274525155 127.15889529458946,48.7580979559134 126.89732196979458,48.45386224496178 126.56359048641752,48.1601165526954 126.3922148598067,47.95029767908272 125.90514728950802,47.57262261023425 125.54435649665538,47.205437164142495 125.13846685469616,46.7543217921484 121.33212399037438,42.92500566635863 121.23290652231663,42.86205679329578 120.8540761898912,42.66271843693539 120.51132493666955,42.410922057046264 118.77050936128944,41.22537234740594 117.13793102372438,40.0503005200153 116.74106115160976,39.78800583819975 116.37125058894162,39.50472681811516 115.46025383705273,38.92767450877727 114.11630813375814,37.972908005234785 113.83669526933227,37.74208398156043 113.49394401611062,37.40633900696412 112.54686818495975,36.27319149124378 112.39353209800902,36.05285577811446 112.2041169317381,35.86399621347664 112.14999831281602,35.8744884207772 111.87038544839015,36.010887016469496 111.62685166325537,36.21023847933975 111.48253534612013,36.28368365611095 110.69781537170638,36.54598742353119 110.51741997528006,36.58795596321579 110.41820250728051,36.57746382992627 110.32800480903825,36.52500314716599 110.24682688064058,36.45155814559985 109.90407562747714,35.94793384130753 109.7777988499729,35.80104294693592 109.67858138194424,35.727597419769154 109.51622552517802,35.69612074892211 109.43504759678035,35.643659609115275 109.19151381158736,35.328892198936956 108.98405910580186,35.14003128270997 108.57816946378443,34.646892783574 108.47895199578488,34.5" stroke="#4DD2FF" stroke-linecap="round" stroke-linejoin="round" stroke-width="0.5"><title>2026-01-16 12.9km</title><desc>17068148245</desc></polyline><polyline fill="none" points="18.080289769306546,184.5 18.22441941758734,184.6990967465681 18.873002835112857,185.45356506774988 19.080189204600174,185.73648923561996 19.161262131790863,185.79936116530007 19.24233505895245,185.8203184665108 19.350432295177598,185.92510490733548 19.764805034152232,186.50142838923057 19.881910373427672,186.62717125746713 20.01703191877459,186.65860695007723 20.19719397914014,186.64812838696525 21.088996178208617,186.33377098810888 21.341223062830977,186.22898497116694 21.35023116582306,186.24994218322536 21.656506668543443,186.5538212700194 21.881709244073136,186.82626381215232 22.548308867611922,187.69597931915632 23.15185176997329,188.2513359070217 23.395070551574463,188.43994688399835 24.84537513786927,189.45634442110895 25.178674949653214,189.70782264633453 25.32280459802132,189.78117034410388 25.791225955064874,190.11647342734796 28.908029600250302,192.20161450205342 30.04305058089085,193.0084163374122 30.34932608361123,193.29131935170153 30.547504350048257,193.39609804488282 30.709650204429636,193.50087662944134 30.98890139805735,193.81521173123474 32.250035820994526,195.03063159195153 32.322100645134924,195.1249307976468 33.88050246774219,196.67561622612266 34.22281038251822,197.04232889598643 34.77230466683977,197.55572439824755 35.38485567222233,198.18436840018694 35.583033938659355,198.35200614025962 35.87129323533736,198.69775810106512 37.222508688428206,200.01789107154764 38.08728657849133,200.89797013926727 38.5466998325428,201.3799149528495 38.92504015940358,201.7361335554815 39.41147772251861,202.22855132134282 39.64568840106949,202.41713621342933 39.816842358442955,202.60572075360687 40.150142170197796,203.0038425163657 40.456417672889074,203.43339318598737 40.762693175609456,203.77912776485755 40.942855236062314,203.9991400630097 41.33020366591518,204.4391632226616 41.474333314283285,204.6172672903631 41.58243055053754,204.84775444155093 41.6815196837706,205.14110096477816 41.834657435130794,205.79065095113037 41.834657435130794,205.9477995143243 41.852673641144065,206.0316119814961 42.38415171939414,206.74401514662895 42.96967841574224,207.72879949047638 43.320994433539454,208.27356968711683 43.789415790641215,208.713574241272 46.33870894549182,211.59450912306056 47.10439770226367,212.49543918105337 47.56381095631514,212.97732870737673 47.94215128320502,213.35445803894254 48.428588846320054,213.7944404812515 49.347415354452096,214.56964298308594 51.17606026766589,215.92099529596453 51.67150593383121,216.30858913811244 52.9866889748082,217.26185415918735 53.17585913828225,217.40850951868924 53.2839563745365,217.5237385804503 53.27494827151531,217.5237385804503 53.70733721653232,217.79609765910573 54.52707459137309,218.42461581014504 56.238614165369654,219.6816403928824 56.90521378890844,220.19492093809822 57.04033533419715,220.34157204393705 57.31958652782487,220.4986979928144 57.481732382206246,220.61392353344127 58.031226666498696,221.04339939197234 59.418474531703396,222.04899426740303 60.04003364010714,222.54131311252422 60.18416328844614,222.62511182618618 60.69762516062474,223.04410435306636 61.19307082679006,223.3688223674908 61.7515732140746,223.85066008048307 62.25602698326111,224.23822353168362 62.30106749833794,224.29059685712127 62.337099910422694,224.3639194671705 62.35511611646507,224.34297015540506 62.77849695843179,224.5524630774962 62.97667522486881,224.62578549772297 63.08477246115217,224.69910786476976 65.33679821633268,226.3540842954535 66.75107039060094,227.49579275755968 67.516759147431,228.0823535617892 67.50775104438071,228.07187929155043 67.53477535344427,228.07187929155043 68.48062617061078,228.59559147527762 69.35441216363688,229.0459817846422 70.05704419923131,229.45447358681122 70.71463571977802,229.8001192078882 71.5974298157962,230.29240032619418 71.9667620396358,230.5123549451746 72.05684306987678,230.57519903418142 72.1108916879748,230.6799390957167 72.11989979102509,230.8370489847439 71.93072962760925,231.25600749587466 71.72354325812194,231.82159873352794 71.64247033093125,232.09391931273422 71.57040550676174,232.3871868089991 71.51635688863462,232.80613890026143 71.48933257957106,233.4450374990265 71.57040550676174,237.3935507920978 71.56139740371145,238.1790456694871 71.60643791881739,240.3469798901715 71.57941360978293,240.6192775232921 71.58842171277502,240.7240071870765 71.64247033093125,240.89157442360738 71.66048653694452,241.0905601566119 71.65147843395243,241.81318926457607 71.66949463999481,242.89188688243303 71.69651894900016,243.16417766734958 71.70552705202135,243.58308513652446 71.7505675671564,243.96010037611995 71.77759187621996,244.3580593829829 71.80461618531263,246.0650763167214 71.84064859736827,246.8295592280483 71.84965670038946,247.93962002417538 71.86767290643184,248.20142504131218 71.90370531848748,248.3270912089647 72.13791599703836,248.55747877776594 72.20097271818668,248.72503304385464 72.23700513030053,248.77739369510527 72.37212667558924,248.86117068078602 72.696418384352,248.94494759711233 73.96656091025216,249.1648616725288 74.5160551945446,249.3009987178666 75.26372774527408,249.5837443038472 75.41686549663427,249.65704858607933 75.58801945400774,249.77224092234974 75.96635978089762,250.18064905810024 76.15552994431346,250.45292023306683 77.12840507054352,252.29596738895634 77.49773729444132,252.9871014204473 77.60583453066647,253.1546483537968 77.76798038501875,253.35360997691168 77.9481424454425,253.52115630359185 78.68680689315079,254.06567994998477 78.8939932626381,254.19133883700852 79.10117963209632,254.29605445703055 79.31737410463393,254.39029842244054 79.67769822545233,254.50548537210852 79.86686838889727,254.5578430332098 80.48842749730102,254.64161523457005 81.8126186413865,254.90340291707253 81.9657563927467,254.9557603722933 82.08286173199303,255.0395322443801 82.3260805135942,255.09188962924236 82.614339810214,255.11283257560717 82.74045325253974,255.15471845527645 83.10978547635023,255.3013188977784 83.44308528816327,255.45839056489058 83.73134458481218,255.62593340777676 84.01960388149018,255.84583296829805 84.28083886907552,256.09714616678684 84.53306575366878,256.3694014277935 85.28073830439826,257.2804040922492 85.63205432219547,257.7306667497105 86.36171066688257,258.50553268079966 86.46079980011564,258.6730704806905 86.60492944842554,259.05002951672213 86.72203478770098,259.1128558862838 87.16343183571007,259.29086372158054 87.64086129583302,259.44792919870815 87.86606387136271,259.48981328480295 88.19035558006726,259.5316973535446 88.86596330665634,259.66782045729633 89.08215777913574,259.7411174373847 89.2623198395595,259.8458273168435 89.48752241508919,260.07618867043493 89.60462775433552,260.24372387115 89.81181412382284,260.44267156186106 89.8478465359367,260.52643889364845 89.82983032986522,260.5892643469924 89.7037168875977,260.75679869862506 89.55958723925869,261.02904142878833 89.34339276675018,261.521170660184 89.31636845768662,261.6258786986655 89.32537656070781,261.75152820190124 89.34339276675018,261.84576522699354 89.38843328188523,261.92953139788733 89.478514312068,262.00282674056507 89.64066016644938,262.08659278148843 90.94683510446339,262.73577724905044 91.3792240494513,262.93472004297655 91.8116129944683,263.1755450073251 91.8836778186087,263.2278981846466 91.91070212767227,263.2802513348943 91.91971023069345,263.3640163190139 91.87466971561662,263.48966366521927 91.10898095884477,264.8613037196774 91.0098918256117,264.9974196582116 91.02790803165408,265.0078901074521 90.97385941352695,265.32200308092433 91.0098918256117,265.48952960164024 91.02790803165408,265.5" stroke="#4DD2FF" stroke-linecap="round" stroke-linejoin="round" stroke-width="0.5"><title>2026-01-16 12.5km</title><desc>17064450385</desc></polyline><polyline fill="none" points="130.42696267552674,194.97892286651768 130.56810589367524,194.31359870248707 129.86238980060443,187.3276600082172 128.9449588796124,185.83066483651055 126.54552416270599,184.5 125.98095128824934,184.5 124.28723266394809,185.2484992556274 123.93437461741269,185.7474983521388 123.72265978949144,186.41282997385133 123.5109449615702,188.99098453728948 123.93437461741269,191.1533010127605 124.14608944579959,195.22841927869013 125.2046635854058,196.55906543519814 126.75723899062723,196.72539604181657 129.36838853545487,196.06007339799544 131.55610842444003,197.7233789213933 132.402967736125,201.38263832998928 133.53211348550394,204.0439068955602 133.884971532505,205.87352365849074 134.87297406280413,208.2852845180896 135.79040498379618,209.86539957515197 135.29640371864662,210.8633652960998 134.44954440696165,211.6118387321476 134.0261147506535,212.44347502326127 130.99153554998338,215.4373581786058 130.56810589367524,216.51847976940917 130.07410462899134,221.92406478343764 130.77982072206214,224.5020995560917 130.07410462899134,228.16123075515497 129.43896014476195,228.82652545481687 128.9449588796124,229.8244664183003 127.32181186508387,231.32137542049168 126.89838220924139,231.07189079053933 125.4163784137927,233.64989470812725 124.8518055388704,235.9784069020534 124.99294875748456,237.5584647077485 126.12209450639784,239.63748316006968 129.01553048891947,242.1322978385142 129.72124658199027,242.46493918035412 131.48553681513295,244.21130385040306 132.89696900174022,246.4566239916603 134.44954440696165,247.6208614682546 135.1552604995668,248.45245858002454 136.7078359052539,249.36721435794607 137.4135519983247,250.94724448723719 141.71842016698793,255.3546796910814 143.62385361874476,258.0989189615357 144.75299936765805,258.9305046740337 147.0112908659503,261.0094649975654 147.15243408456445,261.50841463392135 151.3867306439206,265.25052652531303 152.0924467369914,265.3336843592115 153.22159248637035,265.1673686824506 154.7741678915918,262.58947106200503 156.1856000777334,261.6747311070212 158.30274835741147,260.09472315199673 159.92589537147433,258.0989189615357 161.61961399530992,256.7683799396036 163.59561905637383,256.1031095601502 164.44247836852446,255.5209975031321 165.50105250813067,255.3546796910814 166.06562538305297,255.02204395859735 166.48905503889546,253.77465867222054 164.86590802436695,251.19672263035318 164.44247836852446,250.11565008963225 162.53704491676763,247.20506257284433 162.46647330746055,246.0408244629507 161.33732755854726,243.7955031002639 160.70218307431787,241.467014720547 160.49046824639663,238.14059044444002 160.77275468362495,234.89731283707079 161.33732755854726,233.31724952993682 162.74875974468887,231.15505234285956 164.08962032198906,228.57704001048114 163.87790549360216,226.33166734554106 163.3839042284526,225.33372182160383 161.26675594877452,222.83885231090244 159.36132249701768,221.75773966085399 157.38531743641943,219.42918414302403 156.75017295219004,218.18174076877767 156.32674329634756,217.9322518495028 156.04445685911924,217.1837846036069 155.0564543288201,216.1858271351084 154.20959501666948,213.35827389830956 153.4333073142916,211.77816606260603 151.45730225322768,210.28121878381353 148.0698650055565,208.78426857327577 140.5187028083019,209.28325230244081 136.63726429548115,210.78020153590478 135.43754693726078,212.02765699080192 133.03811222035438,213.6909277632949 132.6146825645119,214.10674489074154 131.06210715929046,216.35215347033227 130.2152478476055,221.42508930683834 130.28581945644692,222.67252738779644 130.85039233136922,223.5041516434285 131.06210715929046,225.00107302394463 130.85039233136922,226.74747759581078 130.14467623783275,229.15917258756235 129.5801033633761,230.40659804525785 127.9569563488476,231.98666736949235 127.8158131306991,232.5687973497552 127.74524152092636,231.82034443633165 125.5575216319412,234.31518463004613 124.78123392956331,236.81001668062527 125.62809324171394,239.3048405877198 128.16867117676884,242.04913748044055 131.34439359651878,244.87658457976067 136.21383463963866,250.28196904162178 138.33098291931674,251.77883798041148 142.77699430659413,256.8515386962681 144.47071293042973,258.0989189615357 146.44671799149364,260.8431483798777 147.2935773031786,261.42525638389634 150.0458700666204,263.91999995167134 151.03387259691954,265.1673686824506 151.59844547184184,265.41684218426235 153.0804492677562,264.83473721990595 154.42130984459072,263.0052615890163 156.25617168750614,262.25683847774053 157.4558890457265,260.6768317259266 159.00846445094794,259.0136631956557 160.2787534184754,257.932601710374 160.9844695115462,256.93469744414324 162.8899029637687,256.01995072187856 164.37190675921738,255.77047415322158 165.57162411743775,255.27152077161008 165.99505377328023,254.68940808146726 166.06562538305297,253.77465867222054 165.0070512429811,252.19463438761886 163.52504744753242,248.03666013712063 162.04304365161806,246.1239843868534 161.33732755854726,244.29446397308493 160.2787534184754,239.38800124428235 160.2081818091683,238.22375122760423 160.9844695115462,234.64782937400742 161.9019004330039,233.23408821277553 162.39590169815347,231.48769846203504 163.2427610103041,229.40865784179186 163.17218940053135,227.662259350589 162.46647330746055,225.7495326147764 161.97247204231098,223.58731401932891 161.26675594877452,222.42303993413225 159.71418054355308,221.42508930683834 159.29075088817626,221.25876407558098 158.79674962256104,221.25876407558098 157.1030309991911,219.6786725735874 154.56245306320488,215.35419491596986 153.85673697013408,213.19194691156736 152.23358995560557,210.03172728570644 150.3281565043144,209.03376047831262 148.84615270840004,208.6179405908333 146.30557477287948,208.36844854970695 143.83556844620034,208.53477658622433 141.71842016698793,209.1169244288467 139.6012718868442,209.20008837000933 134.6612592348829,212.1108206155477 133.60268509481102,213.35827389830956 131.20325037790462,218.09857780468883 130.77982072206214,219.76183536549797 130.49753428483382,221.42508930683834 131.55610842444003,224.4189372799592 131.6266800337471,226.24850526824594 131.06210715929046,227.662259350589 130.28581945644692,228.49387817742536 129.36838853545487,230.40659804525785 127.67466991208494,231.9035059074522 125.76923645986244,234.31518463004613 125.13409197609872,236.06156792037655 125.2046635854058,238.05742965190439 126.33380933431908,240.13644674705574 127.32181186508387,241.30069385055685 128.73324405169114,242.21545818762388 130.07410462899134,243.37970212410437 131.9795380802825,245.79134463722585 137.2018371699378,250.28196904162178 137.69583843555301,251.27988199307583 139.4601286686957,253.1093856873922 140.0952731524594,254.10729494789848 141.64784855721518,255.27152077161008 144.5412845397368,258.1820775734377 145.59985867934301,258.9305046740337 146.79957603802904,260.6768317259266 150.3987281131558,264.66842143435497 151.3867306439206,265.1673686824506 152.0924467369914,265.08421083027497 155.69159881258383,263.0052615890163 157.03245938941836,261.7578893300961 157.59703226434067,260.8431483798777 158.44389157602564,260.1778815467842 159.00846445094794,259.0968217080226 160.9138979022391,257.1841736327042 162.53704491676763,256.60206239885883 163.3133326191455,256.01995072187856 165.0070512429811,255.6873152789194 165.783338945359,255.27152077161008 166.13619699236006,254.35677205910906 165.92448216397315,253.44202225236222 164.58362158713862,251.5293600273435 163.2427610103041,248.1198198440252 163.3133326191455,246.95558312733192 162.53704491676763,246.29030420730123 161.12561273016036,243.71234292321606 160.06703859055415,238.05742965190439 160.2787534184754,236.47737287759082 160.70218307431787,235.81208483770024 161.69018560508266,235.14679621823598 162.53704491676763,233.31724952993682 163.3839042284526,228.16123075515497 163.66619066568092,227.24644959770376 163.3133326191455,225.5832083246205 161.97247204231098,223.91996343206847 161.40789916785434,222.83885231090244 160.06703859055415,221.92406478343764 158.02046192018315,221.09243880829308 155.55045559396967,216.93429535848554 154.56245306320488,214.27307167852996 153.50387892359868,212.19398423098028 152.16301834676415,210.8633652960998 150.2575848950073,209.78223570610862 149.41072558285668,209.1169244288467 146.5878612101078,208.70110458659474 143.69442522805184,208.95059651922202 140.65984602691606,209.03376047831262 139.95412993384525,208.95059651922202 138.75441257515922,209.44958013988798 137.76641004439443,210.36438259860734 135.93154820241034,211.02969278988894 135.08468889072537,211.6118387321476 132.6146825645119,215.853174355987 131.48553681513295,217.43327376700472 130.85039233136922,220.7597881645197 130.63867750344798,223.91996343206847 130.77982072206214,227.662259350589 129.72124658199027,229.7413047212176 128.52152922330424,231.65402146737324 125.83980806916952,233.73305598000297 125.34580680401996,236.56053384201368 125.5575216319412,238.14059044444002 127.25124025577679,240.5522494877223 128.73324405169114,242.21545818762388 133.6732567041181,246.4566239916603 134.59068762511015,247.70402122003725 137.3429803890176,249.94933110126294 139.10727062216029,251.86199728009524 141.29499051114544,254.85572603798937 142.5652794786729,256.1031095601502 143.41213879035786,257.3504910466727 144.40014132065699,258.34839477029163 145.74100189842284,259.0968217080226 147.85815017763525,261.7578893300961 150.3281565043144,264.08631589997094 150.75158616015688,265.00105296925176 151.81016029976308,265.5 152.7275912212208,265.3336843592115 154.8447395004332,263.83684196381364 157.59703226434067,260.8431483798777 158.02046192018315,260.7599900573259 159.07903605978936,260.09472315199673 159.8553237626329,258.6810290552676 160.70218307431787,257.932601710374 162.81933135399595,256.5189036151278 164.23076354060322,255.3546796910814 166.27734021097422,254.35677205910906 166.48905503889546,253.77465867222054 165.28933767974377,252.52727135055466 164.44247836852446,251.44620069174562 162.46647330746055,247.0387429515249 161.61961399530992,244.62710437405622 161.54904238600284,243.46286233729916 160.9138979022391,242.381778858311 160.9138979022391,240.71857052051928 160.6316114650108,239.22167992207687 160.2787534184754,238.80587645759806 160.70218307431787,235.2299573274213 160.6316114650108,233.9825397413806 160.9138979022391,232.7351201197016 163.45447583822533,229.6581430148217 162.74875974468887,225.41688399837585 162.32533008838072,224.1694503967883 160.77275468362495,222.17355239967583 158.51446318533272,220.51030008721864 158.02046192018315,220.34397465665825 156.25617168750614,218.43122960650362 155.0564543288201,216.6848060322227 154.06845179805532,214.52256179210963 153.71559375151992,213.19194691156736 152.0924467369914,211.36234766809503 150.75158616015688,210.03172728570644 148.56386627117172,208.78426857327577 147.2935773031786,208.95059651922202 142.63585108797997,208.2852845180896 140.94213246461004,208.6179405908333 137.48412360763177,210.61387398804072 136.7078359052539,210.78020153590478 134.87297406280413,212.19398423098028 131.9795380802825,215.4373581786058 131.55610842444003,216.60164290544344 132.47353934589773,217.51643680327106 131.48553681513295,219.59550977230538 130.99153554998338,221.67457708599977 131.20325037790462,224.4189372799592 130.85039233136922,227.99490698985755 130.42696267552674,228.99284903908847 129.36838853545487,230.6560828924994 128.09809956792742,231.73718295642175 127.6040983023122,231.9035059074522 125.27523519517854,234.564668201725 124.78123392956331,235.9784069020534 125.13409197609872,238.63955500879092 125.91037967894226,239.80380439199507 129.65067497314885,242.71442009171005 133.03811222035438,246.1239843868534 134.23782957857475,247.70402122003725 137.97812487278134,251.03040387749206 139.31898544961587,253.35886312479852 141.29499051114544,254.6062490893528 144.40014132065699,258.4315533551853 145.3175722421147,259.0968217080226 146.51728960080072,260.9263066932908 148.49329466186464,262.58947106200503 150.96330098807812,264.91789509903174 152.02187512768432,265.08421083027497 152.8687344393693,264.3357897546375 153.99788018874824,262.9221035016235 157.1736026084982,260.42735667689703" stroke="#4DD2FF" stroke-linecap="round" stroke-linejoin="round" stroke-width="0.5"><title>2018-10-24 10.1km</title><desc>17059065905</desc></polyline></svg>