<?xml version="1.0" encoding="utf-8" ?>
<svg baseProfile="full" height="300mm" version="1.1" viewBox="0,0,200,300" width="200mm" xmlns="http://www.w3.org/2000/svg" xmlns:ev="http://www.w3.org/2001/xml-events" xmlns:xlink="http://www.w3.org/1999/xlink"><defs /><rect fill="#222222" height="300" width="200" x="0" y="0" /><text fill="#FFFFFF" style="font-size:12px; font-family:Arial; font-weight:bold;" x="10" y="20">Over 10km Runs</text><text fill="#FFFFFF" style="font-size:4px; font-family:Arial" x="10" y="280">Runner</text><text fill="#FFFFFF" style="font-size:9px; font-family:Arial" x="10" y="290">Weihang</text><text fill="#FFFFFF" style="font-size:4px; font-family:Arial" x="65" y="280">SPECIAL TRACKS</text><rect fill="yellow" height="2.6" width="2.6" x="65" y="283" /><text fill="#FFFFFF" style="font-size:3px; font-family:Arial" x="70" y="285.5">Over 20.0 km</text><rect fill="red" height="2.6" width="2.6" x="65" y="287" /><text fill="#FFFFFF" style="font-size:3px; font-family:Arial" x="70" y="289.5">Over 40.0 km</text><text fill="#FFFFFF" style="font-size:4px; font-family:Arial" x="120" y="280">STATISTICS</text><text fill="#FFFFFF" style="font-size:3px; font-family:Arial" x="120" y="285">Number: 3</text><text fill="#FFFFFF" style="font-size:3px; font-family:Arial" x="120" y="290">Weekly: 1.5</text><text fill="#FFFFFF" style="font-size:3px; font-family:Arial" x="141" y="285">Total: 35.5 km</text><text fill="#FFFFFF" style="font-size:3px; font-family:Arial" x="141" y="290">Avg: 11.8 km</text><text fill="#FFFFFF" style="font-size:3px; font-family:Arial" x="167" y="285">Min: 10.1 km</text><text fill="#FFFFFF" style="font-size:3px; font-family:Arial" x="167" y="290">Max: 12.9 km</text><polyline fill="none" points="91.52104800424422,115.5 91.46692938529304,115.30080455187999 91.45790961553575,115.14354471115075 91.40379099661368,115.08064070653927 91.24143513981835,115.0177366629141 90.88064434696571,114.84999235579744 89.97866736489232,114.34675776915537 89.75317311938852,114.24191691585293 88.98649268463487,113.81206828392169 88.9143345260527,113.73867931096174 88.87825544676161,113.68625858346786 88.86923567691701,113.62335367468768 88.88727521660621,113.5604487268647 89.05865084318793,113.20398661871877 89.31120439816732,112.54347998786398 89.71709404009744,111.80957868420228 89.94258828560123,111.28536021444597 90.17710230100784,110.81356127400795 90.2402406897163,110.71920122238953 90.39357677666703,110.5619342745631 90.44769539558911,110.4780584693217 90.19514184060972,110.42563605579198 90.08690460276557,110.35224463129998 90.0237662139698,110.23691514261736 90.0237662139698,110.24739964699984 90.05082552347449,110.10061648681585 90.04180575365899,109.99577124229108 89.97866736489232,109.9014104294838 89.89748943652376,109.81753407768701 89.69003473065095,109.6707502950594 89.50061956440913,109.57638917973236 88.84217636749963,109.49251255900163 87.95823892505723,109.30378990864847 87.60646790204919,109.25136688787461 87.52528997365152,109.21991306239943 87.44411204528296,109.16748999820993 87.30881549796322,109.06264378857304 87.08332125245943,108.66422720287665 86.9209653956641,108.44404894424952 86.15428496091045,107.6367245708825 84.88249741619802,106.11642095806747 84.7201415594318,105.95914686909964 84.39542984587024,105.66556791670155 84.16091583055095,105.49780813357211 83.87228319628048,105.31956305977656 83.41227493539918,105.1098625716113 82.95226667454699,104.94210186873534 82.75383173846058,104.88967659212358 81.72557797891204,104.73240059964155 81.18439178966219,104.66949013430713 80.0569205620559,104.45978830121749 79.78632746747462,104.36542233475484 79.57887276160182,104.25008603423339 78.81219232681906,103.78873951970309 78.38826314522885,103.47418387394282 78.21688751867623,103.29593524135998 78.08159097132739,103.11768629526341 77.98237350332784,102.94992229492345 77.50432570278645,102.03770068289305 77.32393030638923,101.72313960255269 77.08941629104083,101.2617815853082 76.87294181535253,100.78993598622765 76.7105859585572,100.49634206027986 76.44901263379143,100.10837735361565 76.01606368235662,99.6470119853766 75.90782644454157,99.57361275587755 75.78154966700822,99.51069908826321 74.78035521690617,99.16467321825621 73.73406191772665,98.97593133667397 73.00346056226408,98.82913185239886 72.75992677710019,98.72427494771546 72.66972907888703,98.66136075281247 72.60659069014946,98.57747509888577 72.57953138067387,98.4935893754955 72.57051161082927,98.38873212361068 72.5073732221208,96.13427496466466 72.48031391264522,95.15907562990469 72.48933368246071,94.9074097619523 72.46227437301422,94.20483923906431 72.4983534522762,93.37642893137672 72.47129414280062,92.76822464697034 72.46227437301422,92.32779857580317 72.43521506353864,91.97126178266626 72.44423483335413,91.79299291559437 72.55247207119828,91.34207614594197 72.5254127617518,91.09040079719125 72.41717552387854,90.6919135498465 72.38109644461656,90.38780380663229 72.38109644461656,89.7690949596581 72.34501736532548,88.24852326516702 72.31795805584989,87.78710389268963 72.25481966711232,87.16837916305667 72.21874058785033,85.46948843854625 72.19168127837474,84.89269807210076 72.16462196889916,83.33010403363005 72.17364173871465,83.07840878011484 72.22776035766583,82.79525087243383 72.31795805584989,82.3233192672269 72.45325460319873,81.7674858902028 72.70580815814901,81.15921190677182 72.91326286405092,80.7397104795673 72.9403221734974,80.62434728251537 71.91206841394887,80.08947983380494 69.26927585643716,78.64217728142103 68.39435818386846,78.10729936511052 68.25906163651962,77.9919331696874 68.02454762117122,77.89754254840955 67.83513245495851,77.77168824991531 66.24765296650003,76.58655260173691 65.83274355472531,76.30337654458708 65.22841897676699,75.86287888190418 63.47858363154228,74.4889333880783 63.47858363154228,74.46795697649941 63.40642547298921,74.40502771580941 62.87425905355485,74.05891608294041 62.026400690403534,73.33522430081939 61.09736439885455,72.62201574552455 60.465980511391535,72.16052518013021 60.01499202038394,71.79342891035776 58.00358335033525,70.32503052313405 57.68789140658919,70.05232562101446 57.42631808179431,69.863529489332 56.35296547313919,69.04540885092138 55.450988491036696,68.40559195056994 55.11725700768875,68.14337074145442 54.51293242973043,67.7133264883596 54.37763588241069,67.59794845116267 54.26939864453743,67.41963668051903 53.818410153500736,67.17839084395382 53.610955447657034,67.04203424731531 53.0066308696114,66.58051824981521 52.82623547321418,66.42318276985316 51.63562585687032,65.57356695310591 50.25560107428464,64.52464870286349 49.97598820985877,64.30437448962766 49.994027749518864,64.30437448962766 49.994027749518864,64.28339596813021 49.61519741703523,64.01067479314224 48.50576572905993,63.024676723449375 48.00967838894576,62.52118464360683 47.17083979558083,61.55615115792898 47.00848393884371,61.33587048573827 47.00848393884371,61.34636005243374 46.90926647078595,61.272933062777156 46.70181176494225,61.07363096532208 46.214744194585364,60.48621197446482 45.11433227645466,59.25891486801265 44.68138332507806,58.79736338809744 44.32059253225452,58.34629968125955 44.05901920743054,57.94768356968416 43.74332726371358,57.39171637151594 43.52685278802528,56.9826064829831 43.102923606405966,56.09095099673141 43.003706138406415,55.83918802568223 42.8142909721646,55.18879745195591 42.67899442487396,54.276145567782805 42.68801419468946,54.30761645941675 42.71507350416505,54.30761645941675 42.62487580595189,54.18173283422948 42.25506524325465,53.74113891310117 42.11074892617762,53.59427384650917 41.59662204637425,53.11171569862927 41.389167340501444,52.964849718693586 40.91111954001826,52.650136186915915 40.67660552466987,52.45081711059902 40.48719035842805,52.24100713252119 40.063261176866945,51.716480284441786 39.19736327402643,50.71987178353447 39.00794810784282,50.57300233263959 38.44872237893287,50.0694483114421 37.754200102732284,49.3455850162718 37.58282447615056,49.18822274525155 37.158895294589456,48.7580979559134 36.897321969794575,48.45386224496178 36.563590486417525,48.1601165526954 36.3922148598067,47.95029767908272 35.90514728950802,47.57262261023425 35.54435649665538,47.205437164142495 35.13846685469616,46.7543217921484 31.332123990374384,42.92500566635863 31.232906522316625,42.86205679329578 30.854076189891202,42.66271843693539 30.511324936669553,42.410922057046264 28.77050936128944,41.22537234740594 27.137931023724377,40.0503005200153 26.741061151609756,39.78800583819975 26.37125058894162,39.50472681811516 25.460253837052733,38.92767450877727 24.11630813375814,37.972908005234785 23.836695269332267,37.74208398156043 23.493944016110618,37.40633900696412 22.54686818495975,36.27319149124378 22.39353209800902,36.05285577811446 22.2041169317381,35.86399621347664 22.149998312816024,35.8744884207772 21.870385448390152,36.010887016469496 21.626851663255366,36.21023847933975 21.48253534612013,36.28368365611095 20.697815371706383,36.54598742353119 20.517419975280063,36.58795596321579 20.418202507280512,36.57746382992627 20.328004809038248,36.52500314716599 20.246826880640583,36.45155814559985 19.90407562747714,35.94793384130753 19.777798849972896,35.80104294693592 19.67858138194424,35.727597419769154 19.516225525178015,35.69612074892211 19.43504759678035,35.643659609115275 19.191513811587356,35.328892198936956 18.98405910580186,35.14003128270997 18.578169463784434,34.646892783574 18.478951995784882,34.5" stroke="#4DD2FF" stroke-linecap="round" stroke-linejoin="round" stroke-width="0.5"><title>2026-01-16 12.9km</title><desc>17068148245</desc></polyline><polyline fill="none" points="108.08028976930655,34.5 108.22441941758734,34.6990967465681 108.87300283511286,35.45356506774988 109.08018920460017,35.736489235619956 109.16126213179086,35.79936116530007 109.24233505895245,35.8203184665108 109.3504322951776,35.92510490733548 109.76480503415223,36.50142838923057 109.88191037342767,36.627171257467126 110.01703191877459,36.65860695007723 110.19719397914014,36.648128386965254 111.08899617820862,36.33377098810888 111.34122306283098,36.22898497116694 111.35023116582306,36.24994218322536 111.65650666854344,36.5538212700194 111.88170924407314,36.82626381215232 112.54830886761192,37.69597931915632 113.15185176997329,38.25133590702171 113.39507055157446,38.439946883998346 114.84537513786927,39.45634442110895 115.17867494965321,39.707822646334535 115.32280459802132,39.781170344103884 115.79122595506487,40.116473427347955 118.9080296002503,42.20161450205342 120.04305058089085,43.0084163374122 120.34932608361123,43.29131935170153 120.54750435004826,43.39609804488282 120.70965020442964,43.500876629441336 120.98890139805735,43.81521173123474 122.25003582099453,45.03063159195153 122.32210064513492,45.12493079764681 123.88050246774219,46.675616226122656 124.22281038251822,47.04232889598643 124.77230466683977,47.55572439824755 125.38485567222233,48.18436840018694 125.58303393865936,48.35200614025962 125.87129323533736,48.69775810106512 127.2225086884282,50.01789107154764 128.08728657849133,50.89797013926727 128.5466998325428,51.379914952849504 128.92504015940358,51.7361335554815 129.4114777225186,52.22855132134282 129.6456884010695,52.41713621342933 129.81684235844295,52.605720753606874 130.1501421701978,53.003842516365694 130.45641767288907,53.43339318598737 130.76269317560946,53.77912776485755 130.94285523606231,53.99914006300969 131.33020366591518,54.43916322266159 131.47433331428329,54.61726729036309 131.58243055053754,54.84775444155093 131.6815196837706,55.14110096477816 131.8346574351308,55.790650951130374 131.8346574351308,55.94779951432429 131.85267364114407,56.0316119814961 132.38415171939414,56.74401514662895 132.96967841574224,57.728799490476376 133.32099443353945,58.27356968711683 133.78941579064121,58.713574241272 136.33870894549182,61.59450912306056 137.10439770226367,62.49543918105337 137.56381095631514,62.97732870737673 137.94215128320502,63.35445803894254 138.42858884632005,63.79444048125151 139.3474153544521,64.56964298308594 141.1760602676659,65.92099529596453 141.6715059338312,66.30858913811244 142.9866889748082,67.26185415918735 143.17585913828225,67.40850951868924 143.2839563745365,67.5237385804503 143.2749482715153,67.5237385804503 143.70733721653232,67.79609765910573 144.5270745913731,68.42461581014504 146.23861416536965,69.6816403928824 146.90521378890844,70.19492093809822 147.04033533419715,70.34157204393705 147.31958652782487,70.49869799281441 147.48173238220625,70.61392353344127 148.0312266664987,71.04339939197234 149.4184745317034,72.04899426740303 150.04003364010714,72.54131311252422 150.18416328844614,72.62511182618618 150.69762516062474,73.04410435306636 151.19307082679006,73.3688223674908 151.7515732140746,73.85066008048307 152.2560269832611,74.23822353168362 152.30106749833794,74.29059685712127 152.3370999104227,74.36391946717049 152.35511611646507,74.34297015540506 152.7784969584318,74.55246307749621 152.9766752248688,74.62578549772297 153.08477246115217,74.69910786476976 155.33679821633268,76.3540842954535 156.75107039060094,77.49579275755968 157.516759147431,78.0823535617892 157.5077510443807,78.07187929155043 157.53477535344427,78.07187929155043 158.48062617061078,78.59559147527762 159.35441216363688,79.04598178464221 160.0570441992313,79.45447358681122 160.71463571977802,79.8001192078882 161.5974298157962,80.29240032619418 161.9667620396358,80.5123549451746 162.05684306987678,80.57519903418142 162.1108916879748,80.67993909571669 162.1198997910251,80.83704898474389 161.93072962760925,81.25600749587466 161.72354325812194,81.82159873352794 161.64247033093125,82.09391931273422 161.57040550676174,82.3871868089991 161.51635688863462,82.80613890026143 161.48933257957106,83.44503749902651 161.57040550676174,87.39355079209781 161.56139740371145,88.1790456694871 161.6064379188174,90.3469798901715 161.57941360978293,90.61927752329211 161.58842171277502,90.7240071870765 161.64247033093125,90.89157442360738 161.66048653694452,91.0905601566119 161.65147843395243,91.81318926457607 161.6694946399948,92.89188688243303 161.69651894900016,93.16417766734958 161.70552705202135,93.58308513652446 161.7505675671564,93.96010037611995 161.77759187621996,94.3580593829829 161.80461618531263,96.06507631672139 161.84064859736827,96.82955922804831 161.84965670038946,97.93962002417538 161.86767290643184,98.20142504131218 161.90370531848748,98.3270912089647 162.13791599703836,98.55747877776594 162.20097271818668,98.72503304385464 162.23700513030053,98.77739369510527 162.37212667558924,98.86117068078602 162.696418384352,98.94494759711233 163.96656091025216,99.16486167252879 164.5160551945446,99.3009987178666 165.26372774527408,99.5837443038472 165.41686549663427,99.65704858607933 165.58801945400774,99.77224092234974 165.96635978089762,100.18064905810024 166.15552994431346,100.45292023306683 167.12840507054352,102.29596738895634 167.49773729444132,102.98710142044729 167.60583453066647,103.1546483537968 167.76798038501875,103.35360997691168 167.9481424454425,103.52115630359185 168.6868068931508,104.06567994998477 168.8939932626381,104.19133883700852 169.10117963209632,104.29605445703055 169.31737410463393,104.39029842244054 169.67769822545233,104.50548537210852 169.86686838889727,104.55784303320979 170.48842749730102,104.64161523457005 171.8126186413865,104.90340291707253 171.9657563927467,104.9557603722933 172.08286173199303,105.0395322443801 172.3260805135942,105.09188962924236 172.614339810214,105.11283257560717 172.74045325253974,105.15471845527645 173.10978547635023,105.3013188977784 173.44308528816327,105.45839056489058 173.73134458481218,105.62593340777676 174.01960388149018,105.84583296829805 174.28083886907552,106.09714616678684 174.53306575366878,106.36940142779349 175.28073830439826,107.28040409224923 175.63205432219547,107.73066674971051 176.36171066688257,108.50553268079966 176.46079980011564,108.67307048069051 176.60492944842554,109.05002951672213 176.72203478770098,109.1128558862838 177.16343183571007,109.29086372158054 177.64086129583302,109.44792919870815 177.8660638713627,109.48981328480295 178.19035558006726,109.53169735354459 178.86596330665634,109.66782045729633 179.08215777913574,109.74111743738467 179.2623198395595,109.8458273168435 179.4875224150892,110.07618867043493 179.60462775433552,110.24372387115 179.81181412382284,110.44267156186106 179.8478465359367,110.52643889364845 179.82983032986522,110.58926434699242 179.7037168875977,110.75679869862506 179.5595872392587,111.02904142878833 179.34339276675018,111.521170660184 179.31636845768662,111.62587869866547 179.3253765607078,111.75152820190124 179.34339276675018,111.84576522699354 179.38843328188523,111.92953139788733 179.478514312068,112.00282674056507 179.64066016644938,112.08659278148843 180.9468351044634,112.73577724905044 181.3792240494513,112.93472004297655 181.8116129944683,113.17554500732513 181.8836778186087,113.22789818464662 181.91070212767227,113.28025133489427 181.91971023069345,113.3640163190139 181.87466971561662,113.48966366521927 181.10898095884477,114.86130371967738 181.0098918256117,114.99741965821158 181.02790803165408,115.00789010745211 180.97385941352695,115.32200308092433 181.0098918256117,115.48952960164024 181.02790803165408,115.5" stroke="#4DD2FF" stroke-linecap="round" stroke-linejoin="round" stroke-width="0.5"><title>2026-01-16 12.5km</title><desc>17064450385</desc></polyline><polyline fill="none" points="40.42696267552674,194.97892286651768 40.56810589367524,194.31359870248707 39.86238980060443,187.3276600082172 38.944958879612386,185.83066483651055 36.54552416270599,184.5 35.980951288249344,184.5 34.28723266394809,185.2484992556274 33.934374617412686,185.7474983521388 33.722659789491445,186.41282997385133 33.5109449615702,188.99098453728948 33.934374617412686,191.1533010127605 34.14608944579959,195.22841927869013 35.2046635854058,196.55906543519814 36.75723899062723,196.72539604181657 39.36838853545487,196.06007339799544 41.556108424440026,197.7233789213933 42.40296773612499,201.38263832998928 43.53211348550394,204.0439068955602 43.884971532505006,205.87352365849074 44.87297406280413,208.2852845180896 45.79040498379618,209.86539957515197 45.296403718646616,210.8633652960998 44.44954440696165,211.6118387321476 44.026114750653505,212.44347502326127 40.99153554998338,215.4373581786058 40.56810589367524,216.51847976940917 40.074104628991336,221.92406478343764 40.77982072206214,224.5020995560917 40.074104628991336,228.16123075515497 39.43896014476195,228.82652545481687 38.944958879612386,229.8244664183003 37.32181186508387,231.32137542049168 36.89838220924139,231.07189079053933 35.4163784137927,233.64989470812725 34.851805538870394,235.9784069020534 34.992948757484555,237.5584647077485 36.12209450639784,239.63748316006968 39.01553048891947,242.1322978385142 39.72124658199027,242.46493918035412 41.485536815132946,244.21130385040306 42.89696900174022,246.4566239916603 44.44954440696165,247.6208614682546 45.15526049956679,248.45245858002454 46.70783590525389,249.36721435794607 47.41355199832469,250.94724448723719 51.718420166987926,255.3546796910814 53.62385361874476,258.0989189615357 54.75299936765805,258.9305046740337 57.011290865950286,261.0094649975654 57.15243408456445,261.50841463392135 61.3867306439206,265.25052652531303 62.092446736991405,265.3336843592115 63.221592486370355,265.1673686824506 64.77416789159179,262.58947106200503 66.1856000777334,261.6747311070212 68.30274835741147,260.09472315199673 69.92589537147433,258.0989189615357 71.61961399530992,256.7683799396036 73.59561905637383,256.1031095601502 74.44247836852446,255.5209975031321 75.50105250813067,255.3546796910814 76.06562538305297,255.02204395859735 76.48905503889546,253.77465867222054 74.86590802436695,251.19672263035318 74.44247836852446,250.11565008963225 72.53704491676763,247.20506257284433 72.46647330746055,246.0408244629507 71.33732755854726,243.7955031002639 70.70218307431787,241.467014720547 70.49046824639663,238.14059044444002 70.77275468362495,234.89731283707079 71.33732755854726,233.31724952993682 72.74875974468887,231.15505234285956 74.08962032198906,228.57704001048114 73.87790549360216,226.33166734554106 73.3839042284526,225.33372182160383 71.26675594877452,222.83885231090244 69.36132249701768,221.75773966085399 67.38531743641943,219.42918414302403 66.75017295219004,218.18174076877767 66.32674329634756,217.9322518495028 66.04445685911924,217.1837846036069 65.05645432882011,216.1858271351084 64.20959501666948,213.35827389830956 63.433307314291596,211.77816606260603 61.45730225322768,210.28121878381353 58.069865005556494,208.78426857327577 50.518702808301896,209.28325230244081 46.637264295481145,210.78020153590478 45.43754693726078,212.02765699080192 43.03811222035438,213.6909277632949 42.614682564511895,214.10674489074154 41.06210715929046,216.35215347033227 40.2152478476055,221.42508930683834 40.285819456446916,222.67252738779644 40.85039233136922,223.5041516434285 41.06210715929046,225.00107302394463 40.85039233136922,226.74747759581078 40.144676237832755,229.15917258756235 39.58010336337611,230.40659804525785 37.9569563488476,231.98666736949235 37.8158131306991,232.5687973497552 37.745241520926356,231.82034443633165 35.5575216319412,234.31518463004613 34.781233929563314,236.81001668062527 35.62809324171394,239.3048405877198 38.16867117676884,242.04913748044055 41.344393596518785,244.87658457976067 46.21383463963866,250.28196904162178 48.33098291931674,251.77883798041148 52.77699430659413,256.8515386962681 54.47071293042973,258.0989189615357 56.44671799149364,260.8431483798777 57.29357730317861,261.42525638389634 60.04587006662041,263.91999995167134 61.03387259691954,265.1673686824506 61.59844547184184,265.41684218426235 63.080449267756194,264.83473721990595 64.42130984459072,263.0052615890163 66.25617168750614,262.25683847774053 67.45588904572651,260.6768317259266 69.00846445094794,259.0136631956557 70.27875341847539,257.932601710374 70.9844695115462,256.93469744414324 72.88990296376869,256.01995072187856 74.37190675921738,255.77047415322158 75.57162411743775,255.27152077161008 75.99505377328023,254.68940808146726 76.06562538305297,253.77465867222054 75.0070512429811,252.19463438761886 73.52504744753242,248.03666013712063 72.04304365161806,246.1239843868534 71.33732755854726,244.29446397308493 70.27875341847539,239.38800124428235 70.20818180916831,238.22375122760423 70.9844695115462,234.64782937400742 71.9019004330039,233.23408821277553 72.39590169815347,231.48769846203504 73.2427610103041,229.40865784179186 73.17218940053135,227.662259350589 72.46647330746055,225.7495326147764 71.97247204231098,223.58731401932891 71.26675594877452,222.42303993413225 69.71418054355308,221.42508930683834 69.29075088817626,221.25876407558098 68.79674962256104,221.25876407558098 67.1030309991911,219.6786725735874 64.56245306320488,215.35419491596986 63.85673697013408,213.19194691156736 62.23358995560557,210.03172728570644 60.32815650431439,209.03376047831262 58.84615270840004,208.6179405908333 56.30557477287948,208.36844854970695 53.83556844620034,208.53477658622433 51.718420166987926,209.1169244288467 49.60127188684419,209.20008837000933 44.66125923488289,212.1108206155477 43.60268509481102,213.35827389830956 41.203250377904624,218.09857780468883 40.77982072206214,219.76183536549797 40.49753428483382,221.42508930683834 41.556108424440026,224.4189372799592 41.62668003374711,226.24850526824594 41.06210715929046,227.662259350589 40.285819456446916,228.49387817742536 39.36838853545487,230.40659804525785 37.67466991208494,231.9035059074522 35.76923645986244,234.31518463004613 35.134091976098716,236.06156792037655 35.2046635854058,238.05742965190439 36.333809334319085,240.13644674705574 37.32181186508387,241.30069385055685 38.733244051691145,242.21545818762388 40.074104628991336,243.37970212410437 41.97953808028251,245.79134463722585 47.20183716993779,250.28196904162178 47.695838435553014,251.27988199307583 49.46012866869569,253.1093856873922 50.09527315245941,254.10729494789848 51.647848557215184,255.27152077161008 54.54128453973681,258.1820775734377 55.599858679343015,258.9305046740337 56.799576038029045,260.6768317259266 60.39872811315581,264.66842143435497 61.3867306439206,265.1673686824506 62.092446736991405,265.08421083027497 65.69159881258383,263.0052615890163 67.03245938941836,261.7578893300961 67.59703226434067,260.8431483798777 68.44389157602564,260.1778815467842 69.00846445094794,259.0968217080226 70.91389790223911,257.1841736327042 72.53704491676763,256.60206239885883 73.31333261914551,256.01995072187856 75.0070512429811,255.6873152789194 75.78333894535899,255.27152077161008 76.13619699236006,254.35677205910906 75.92448216397315,253.44202225236222 74.58362158713862,251.5293600273435 73.2427610103041,248.1198198440252 73.31333261914551,246.95558312733192 72.53704491676763,246.29030420730123 71.12561273016036,243.71234292321606 70.06703859055415,238.05742965190439 70.27875341847539,236.47737287759082 70.70218307431787,235.81208483770024 71.69018560508266,235.14679621823598 72.53704491676763,233.31724952993682 73.3839042284526,228.16123075515497 73.66619066568092,227.24644959770376 73.31333261914551,225.5832083246205 71.97247204231098,223.91996343206847 71.40789916785434,222.83885231090244 70.06703859055415,221.92406478343764 68.02046192018315,221.09243880829308 65.55045559396967,216.93429535848554 64.56245306320488,214.27307167852996 63.50387892359868,212.19398423098028 62.16301834676415,210.8633652960998 60.25758489500731,209.78223570610862 59.410725582856685,209.1169244288467 56.5878612101078,208.70110458659474 53.69442522805184,208.95059651922202 50.65984602691606,209.03376047831262 49.95412993384525,208.95059651922202 48.75441257515922,209.44958013988798 47.76641004439443,210.36438259860734 45.93154820241034,211.02969278988894 45.084688890725374,211.6118387321476 42.614682564511895,215.853174355987 41.485536815132946,217.43327376700472 40.85039233136922,220.7597881645197 40.63867750344798,223.91996343206847 40.77982072206214,227.662259350589 39.72124658199027,229.7413047212176 38.52152922330424,231.65402146737324 35.83980806916952,233.73305598000297 35.34580680401996,236.56053384201368 35.5575216319412,238.14059044444002 37.25124025577679,240.5522494877223 38.733244051691145,242.21545818762388 43.6732567041181,246.4566239916603 44.59068762511015,247.70402122003725 47.34298038901761,249.94933110126294 49.107270622160286,251.86199728009524 51.29499051114544,254.85572603798937 52.56527947867289,256.1031095601502 53.41213879035786,257.3504910466727 54.400141320656985,258.34839477029163 55.74100189842284,259.0968217080226 57.85815017763525,261.7578893300961 60.32815650431439,264.08631589997094 60.751586160156876,265.00105296925176 61.81016029976308,265.5 62.72759122122079,265.3336843592115 64.8447395004332,263.83684196381364 67.59703226434067,260.8431483798777 68.02046192018315,260.7599900573259 69.07903605978936,260.09472315199673 69.8553237626329,258.6810290552676 70.70218307431787,257.932601710374 72.81933135399595,256.5189036151278 74.23076354060322,255.3546796910814 76.27734021097422,254.35677205910906 76.48905503889546,253.77465867222054 75.28933767974377,252.52727135055466 74.44247836852446,251.44620069174562 72.46647330746055,247.0387429515249 71.61961399530992,244.62710437405622 71.54904238600284,243.46286233729916 70.91389790223911,242.381778858311 70.91389790223911,240.71857052051928 70.63161146501079,239.22167992207687 70.27875341847539,238.80587645759806 70.70218307431787,235.2299573274213 70.63161146501079,233.9825397413806 70.91389790223911,232.7351201197016 73.45447583822533,229.6581430148217 72.74875974468887,225.41688399837585 72.32533008838072,224.1694503967883 70.77275468362495,222.17355239967583 68.51446318533272,220.51030008721864 68.02046192018315,220.34397465665825 66.25617168750614,218.43122960650362 65.05645432882011,216.6848060322227 64.06845179805532,214.52256179210963 63.71559375151992,213.19194691156736 62.092446736991405,211.36234766809503 60.751586160156876,210.03172728570644 58.56386627117172,208.78426857327577 57.29357730317861,208.95059651922202 52.63585108797997,208.2852845180896 50.94213246461004,208.6179405908333 47.48412360763177,210.61387398804072 46.70783590525389,210.78020153590478 44.87297406280413,212.19398423098028 41.97953808028251,215.4373581786058 41.556108424440026,216.60164290544344 42.473539345897734,217.51643680327106 41.485536815132946,219.59550977230538 40.99153554998338,221.67457708599977 41.203250377904624,224.4189372799592 40.85039233136922,227.99490698985755 40.42696267552674,228.99284903908847 39.36838853545487,230.6560828924994 38.09809956792742,231.73718295642175 37.604098302312195,231.9035059074522 35.27523519517854,234.564668201725 34.781233929563314,235.9784069020534 35.134091976098716,238.63955500879092 35.91037967894226,239.80380439199507 39.65067497314885,242.71442009171005 43.03811222035438,246.1239843868534 44.23782957857475,247.70402122003725 47.978124872781336,251.03040387749206 49.318985449615866,253.35886312479852 51.29499051114544,254.6062490893528 54.400141320656985,258.4315533551853 55.31757224211469,259.0968217080226 56.51728960080072,260.9263066932908 58.49329466186464,262.58947106200503 60.96330098807812,264.91789509903174 62.021875127684325,265.08421083027497 62.86873443936929,264.3357897546375 63.99788018874824,262.9221035016235 67.17360260849819,260.42735667689703" stroke="#4DD2FF" stroke-linecap="round" stroke-linejoin="round" stroke-width="0.5"><title>2018-10-24 10.1km</title><desc>17059065905</desc></polyline></svg>