<?xml version="1.0" encoding="utf-8" ?>
<svg baseProfile="full" height="200mm" version="1.1" viewBox="0,0,200,200" width="200mm" xmlns="http://www.w3.org/2000/svg" xmlns:ev="http://www.w3.org/2001/xml-events" xmlns:xlink="http://www.w3.org/1999/xlink"><defs /><rect fill="#1a1a1a" height="200" width="200" x="0" y="0" /><rect fill="#1a1a1a" height="200" width="180" x="10" y="0" /><text alignment-baseline="middle" fill="#e1ed5e" style="dominant-baseline: central; font-size:9.0px; font-family:Arial;" text-anchor="middle" x="100.0" y="100.0">2026</text><line stroke="#e1ed5e" stroke-width="0.3" x1="100.0" x2="100.0" y1="15.0" y2="10.0" /><path d="M 100.0 14.0 a86.0,86.0 0 0,1 42.46469731375804,11.215312516191453" fill="none" id="id97" stroke="none" /><text fill="#e1ed5e" style="font-size:6.75px; font-family:Arial;" text-anchor="middle"><textPath startOffset="22.20632615414155" xlink:href="#id97">January</textPath></text><path d="M 103.59715602781102 79.31037775812273 l 1.0089273697828252 -5.803008262335535 a26.890062761145366,26.890062761145366 0 0,0 0.4553446434148806,0.08321132309435535 l -1.1086671343006067 5.784781457890441" fill="red" stroke="none" /><path d="M 105.36241919743992 79.69619591428918 l 14.123953753511575 -53.477727004976785 a76.31142156236953,76.31142156236953 0 0,0 1.2671406559589278,0.34635740778916213 l -15.042392298694214 53.22668305636133" fill="red" stroke="none" /><path d="M 106.0581310904928 79.89281104454417 l 1.0426969396373116 -3.460754492662772 a24.6144209171615,24.6144209171615 0 0,0 0.4046313401361623,0.12572092702474316 l -1.102113652484192 3.4422934307555084" fill="red" stroke="none" /><line stroke="#e1ed5e" stroke-width="0.3" x1="143.23703022742887" x2="145.7803849466894" y1="26.81831364943548" y2="22.513508569990506" /><path d="M 143.74570117128098 25.957352633546492 a86.0,86.0 0 0,1 28.547481713284135,27.462654790039103" fill="none" id="id98" stroke="none" /><text fill="#e1ed5e" style="font-size:6.75px; font-family:Arial;" text-anchor="middle"><textPath startOffset="19.985693538727396" xlink:href="#id98">February</textPath></text><path d="M 114.16331599549186 84.49514656593476 l 2.144222901263129 -2.347321900085617 a24.17924707327424,24.17924707327424 0 0,0 0.3048797143228354,0.28335246747147436 l -2.1843104993808113 2.310064846539502" fill="red" stroke="none" /><path d="M 114.42810811169701 84.74124197986012 l 23.810866182092106 -25.181696900921114 a55.65653195504936,55.65653195504936 0 0,0 0.6904504369862502,0.6642127733376084 l -24.240799862690775 24.768101040821204" fill="red" stroke="none" /><line stroke="#e1ed5e" stroke-width="0.3" x1="172.23445277983987" x2="176.4835382374775" y1="55.19839476539836" y2="52.563006222186495" /><path d="M 173.08426987136738 54.67131705675599 a86.0,86.0 0 0,1 12.851231095245387,41.99856678651699" fill="none" id="id99" stroke="none" /><text fill="#e1ed5e" style="font-size:6.75px; font-family:Arial;" text-anchor="middle"><textPath startOffset="22.20632615414155" xlink:href="#id99">March</textPath></text><path d="M 117.84615892207809 88.93136811851018 l 23.342878576822745 -14.477834202267639 a48.468120857471135,48.468120857471135 0 0,0 0.43363781885108493,0.7127865568038625 l -23.588632193960052 14.073879872256695" fill="red" stroke="none" /><path d="M 119.196687751892 91.48605970444005 l 16.834168282058982 -7.466137155079427 a39.41554847858565,39.41554847858565 0 0,0 0.26973240442947377,0.6225795784254803 l -16.960191396331137 7.175258432067345" fill="red" stroke="none" /><path d="M 120.28053869075195 94.5502522615342 l 10.57400413062737 -2.8414262548012177 a31.94912172349903,31.94912172349903 0 0,0 0.138147497429329,0.5323386615060564 l -10.621347959927002 2.658991167746311" fill="red" stroke="none" /><path d="M 120.45610955862082 95.25157060432595 l 3.747370625111408 -0.8698684753213729 a24.847006338220123,24.847006338220123 0 0,0 0.09312375547685106,0.4174555360692606 l -3.761788767590297 0.8052347697021485" fill="red" stroke="none" /><line stroke="#e1ed5e" stroke-width="0.3" x1="184.98032266829074" x2="189.97916517819016" y1="98.17113171792111" y2="98.06355123074" /><path d="M 185.9800911702706 98.14961562048488 a86.0,86.0 0 0,1 -9.607161424134198,41.387399972396054" fill="none" id="id100" stroke="none" /><text fill="#e1ed5e" style="font-size:6.75px; font-family:Arial;" text-anchor="middle"><textPath startOffset="21.466115282336823" xlink:href="#id100">April</textPath></text><line stroke="#e1ed5e" stroke-width="0.3" x1="174.80103733775053" x2="179.2010983576182" y1="140.37084112569926" y2="142.7455964860345" /><path d="M 175.68104954172406 140.8457921977663 a86.0,86.0 0 0,1 -30.038265399797805,32.042727171017184" fill="none" id="id101" stroke="none" /><text fill="#e1ed5e" style="font-size:6.75px; font-family:Arial;" text-anchor="middle"><textPath startOffset="22.206326154141568" xlink:href="#id101">May</textPath></text><path d="M 117.75023020441432 111.22182372390056 l 11.647836421190265 7.363846303859167 a34.7803601433949,34.7803601433949 0 0,0 -0.32427739838435227,0.5032857235490718 l -11.519354159428863 -7.563253627329692" fill="red" stroke="none" /><path d="M 117.55443506779139 111.5257021239791 l 13.975638933344554 9.175974659165181 a37.71876175261965,37.71876175261965 0 0,0 -0.361016856191877,0.5396712165965756 l -13.815618971741957 -9.415182789967563" fill="red" stroke="none" /><path d="M 117.35343817320211 111.8261652097733 l 3.339753536958138 2.276002985332539 a25.04155208761028,25.04155208761028 0 0,0 -0.24581156336152846,0.3541098905149883 l -3.300081066434473 -2.333154138034547" fill="red" stroke="none" /><path d="M 115.80600337817218 113.82643327865902 l 2.255811267108238 1.9732897195879349 a23.997091388370382,23.997091388370382 0 0,0 -0.2746423118749949,0.30856354885471504 l -2.221510105584905 -2.0118274381835164" fill="red" stroke="none" /><path d="M 115.32070863581623 114.36230785411682 l 45.96212590744871 43.08692356235047 a84.0,84.0 0 0,0 -0.997973794484142,1.0463715336699715 l -45.21364556158561 -43.87170221260295" fill="red" stroke="none" /><line stroke="#e1ed5e" stroke-width="0.3" x1="143.8653032363475" x2="146.44561519142675" y1="172.8068346515853" y2="177.08958963109032" /><path d="M 144.38136562736335 173.6633856474863 a86.0,86.0 0 0,1 -40.68145358897372,12.25698825130547" fill="none" id="id102" stroke="none" /><text fill="#e1ed5e" style="font-size:6.75px; font-family:Arial;" text-anchor="middle"><textPath startOffset="21.466115282336833" xlink:href="#id102">June</textPath></text><path d="M 104.13013068566511 120.58985236759428 l 4.738914875729934 23.624811198477296 a45.09541488256869,45.09541488256869 0 0,0 -0.7623967960779536,0.1461151604880076 l -4.3315504650802765 -23.702883557313772" fill="red" stroke="none" /><line stroke="#e1ed5e" stroke-width="0.3" x1="102.19456741930631" x2="102.32365962044197" y1="184.97166512339345" y2="189.96999836594603" /><path d="M 102.22038585953345 185.97133177190398 a86.0,86.0 0 0,1 -42.740103519485714,-10.115201625700543" fill="none" id="id103" stroke="none" /><text fill="#e1ed5e" style="font-size:6.75px; font-family:Arial;" text-anchor="middle"><textPath startOffset="22.20632615414155" xlink:href="#id103">July</textPath></text><path d="M 99.09653310690486 120.98055641714683 l -0.16978989243003959 3.9429075314380335 a24.94656159321531,24.94656159321531 0 0,0 -0.42885744700993,-0.02216703142609668 l 0.23763540785345852 -3.939400693249735" fill="red" stroke="none" /><line stroke="#e1ed5e" stroke-width="0.3" x1="58.666819895761336" x2="56.23545636021788" y1="174.27360380694188" y2="178.64263932499728" /><path d="M 58.180547188652646 175.14741091055294 a86.0,86.0 0 0,1 -31.652253787137756,-30.449443065178592" fill="none" id="id104" stroke="none" /><text fill="#e1ed5e" style="font-size:6.75px; font-family:Arial;" text-anchor="middle"><textPath startOffset="22.20632615414155" xlink:href="#id104">August</textPath></text><line stroke="#e1ed5e" stroke-width="0.3" x1="26.63291911575756" x2="22.317208475507996" y1="142.92168965132927" y2="145.44649492493687" /><path d="M 25.769776987707644 143.4266507060508 a86.0,86.0 0 0,1 -11.730757126820373,-40.83630448921669" fill="none" id="id105" stroke="none" /><text fill="#e1ed5e" style="font-size:6.75px; font-family:Arial;" text-anchor="middle"><textPath startOffset="21.46611528233685" xlink:href="#id105">September</textPath></text><line stroke="#e1ed5e" stroke-width="0.3" x1="15.007084014347285" x2="10.007500721073583" y1="101.09737516637583" y2="101.16192664675087" /><path d="M 14.007167355692545 101.11028546245083 a86.0,86.0 0 0,1 10.666146001902534,-42.60595125391555" fill="none" id="id106" stroke="none" /><text fill="#e1ed5e" style="font-size:6.75px; font-family:Arial;" text-anchor="middle"><textPath startOffset="22.20632615414155" xlink:href="#id106">October</textPath></text><line stroke="#e1ed5e" stroke-width="0.3" x1="26.266209847984243" x2="21.928928074336255" y1="57.711370442889674" y2="55.22380399835377" /><path d="M 25.398753493254645 57.213857153982495 a86.0,86.0 0 0,1 29.58750427330803,-30.492523968695096" fill="none" id="id107" stroke="none" /><text fill="#e1ed5e" style="font-size:6.75px; font-family:Arial;" text-anchor="middle"><textPath startOffset="21.46611528233685" xlink:href="#id107">November</textPath></text><line stroke="#e1ed5e" stroke-width="0.3" x1="56.762969772571076" x2="54.21961505331055" y1="26.818313649435495" y2="22.513508569990535" /><path d="M 56.25429882871897 25.957352633546506 a86.0,86.0 0 0,1 42.265352541879196,-11.944610805530505" fill="none" id="id108" stroke="none" /><text fill="#e1ed5e" style="font-size:6.75px; font-family:Arial;" text-anchor="middle"><textPath startOffset="22.20632615414155" xlink:href="#id108">December</textPath></text></svg>