<?xml version="1.0" encoding="utf-8" ?>
<svg baseProfile="full" height="200mm" version="1.1" viewBox="0,0,200,200" width="200mm" xmlns="http://www.w3.org/2000/svg" xmlns:ev="http://www.w3.org/2001/xml-events" xmlns:xlink="http://www.w3.org/1999/xlink"><defs /><rect fill="#1a1a1a" height="200" width="200" x="0" y="0" /><rect fill="#1a1a1a" height="200" width="180" x="10" y="0" /><text alignment-baseline="middle" fill="#e1ed5e" style="dominant-baseline: central; font-size:9.0px; font-family:Arial;" text-anchor="middle" x="100.0" y="100.0">2025</text><line stroke="#e1ed5e" stroke-width="0.3" x1="100.0" x2="100.0" y1="15.0" y2="10.0" /><path d="M 100.0 14.0 a86.0,86.0 0 0,1 42.46469731375804,11.215312516191453" fill="none" id="id49" stroke="none" /><text fill="#e1ed5e" style="font-size:6.75px; font-family:Arial;" text-anchor="middle"><textPath startOffset="22.20632615414155" xlink:href="#id49">January</textPath></text><line stroke="#e1ed5e" stroke-width="0.3" x1="143.23703022742887" x2="145.7803849466894" y1="26.81831364943548" y2="22.513508569990506" /><path d="M 143.74570117128098 25.957352633546492 a86.0,86.0 0 0,1 28.547481713284135,27.462654790039103" fill="none" id="id50" stroke="none" /><text fill="#e1ed5e" style="font-size:6.75px; font-family:Arial;" text-anchor="middle"><textPath startOffset="19.985693538727396" xlink:href="#id50">February</textPath></text><line stroke="#e1ed5e" stroke-width="0.3" x1="172.23445277983987" x2="176.4835382374775" y1="55.19839476539836" y2="52.563006222186495" /><path d="M 173.08426987136738 54.67131705675599 a86.0,86.0 0 0,1 12.851231095245387,41.99856678651699" fill="none" id="id51" stroke="none" /><text fill="#e1ed5e" style="font-size:6.75px; font-family:Arial;" text-anchor="middle"><textPath startOffset="22.20632615414155" xlink:href="#id51">March</textPath></text><path d="M 120.91429891909075 98.10471618934814 l 3.4289088514676185 -0.3107326456186076 a24.442959582790092,24.442959582790092 0 0,0 0.03436623803148118,0.4193551504729654 l -3.4337495733185945 0.2516635779378734" fill="#ff2803" stroke="none" /><path d="M 120.98425023603335 99.18683210126433 l 3.440377401800775 -0.13331924806520248 a24.442959582790092,24.442959582790092 0 0,0 0.012673448206939856,0.42057004678791665 l -3.4421625444633603 0.07407905385228673" fill="#ff2803" stroke="none" /><line stroke="#e1ed5e" stroke-width="0.3" x1="184.98032266829074" x2="189.97916517819016" y1="98.17113171792111" y2="98.06355123074" /><path d="M 185.9800911702706 98.14961562048488 a86.0,86.0 0 0,1 -9.607161424134198,41.387399972396054" fill="none" id="id52" stroke="none" /><text fill="#e1ed5e" style="font-size:6.75px; font-family:Arial;" text-anchor="middle"><textPath startOffset="21.466115282336823" xlink:href="#id52">April</textPath></text><path d="M 120.89721153311464 102.0752229133903 l 3.4138469427630573 0.3390162073635001 a24.43063885267275,24.43063885267275 0 0,0 -0.04515910348189231,0.41811721249309075 l -3.407505537780113 -0.3977297417413822" fill="#ff2703" stroke="none" /><path d="M 120.81339534386255 102.79330883721812 l 3.3987976099332267 0.4561433270685382 a24.429269882659714,24.429269882659714 0 0,0 -0.05952127507227829,0.4162916592248759 l -3.390442283844347 -0.5145804582738234" fill="#ff2703" stroke="none" /><path d="M 120.5718875245553 104.21870165774334 l 3.368747161778547 0.6908330224414123 a24.43885267275098,24.43885267275098 0 0,0 -0.08805663237882934,0.41137127091150916 l -3.3563564906752745 -0.7487181127690905" fill="#ff2803" stroke="none" /><path d="M 120.49622156327973 104.57218783832717 l 3.3510119739703765 0.747525886474872 a24.433376792698827,24.433376792698827 0 0,0 -0.09510335197336982,0.40970275121530725 l -3.337648056066454 -0.805097295038744" fill="#ff2703" stroke="none" /><path d="M 120.32669344350535 105.2749913415812 l 3.3193198876128363 0.8613985209035805 a24.429269882659714,24.429269882659714 0 0,0 -0.10913127625039018,0.4061180767589532 l -3.304000535020669 -0.9184075308380819" fill="#ff2703" stroke="none" /><path d="M 120.13307415673323 105.97154293290107 l 3.386136331445353 1.004340336824301 a24.53194263363755,24.53194263363755 0 0,0 -0.12356298805020222,0.4038109942547025 l -3.368346570889018 -1.0624783036310605" fill="#ff2904" stroke="none" /><path d="M 119.9155931802556 106.66101706037122 l 3.25867919703009 1.0899056598130232 a24.436114732724903,24.436114732724903 0 0,0 -0.13685291184245962,0.39775862124224176 l -3.2394354542443993 -1.1458369841445653" fill="#ff2803" stroke="none" /><path d="M 119.79798401119884 107.00284435728193 l 3.232982395570606 1.1435544403514486 a24.429269882659714,24.429269882659714 0 0,0 -0.14363915008876982,0.39523325048406716 l -3.212818984476609 -1.199035487841647" fill="#ff2703" stroke="none" /><path d="M 119.54520255179757 107.68017299344265 l 3.1980742115392378 1.2566645510782954 a24.436114732724903,24.436114732724903 0 0,0 -0.15720262943321675,0.390164034159438 l -3.1759689678486285 -1.3115279530805468" fill="#ff2803" stroke="none" /><path d="M 119.41010516605496 108.01547362559984 l 6.67126328716324 2.754922473125254 a28.217710972294654,28.217710972294654 0 0,0 -0.18925890016412955,0.44735213381268096 l -6.622853405806802 -2.8693491326040985" fill="#ff5c08" stroke="none" /><path d="M 119.26925614724726 108.34839909993367 l 2.306928158622021 0.9994758913308135 a23.51413396349413,23.51413396349413 0 0,0 -0.16410504605586831,0.37001355638906797 l -2.28938202783488 -1.039037784212569" fill="#ff1a02" stroke="none" /><path d="M 119.12269723197855 108.67885076344098 l 4.565276009521447 2.0719540083653025 a26.013455739895697,26.013455739895697 0 0,0 -0.18856706034884338,0.40615667227819613 l -4.528934332332772 -2.150230747922329" fill="#ff3e05" stroke="none" /><path d="M 118.97047184881838 109.00673069616215 l 3.462417372993016 1.6438737573205784 a24.83283902542373,24.83283902542373 0 0,0 -0.18665632234162705,0.3845673098002049 l -3.4336077940366745 -1.7032300230860586" fill="#ff2d04" stroke="none" /><path d="M 118.81262510543309 109.33194174019688 l 2.062932683176925 1.023311074635477 a23.302793262711866,23.302793262711866 0 0,0 -0.181341593937521,0.35780416872020343 l -2.0450124194531347 -1.0586694550583746" fill="#ff1702" stroke="none" /><path d="M 118.64920377521936 109.65438752849418 l 4.092556523026325 2.1186495215449557 a25.60843733702738,25.60843733702738 0 0,0 -0.20602291697003686,0.38971771714388426 l -4.055481097831396 -2.188782253774974" fill="#ff3805" stroke="none" /><line stroke="#e1ed5e" stroke-width="0.3" x1="174.80103733775053" x2="179.2010983576182" y1="140.37084112569926" y2="142.7455964860345" /><path d="M 175.68104954172406 140.8457921977663 a86.0,86.0 0 0,1 -30.038265399797805,32.042727171017184" fill="none" id="id53" stroke="none" /><text fill="#e1ed5e" style="font-size:6.75px; font-family:Arial;" text-anchor="middle"><textPath startOffset="22.206326154141568" xlink:href="#id53">May</textPath></text><path d="M 118.48025628344425 109.97397251340804 l 2.610380593611732 1.4088475771595077 a23.96630044654498,23.96630044654498 0 0,0 -0.1990613417166793,0.3613541564910472 l -2.585742842443543 -1.4535722520483598" fill="#ff2103" stroke="none" /><path d="M 118.30583269289576 110.29060199501025 l 8.867520658056868 4.984866151978339 a31.172601101694916,31.172601101694916 0 0,0 -0.26696809918466496,0.4654813837365118 l -8.780400562719823 -5.136767381573165" fill="#ff840c" stroke="none" /><path d="M 118.12598468904814 110.60418214915192 l 3.3990621037988062 1.9885415497862762 a24.938009735984355,24.938009735984355 0 0,0 -0.21995220595848125,0.36865254881366344 l -3.3643290221420976 -2.046756192486044" fill="#ff2f04" stroke="none" /><path d="M 117.94076556474637 110.91462005526583 l 3.0409655524545953 1.850031621360338 a24.559506776401562,24.559506776401562 0 0,0 -0.2228311653913704,0.35927478959857073 l -3.008669747395262 -1.9021027423241823" fill="#ff2904" stroke="none" /><path d="M 117.75023020441432 111.22182372390056 l 0.5986856425072009 0.3784933867829588 a21.708294954367666,21.708294954367666 0 0,0 -0.20239897983055744,0.3141277113888782 l -0.5920817992995931 -0.38874269809328993" fill="#ff0000" stroke="none" /><path d="M 117.55443506779139 111.5257021239791 l 1.2899018914059124 0.8469099069317007 a22.543082395697525,22.543082395697525 0 0,0 -0.21576616933359263,0.32254114761543 l -1.2751326166615986 -0.8689879687529376" fill="#ff0c01" stroke="none" /><path d="M 117.35343817320211 111.8261652097733 l 5.0310066429278795 3.4285722020556446 a27.088196382007823,27.088196382007823 0 0,0 -0.26590172518099986,0.3830512670110089 l -4.971244010584743 -3.514664731253673" fill="#ff4d07" stroke="none" /><path d="M 116.93607887273984 112.41649034213515 l 4.19344919771922 3.0743787776947067 a26.1996943220339,26.1996943220339 0 0,0 -0.2697804149129714,0.36141495266124524 l -4.1399075161111565 -3.146106609865267" fill="#ff4006" stroke="none" /><path d="M 116.71984013943494 112.70617746262583 l 3.9728639421804175 3.019162495767597 a25.98988878422425,25.98988878422425 0 0,0 -0.2737517247776661,0.353861006378994 l -3.920305400184683 -3.0871014962598435" fill="#ff3d05" stroke="none" /><path d="M 116.498646956653 112.99209946851258 l 1.8968322858854723 1.4936881671604365 a23.414348164928292,23.414348164928292 0 0,0 -0.25207451052388513,0.31450171010640204 l -1.8708398633067334 -1.5261177108450887" fill="#ff1902" stroke="none" /><path d="M 116.27256486870786 113.27417163493432 l 4.007108544028796 3.268756155062956 a26.171236378748368,26.171236378748368 0 0,0 -0.28776396036117213,0.3466302279125442 l -3.950248583774081 -3.3372476400892706" fill="#ff4006" stroke="none" /><path d="M 116.0416608686014 113.55231037782055 l 2.2088890994941077 1.866112923825863 a23.891637684485005,23.891637684485005 0 0,0 -0.26810682756999743,0.31186881085013257 l -2.1764397623533314 -1.9038588338375235" fill="#ff2003" stroke="none" /><path d="M 115.80600337817218 113.82643327865902 l 0.7177646265479052 0.6278705932994593 a21.953628617992177,21.953628617992177 0 0,0 -0.25125525506863816,0.28228794260828627 l -0.7068505218309288 -0.640132705648612" fill="#ff0400" stroke="none" /><path d="M 115.56566222782051 114.09645910891815 l 3.273638877660942 2.9646484615241206 a25.416542992177312,25.416542992177312 0 0,0 -0.2964701667745235,0.32175981246467933 l -3.222122302890697 -3.020559528790135" fill="#ff3505" stroke="none" /><path d="M 115.32070863581623 114.36230785411682 l 3.5991846176436963 3.3740343695039865 a25.93337996088657,25.93337996088657 0 0,0 -0.3081051619448212,0.3230470305109403 l -3.540572904319911 -3.4354885165974336" fill="#ff3d05" stroke="none" /><path d="M 115.07121518719521 114.62390073753431 l 1.9063964239249203 1.8498144790311883 a23.65634352672751,23.65634352672751 0 0,0 -0.28608334359615456,0.2898009166623629 l -1.8742724552732302 -1.8823558896742159" fill="#ff1c02" stroke="none" /><path d="M 114.81725581225074 114.88116024355365 l 0.550619464764958 0.5529941975903863 a21.780374511082137,21.780374511082137 0 0,0 -0.26795051391481467,0.26224597397309307 l -0.5410189984743491 -0.5623902744860513" fill="#ff0100" stroke="none" /><path d="M 114.55890576462653 115.13401014063108 l 2.719438124523236 2.826861085491006 a24.922561320078227,24.922561320078227 0 0,0 -0.31172684638010856,0.29475719026110836 l -2.6703754437523197 -2.8732529124980357" fill="#ff2e04" stroke="none" /><path d="M 114.29624159901734 115.38237550388516 l 3.8697992194894706 4.163800975699819 a26.684415938722296,26.684415938722296 0 0,0 -0.33914679220278937,0.3098025535844177 l -3.7975528778198173 -4.22979629587082" fill="#ff4706" stroke="none" /><path d="M 114.0293411484842 115.62618273729858 l 1.8122609033537558 2.0185352785812944 a23.712706075619295,23.712706075619295 0 0,0 -0.30607191976547754,0.27007288282113245 l -1.7772466306816905 -2.049431303174716" fill="#ff1d03" stroke="none" /><path d="M 113.75828350139079 115.86535959552629 l 2.3064980202518877 2.6597373497912384 a24.520530625814864,24.520530625814864 0 0,0 -0.3212592622767376,0.27378411288308796 l -2.2603732813981026 -2.6990458528972736" fill="#ff2904" stroke="none" /><path d="M 113.48314897796784 116.09983520530334 l 0.47092578614182523 0.5623187552997009 a21.733466753585397,21.733466753585397 0 0,0 -0.2888790372003105,0.23772778083113327 l -0.46117662039682356 -0.5703416549880126" fill="#ff0100" stroke="none" /><path d="M 113.20401910651253 116.32954008644616 l 6.506349060139769 8.046465772043666 a31.34785917535854,31.34785917535854 0 0,0 -0.4225131742350891,0.33567001890863685 l -6.366878393187329 -8.157269704957429" fill="#ff870c" stroke="none" /><path d="M 112.92097659922987 116.55440617244103 l 3.49278066375901 4.474964360090328 a26.676691183181227,26.676691183181227 0 0,0 -0.3644179199669335,0.27942012145335715 l -3.4152340152985827 -4.534423823371057" fill="#ff4706" stroke="none" /><path d="M 112.63410532772338 116.77436683061366 l 1.0471176145407999 1.390263459539292 a22.740484928292048,22.740484928292048 0 0,0 -0.31470127143484694,0.23280847716266748 l -1.0230313726873888 -1.4080818854417285" fill="#ff0f01" stroke="none" /><path d="M 112.34349029814194 116.9893568818739 l 1.9460740769097684 2.6785411753562323 a24.310858973272488,24.310858973272488 0 0,0 -0.3406676872549437,0.24305734956831004 l -1.89967906180594 -2.7116427867687616" fill="#ff2603" stroke="none" /><path d="M 112.04921762599082 117.19931262002967 l 2.8459679419836132 4.062395904873825 a25.96010020208605,25.96010020208605 0 0,0 -0.36819224379482984,0.2532459826382099 l -2.7756188135659 -4.11078267687713" fill="#ff3d05" stroke="none" /><path d="M 111.7513745106137 117.40417183066458 l 1.9189826042429818 2.842076299596792 a24.429269882659714,24.429269882659714 0 0,0 -0.35053129080738854,0.23231302566006667 l -1.8697766146956292 -2.8746873463481766" fill="#ff2703" stroke="none" /><line stroke="#e1ed5e" stroke-width="0.3" x1="143.8653032363475" x2="146.44561519142675" y1="172.8068346515853" y2="177.08958963109032" /><path d="M 144.38136562736335 173.6633856474863 a86.0,86.0 0 0,1 -40.68145358897372,12.25698825130547" fill="none" id="id54" stroke="none" /><text fill="#e1ed5e" style="font-size:6.75px; font-family:Arial;" text-anchor="middle"><textPath startOffset="21.466115282336833" xlink:href="#id54">June</textPath></text><path d="M 110.21172684928248 118.3499491758327 l 1.674217276789144 3.0084825408878255 a24.442959582790092,24.442959582790092 0 0,0 -0.36941132295210416,0.20143250735523455 l -1.6221831419683912 -3.0368557000028304" fill="#ff2803" stroke="none" /><path d="M 109.2508944713604 118.85261126421891 l 1.5166883699785787 3.0908942196551865 a24.442959582790092,24.442959582790092 0 0,0 -0.37931670879112417,0.1820950712581718 l -1.463258993187222 -3.1165435674129185" fill="#ff2803" stroke="none" /><path d="M 108.59647513512805 119.15986991738527 l 2.8019801613846314 6.2450684215727765 a27.84485006518905,27.84485006518905 0 0,0 -0.43899305589708526,0.19244165488857853 l -2.6940664308297926 -6.29237462975581" fill="#ff5708" stroke="none" /><path d="M 107.93186726928326 119.44442032107085 l 1.29526254951464 3.175245952039275 a24.429269882659714,24.429269882659714 0 0,0 -0.3907274705366947,0.15547852422253589 l -1.240414002936079 -3.19707132066788" fill="#ff2703" stroke="none" /><path d="M 107.2578585660854 119.70592522655815 l 0.9675567645139929 2.6270284933710175 a23.79954367666232,23.79954367666232 0 0,0 -0.3856437704336415,0.1382781355293542 l -0.9221934334506166 -2.6432941699403316" fill="#ff1e03" stroke="none" /><path d="M 105.88484417918355 120.15858648285463 l 1.4212723299805403 4.868581105502775 a26.0717942601043,26.0717942601043 0 0,0 -0.4318840292704537,0.12205474064479653 l -1.3372571326054807 -4.89232463948609" fill="#ff3f05" stroke="none" /><path d="M 105.53697534728816 120.25689768951611 l 1.0376362980188185 3.7961686678251274 a24.93542699608866,24.93542699608866 0 0,0 -0.4150080975099609,0.1096074105022824 l -0.9721377576973601 -3.813467427630994" fill="#ff2f04" stroke="none" /><path d="M 105.18746579009965 120.34920634021253 l 1.2994162357537689 5.097303803649319 a26.260322102346805,26.260322102346805 0 0,0 -0.43898094360067136,0.10789083558375 l -1.2114820074098864 -5.118915897547099" fill="#ff4106" stroke="none" /><path d="M 104.83641907484287 120.43548508189849 l 0.550538332352553 2.3262082345850894 a23.390467988917862,23.390467988917862 0 0,0 -0.39260326963641956,0.08935522596274295 l -0.5104149133232715 -2.335340194125517" fill="#ff1902" stroke="none" /><path d="M 104.48393922423573 120.51570834832081 l 1.412746327647702 6.4638457790697785 a27.616430642112125,27.616430642112125 0 0,0 -0.46528233171536354,0.09750443646632857 l -1.3012725345029603 -6.487206196262648" fill="#ff5407" stroke="none" /><path d="M 104.13013068566511 120.58985236759428 l 0.9546202061087297 4.759047741303103 a25.85384745762712,25.85384745762712 0 0,0 -0.43709300644669674,0.08376991497563255 l -0.8725595850903285 -4.7747748546272035" fill="#ff3c05" stroke="none" /><path d="M 103.7750983002368 120.6578951692458 l 0.70504020095023 3.8580840558298077 a24.92197581160365,24.92197581160365 0 0,0 -0.42266606277387303,0.07348591277712375 l -0.638525166704307 -3.869648547127938" fill="#ff2e04" stroke="none" /><path d="M 103.41894727170886 120.7198165907248 l 0.5594235757489727 3.3902698593689213 a24.436114732724903,24.436114732724903 0 0,0 -0.41560494358461336,0.06490894484055815 l -0.5009827685558421 -3.3993971115565853" fill="#ff2803" stroke="none" /><path d="M 102.70371172650421 120.8252237178851 l 0.4415122473854656 3.400729166447338 a24.429269882659714,24.429269882659714 0 0,0 -0.4174759540839712,0.05055052411317554 l -0.38290887025011405 -3.407825219285864" fill="#ff2703" stroke="none" /><line stroke="#e1ed5e" stroke-width="0.3" x1="102.19456741930631" x2="102.32365962044197" y1="184.97166512339345" y2="189.96999836594603" /><path d="M 102.22038585953345 185.97133177190398 a86.0,86.0 0 0,1 -42.740103519485714,-10.115201625700543" fill="none" id="id55" stroke="none" /><text fill="#e1ed5e" style="font-size:6.75px; font-family:Arial;" text-anchor="middle"><textPath startOffset="22.20632615414155" xlink:href="#id55">July</textPath></text><path d="M 100.54218724476979 120.99299961872073 l 0.08836167613588573 3.421284162112246 a24.422425032594525,24.422425032594525 0 0,0 -0.42034518463590637,0.0072366235553971104 l -0.02945680160731139 -3.4222982629468026" fill="#ff2703" stroke="none" /><path d="M 99.09653310690486 120.98055641714683 l -0.147240367192819 3.4192562609430954 a24.422425032594525,24.422425032594525 0 0,0 -0.4198469921449386,-0.021701293830659597 l 0.20607542775124651 -3.416215160350234" fill="#ff2703" stroke="none" /><path d="M 98.37488393609728 120.93702456842531 l -0.26484942371295933 3.412161761477399 a24.422425032594525,24.422425032594525 0 0,0 -0.4188511976200063,-0.03614024376457919 l 0.3235449390745073 -3.4070972654341567" fill="#ff2703" stroke="none" /><path d="M 97.2962882734958 120.8252237178851 l -0.440630985414634 3.3939412838795784 a24.422425032594525,24.422425032594525 0 0,0 -0.4164272446692917,-0.057713021617466005 l 0.4989868212707568 -3.385853696769508" fill="#ff2703" stroke="none" /><path d="M 96.22490169976321 120.6578951692458 l -0.6176986136632567 3.3801379970539105 a24.436114732724903,24.436114732724903 0 0,0 -0.41312438591233663,-0.07917627180442267 l 0.6757906141472885 -3.3690045269010196" fill="#ff2803" stroke="none" /><path d="M 95.51606077576429 120.51570834832081 l -0.38281118133865577 1.7515051288766441 a22.79285097457627,22.79285097457627 0 0,0 -0.3825724145918757,-0.0870722360122626 l 0.41290374532339413 -1.744656159286695" fill="#ff1001" stroke="none" /><path d="M 95.16358092515715 120.4354850818985 l -0.4340890895042329 1.8341713105303832 a22.884838914602348,22.884838914602348 0 0,0 -0.3825546442929479,-0.09402262405895291 l 0.4655970185403913 -1.8264274281574002" fill="#ff1101" stroke="none" /><path d="M 94.81253420990036 120.34920634021253 l -1.6738850698127528 6.566256830151838 a27.776254126466753,27.776254126466753 0 0,0 -0.46228887048080664,-0.12209469237214136 l 1.7866643831050486 -6.536470788476115" fill="#ff5608" stroke="none" /><path d="M 94.46302465271185 120.25689768951611 l -0.516742862495133 1.890491945657358 a22.959842591264668,22.959842591264668 0 0,0 -0.3803339820345321,-0.10748618237642095 l 0.549208012634279 -1.8813169699424157" fill="#ff1202" stroke="none" /><path d="M 94.11515582081647 120.15858648285463 l -0.23882915045447195 0.8181113955562934 a21.852259126466752,21.852259126466752 0 0,0 -0.3601720832707941,-0.10851689415283927 l 0.2528762081655119 -0.8138791322977286" fill="#ff0200" stroke="none" /><path d="M 93.76903079525671 120.05430185196036 l -1.7101086176499105 5.503964678862971 a26.763514437418515,26.763514437418515 0 0,0 -0.4387669881501735,-0.14047933380088037 l 1.8045969508910245 -5.473712498402384" fill="#ff4806" stroke="none" /><path d="M 93.42475214034765 119.94407469862007 l -0.8526176621611641 2.586164157833609 a23.72308683833116,23.72308683833116 0 0,0 -0.3867205072818709,-0.13119659271239195 l 0.8970079023802607 -2.5711045782230944" fill="#ff1d03" stroke="none" /><path d="M 93.08242187328487 119.8279376855182 l -1.131885338856256 3.2443366095600172 a24.436114732724903,24.436114732724903 0 0,0 -0.3959586598930495,-0.14197668790330856 l 1.1875635593790324 -3.2243723806167512" fill="#ff2803" stroke="none" /><path d="M 91.7346041902142 119.30500536409082 l -0.8082199292489372 1.887712388926743 a23.053455019556715,23.053455019556715 0 0,0 -0.3634534445087095,-0.15932730916045795 l 0.8405940484153899 -1.8735205264718329" fill="#ff1402" stroke="none" /><path d="M 91.07499286063937 119.00905698771935 l -0.529449576063767 1.1276559230003018 a22.24576271186441,22.24576271186441 0 0,0 -0.3452196313556758,-0.16572640201317546 l 0.5487818754196849 -1.1183752444875639" fill="#ff0801" stroke="none" /><path d="M 90.7491055286396 118.85261126421891 l -0.6754238466703799 1.3764618393693064 a22.533246414602345,22.533246414602345 0 0,0 -0.3467395488619141,-0.1738624079943212 l 0.6990173032150545 -1.3646315904656832" fill="#ff0c01" stroke="none" /><path d="M 90.10565033884886 118.52300852407294 l -0.6482282535499929 1.2135347827049086 a22.375814863103,22.375814863103 0 0,0 -0.3381701525428338,-0.1843973303120357 l 0.6690212179614673 -1.202196800633107" fill="#ff0a01" stroke="none" /><line stroke="#e1ed5e" stroke-width="0.3" x1="58.666819895761336" x2="56.23545636021788" y1="174.27360380694188" y2="178.64263932499728" /><path d="M 58.180547188652646 175.14741091055294 a86.0,86.0 0 0,1 -31.652253787137756,-30.449443065178592" fill="none" id="id56" stroke="none" /><text fill="#e1ed5e" style="font-size:6.75px; font-family:Arial;" text-anchor="middle"><textPath startOffset="22.20632615414155" xlink:href="#id56">August</textPath></text><path d="M 89.7882731507175 118.34994917583269 l -1.1150353632691128 2.0036613343885126 a23.293024771838333,23.293024771838333 0 0,0 -0.34867576472201167,-0.1979871990876348 l 1.1493598949123316 -1.9841709695062448" fill="#ff1702" stroke="none" /><path d="M 88.54995079064634 117.60387380957326 l -0.4030656175391773 0.6196930806499058 a21.739243807040417,21.739243807040417 0 0,0 -0.3119325804438987,-0.20673190515448914 l 0.4136728967230378 -0.6126631544040982" fill="#ff0100" stroke="none" /><path d="M 86.24171649860922 115.8653595955263 l -2.739997137988842 3.1596266991090505 a25.18220338983051,25.18220338983051 0 0,0 -0.3250394666416766,-0.2868095376205181 l 2.793978957537106 -3.1119940197162435" fill="#ff3204" stroke="none" /><path d="M 85.70375840098266 115.38237550388516 l -2.3298959581188625 2.5069060469173996 a24.422425032594525,24.422425032594525 0 0,0 -0.30547123301615553,-0.28884211736979104 l 2.372703025525835 -2.4664292928016778" fill="#ff2703" stroke="none" /><path d="M 85.44109423537348 115.13401014063109 l -2.4106662739342477 2.505892161486504 a24.477183833116037,24.477183833116037 0 0,0 -0.30112769566628417,-0.2947168291880348 l 2.4534439219763264 -2.4640252293758995" fill="#ff2803" stroke="none" /><path d="M 84.9287848128048 114.62390073753433 l -2.4561954346797905 2.3832954265864292 a24.422425032594525,24.422425032594525 0 0,0 -0.2901540497652802,-0.3042253611582919 l 2.4968560358240284 -2.340662948845637" fill="#ff2703" stroke="none" /><path d="M 83.28015986056508 112.70617746262583 l -2.5777328507016675 1.9589380507894456 a24.23761408083442,24.23761408083442 0 0,0 -0.24957671272252405,-0.33434879193531303 l 2.6110708301192767 -1.9142763793448248" fill="#ff2503" stroke="none" /><line stroke="#e1ed5e" stroke-width="0.3" x1="26.63291911575756" x2="22.317208475507996" y1="142.92168965132927" y2="145.44649492493687" /><path d="M 25.769776987707644 143.4266507060508 a86.0,86.0 0 0,1 -11.730757126820373,-40.83630448921669" fill="none" id="id57" stroke="none" /><text fill="#e1ed5e" style="font-size:6.75px; font-family:Arial;" text-anchor="middle"><textPath startOffset="21.46611528233685" xlink:href="#id57">September</textPath></text><path d="M 81.87401531095188 110.60418214915194 l -4.405647809142601 2.577420904553003 a26.104197403846154,26.104197403846154 0 0,0 -0.2235613235774299,-0.3897980116972981 l 4.4493611288724075 -2.501203046997398" fill="#ff3f05" stroke="none" /><path d="M 81.69416730710424 110.29060199501025 l -2.3794458158139635 1.337602624803657 a23.729641583116035,23.729641583116035 0 0,0 -0.1970956803502713,-0.3577859101460716 l 2.4021179056157513 -1.2964461962597629" fill="#ff1d03" stroke="none" /><path d="M 81.51974371655577 109.97397251340807 l -2.632553467727455 1.4208144911233402 a23.991496544980443,23.991496544980443 0 0,0 -0.1930144364383694,-0.36511057435184907 l 2.6566204123907107 -1.3752889016853649" fill="#ff2103" stroke="none" /><path d="M 81.35079622478065 109.6543875284942 l -0.8320536780129245 0.4307405693491179 a21.93693690352021,21.93693690352021 0 0,0 -0.17071254331371466,-0.3368320434611445 l 0.8393448911129059 -0.41635431418528845" fill="#ff0400" stroke="none" /><path d="M 81.02952815118164 109.00673069616217 l -0.9641109761989136 0.457737055411118 a22.067254977183833,22.067254977183833 0 0,0 -0.1599617306759548,-0.34454333701238105 l 0.9718473237146951 -0.4410736511199098" fill="#ff0600" stroke="none" /><path d="M 80.87730276802145 108.67885076344099 l -2.718745170443117 1.2339045748548114 a23.985648305084744,23.985648305084744 0 0,0 -0.16739574274334454,-0.3774332087007811 l 2.7395819979177416 -1.1869230296613344" fill="#ff2103" stroke="none" /><path d="M 80.45479744820244 107.68017299344265 l -3.191703545779199 1.2541612352394949 a24.429269882659714,24.429269882659714 0 0,0 -0.15042115910390028,-0.392702180564687 l 3.2128189844766086 -1.19903548784165" fill="#ff2703" stroke="none" /><path d="M 79.76711848015287 105.62410040840567 l -4.861734699601709 1.3514083044853713 a26.046064674054758,26.046064674054758 0 0,0 -0.1163538776571247,-0.4329960634670866 l 4.884276653600609 -1.2675213078427459" fill="#ff3e05" stroke="none" /><path d="M 79.67330655649465 105.27499134158121 l -7.9369441789724275 2.0597207282658223 a29.199849533898302,29.199849533898302 0 0,0 -0.12206744825537999,-0.4875987773963418 l 7.971222941522866 -1.9227941114720888" fill="#ff6a09" stroke="none" /><path d="M 79.58551787078972 104.9243191809786 l -1.5095336433768956 0.36412510625371985 a22.552829325293352,22.552829325293352 0 0,0 -0.08778359551020276,-0.3781694319478094 l 1.5155778048176536 -0.33808701695733623" fill="#ff0d01" stroke="none" /><path d="M 79.50377843672027 104.57218783832718 l -1.5375773721235595 0.3429945631493978 a22.57536962190352,22.57536962190352 0 0,0 -0.0813422401710661,-0.38000386585309703 l 1.5432536510190662 -0.31647687788013695" fill="#ff0d01" stroke="none" /><path d="M 79.4281124754447 104.21870165774334 l -23.09457209327286 4.736031609081503 a44.575183044328554,44.575183044328554 0 0,0 -0.1476713558102797,-0.7529730618289907 l 23.172673382058804 -4.337794820184558" fill="#d3ff1c" stroke="none" /><path d="M 79.35854240842038 103.8639653848113 l -25.20037371443743 4.717368978662471 a46.638104559973925,46.638104559973925 0 0,0 -0.14092160270891674,-0.7903631863923107 l 25.277841759485533 -4.282887041536946" fill="#bbff1f" stroke="none" /><path d="M 79.29508885075956 103.50808413554451 l -2.86741427730953 0.4858330694470238 a23.908281005867014,23.908281005867014 0 0,0 -0.06525622492826533,-0.40635057492024584 l 2.875352256599086 -0.4364032648335643" fill="#ff2003" stroke="none" /><path d="M 79.07016306316243 101.71520430193888 l -6.460415768965184 0.5294323578670536 a27.48207301173403,27.48207301173403 0 0,0 -0.034579568762286045,-0.4718107421660711 l 6.468571896391806 -0.4181484792042218" fill="#ff5207" stroke="none" /><path d="M 79.0235259727143 100.99374915477108 l -43.51182552465652 2.0613492897533066 a64.5606258148631,64.5606258148631 0 0,0 -0.04303386015237075,-1.1105127138735276 l 43.5408615176601 -1.3120593288657825" fill="#35ff65" stroke="none" /><line stroke="#e1ed5e" stroke-width="0.3" x1="15.007084014347285" x2="10.007500721073583" y1="101.09737516637583" y2="101.16192664675087" /><path d="M 14.007167355692545 101.11028546245083 a86.0,86.0 0 0,1 10.666146001902534,-42.60595125391555" fill="none" id="id58" stroke="none" /><text fill="#e1ed5e" style="font-size:6.75px; font-family:Arial;" text-anchor="middle"><textPath startOffset="22.20632615414155" xlink:href="#id58">October</textPath></text><path d="M 79.00019446554 99.90962569577889 l -7.152802080674935 -0.030782642735029557 a28.152868318122557,28.152868318122557 0 0,0 0.006256630288408063,-0.4845829108856841 l 7.151212443268811 0.15390181168118564" fill="#ff5b08" stroke="none" /><path d="M 79.00486145842228 99.54816195383935 l -4.660263802742639 -0.10029390789941375 a25.66134289439374,25.66134289439374 0 0,0 0.01330516867202955,-0.4415337735670456 l 4.657846939614964 0.18049782889145377" fill="#ff3905" stroke="none" /><path d="M 79.03285615573316 98.82574320788736 l -2.036573945759949 -0.11405753717391402 a23.039765319426337,23.039765319426337 0 0,0 0.02558446241171618,-0.39578030955813637 l 2.0343088923438195 0.14909691098506217" fill="#ff1402" stroke="none" /><path d="M 79.12142395522702 97.74499172005258 l -17.68009796750985 -1.9095539476217103 a38.782920469361144,38.782920469361144 0 0,0 0.07739897649337198,-0.66310716383681 l 17.64460863801289 2.213604849783382" fill="#ffe615" stroke="none" /><path d="M 79.32604984820605 96.31383870115002 l -39.258941846268414 -6.999861710267275 a60.878096479791395,60.878096479791395 0 0,0 0.1928220246237584,-1.0300629657913554 l 39.132634097734794 7.674602753521204" fill="#30ff3a" stroke="none" /><path d="M 79.46518482838121 95.60439243477599 l -8.861830276148398 -1.8969310353183138 a30.0625814863103,30.0625814863103 0 0,0 0.11267113829434515,-0.5050826203835004 l 8.827864750852015 2.0491918252517736" fill="#ff750a" stroke="none" /><path d="M 79.81627453868168 94.20196356495316 l -31.44661268093271 -9.033446596976507 a53.71838331160365,53.71838331160365 0 0,0 0.2629491914821786,-0.886533954632712 l 31.286457592338824 9.573409938355757" fill="#6eff28" stroke="none" /><path d="M 79.91906864156998 93.8553929516997 l -6.964182192102199 -2.1309849737260516 a28.282920469361148,28.282920469361148 0 0,0 0.14645773828871633,-0.46431105356129576 l 6.926468970045279 2.250546193713762" fill="#ff5d08" stroke="none" /><path d="M 80.14247586403 93.16781622104843 l -7.883462971842067 -2.712385867914932 a29.33702737940026,29.33702737940026 0 0,0 0.16840420327547467,-0.4761013602136718 l 7.835605687756782 2.847684854555215" fill="#ff6c09" stroke="none" /><path d="M 80.52162464483688 92.15188598940014 l -20.54498782571965 -8.277867320176378 a43.14993481095176,43.14993481095176 0 0,0 0.2835121531516939,-0.6865471668390892 l 20.399453985681756 8.63028905746878" fill="#e3ff1b" stroke="none" /><path d="M 80.803312248108 91.48605970444005 l -37.68632670457808 -16.714296740598936 a62.226531942633635,62.226531942633635 0 0,0 0.4426904616969264,-0.9754097515048021 l 37.393033925917806 17.360528500945808" fill="#32ff4a" stroke="none" /><path d="M 81.26839172434947 90.50648371742162 l -23.445037737450463 -11.882367185495756 a47.28422425032595,47.28422425032595 0 0,0 0.374199620511712,-0.7228345614816175 l 23.237028683778636 12.284174469237708" fill="#b4ff20" stroke="none" /><line stroke="#e1ed5e" stroke-width="0.3" x1="26.266209847984243" x2="21.928928074336255" y1="57.711370442889674" y2="55.22380399835377" /><path d="M 25.398753493254645 57.213857153982495 a86.0,86.0 0 0,1 29.58750427330803,-30.492523968695096" fill="none" id="id59" stroke="none" /><text fill="#e1ed5e" style="font-size:6.75px; font-family:Arial;" text-anchor="middle"><textPath startOffset="21.46611528233685" xlink:href="#id59">November</textPath></text><path d="M 81.78341655067845 89.55222093294921 l -45.50583297118654 -26.099015244418915 a73.45893089960887,73.45893089960887 0 0,0 0.6385341504512623,-1.0914618470071817 l 45.04983914626495 26.87845650377999" fill="#40ffc6" stroke="none" /><path d="M 82.54541684631803 88.32363383020206 l -13.370355657512679 -8.944193459275784 a37.08617440677966,37.08617440677966 0 0,0 0.3595160843410693,-0.5275454918157779 l 13.21441510750287 9.173016974361976" fill="#ffd113" stroke="none" /><path d="M 82.7489923806493 88.02491185347247 l -2.7629109217512666 -1.9179228575530776 a24.363347268578877,24.363347268578877 0 0,0 0.24211062448990786,-0.34244830842373547 l 2.7294876774574806 1.9651976663085993" fill="#ff2603" stroke="none" /><path d="M 82.95767976084542 87.72973835380427 l -0.5561806759926187 -0.4004432683589795 a21.685340612777054,21.685340612777054 0 0,0 0.22071276425366534,-0.30105196240000875 l 0.54920529922532 0.4099576744304889" fill="#ff0000" stroke="none" /><path d="M 83.17141714833178 87.43820079747576 l -10.832436653718833 -8.08593898354254 a34.5175475994133,34.5175475994133 0 0,0 0.3595151497357735,-0.47307979516011767 l 10.691645563758952 8.271203554583684" fill="#ffb010" stroke="none" /><path d="M 83.39014120810768 87.1503855733568 l -0.6355436549670902 -0.49166528264604736 a21.803523794002608,21.803523794002608 0 0,0 0.23220329167623532,-0.29487459981535447 l 0.6269862826968838 0.5025322764144495" fill="#ff0200" stroke="none" /><path d="M 83.84228863543731 86.58626213691792 l -4.75411590928 -3.946751067583263 a27.178872232724903,27.178872232724903 0 0,0 0.3019305918706775,-0.35739058696384335 l 4.685474703922198 4.028000604176222" fill="#ff4e07" stroke="none" /><path d="M 84.07557802195018 86.31012108654704 l -20.26886174194411 -17.4246992037268 a47.729139504563236,47.729139504563236 0 0,0 0.5409487403102011,-0.618397922619582 l 19.965921138056064 17.771012682549326" fill="#afff20" stroke="none" /><path d="M 84.5562425177563 85.77008943001954 l -3.0253253738032813 -2.787541151420554 a25.11375488917862,25.11375488917862 0 0,0 0.29566385126805644,-0.31539358196689504 l 2.976894200564769 2.839204150265499" fill="#ff3104" stroke="none" /><path d="M 84.80347519578584 85.50635884689758 l -4.477724388203912 -4.270616558802016 a27.1877444589309,27.1877444589309 0 0,0 0.32591080331525873,-0.33587973118478126 l 4.403549321185535 4.34706048553692" fill="#ff4e07" stroke="none" /><path d="M 85.83668400450813 84.49514656593479 l -7.229384892092656 -7.914146179187134 a31.719035202086047,31.719035202086047 0 0,0 0.40628914063894017,-0.36477040200885336 l 7.092084763857745 8.037415589965265" fill="#ff8b0c" stroke="none" /><path d="M 86.10567301691215 84.25364557470407 l -5.860253949190247 -6.641389382768237 a29.85723598435463,29.85723598435463 0 0,0 0.3882950620282836,-0.3367256514678466 l 5.745065088515189 6.7412800276557645" fill="#ff730a" stroke="none" /><path d="M 86.65592168130627 83.78471172551755 l -30.624398775072535 -37.21376947217435 a69.19458930899609,69.19458930899609 0 0,0 0.9262078044039976,-0.7489289643927204 l 29.979287572104038 37.7354045338312" fill="#3bff99" stroke="none" /><path d="M 86.93701828274178 83.55741782278169 l -39.18894515177469 -49.32774653165494 a84.0,84.0 0 0,0 1.1398697793622974,-0.889686443107113 l 38.334042817252964 49.99501136398527" fill="#4dd2ff" stroke="none" /><path d="M 88.39885842347998 82.49532879139004 l -11.39316804760588 -17.190865173253524 a41.6235332464146,41.6235332464146 0 0,0 0.6006334798584583,-0.3906687230071276 l 11.095567541963135 17.384432820420187" fill="#f6ff19" stroke="none" /><path d="M 89.00827224532344 82.1063720568725 l -28.503971973991746 -46.40211992031367 a75.45762711864407,75.45762711864407 0 0,0 1.11259732138743,-0.6703274371995377 l 27.701012586386668 46.885893966971835" fill="#42ffdb" stroke="none" /><line stroke="#e1ed5e" stroke-width="0.3" x1="56.762969772571076" x2="54.21961505331055" y1="26.818313649435495" y2="22.513508569990535" /><path d="M 56.25429882871897 25.957352633546506 a86.0,86.0 0 0,1 42.265352541879196,-11.944610805530505" fill="none" id="id60" stroke="none" /><text fill="#e1ed5e" style="font-size:6.75px; font-family:Arial;" text-anchor="middle"><textPath startOffset="22.20632615414155" xlink:href="#id60">December</textPath></text><path d="M 89.63071344664047 81.73862282372117 l -0.38529943516394544 -0.6785518246726807 a21.78031290743155,21.78031290743155 0 0,0 0.32761315142527736,-0.18231636406893503 l 0.3735621946666225 0.6850835863018003" fill="#ff0100" stroke="none" /><path d="M 89.94658935756843 81.56283822128135 l -0.6586491327016774 -1.2079105337426492 a22.375814863103,22.375814863103 0 0,0 0.3397447336698077,-0.18147987062118026 l 0.6377593525035643 1.219069130865579" fill="#ff0a01" stroke="none" /><path d="M 90.26544431104013 81.39251694778311 l -0.9550525627043426 -1.8255711860225836 a23.060299869621904,23.060299869621904 0 0,0 0.35330522076709747,-0.180976656526131 l 0.9234868543484814 1.8417403678612199" fill="#ff1402" stroke="none" /><path d="M 90.91171255644093 81.06846463323043 l -13.096257753577126 -27.280416511241267 a51.26108213820078,51.26108213820078 0 0,0 0.7987496660942738,-0.3750236782949749 l 12.624729876183244 27.50180517217625" fill="#88ff25" stroke="none" /><path d="M 91.23893434514133 80.91482961587045 l -2.993840036686386 -6.521803334654961 a28.176140808344197,28.176140808344197 0 0,0 0.4425235748185691,-0.19854742876850076 l 2.8811343434010426 6.57237109393999" fill="#ff5c08" stroke="none" /><path d="M 93.25333710446033 80.11325718540243 l -3.1644223946159 -9.327582434878067 a30.84973924380704,30.84973924380704 0 0,0 0.5043450196067344,-0.16627462345620367 l 3.0033945527667565 9.380670782593505" fill="#ff800b" stroke="none" /><path d="M 93.94186890950719 79.89281104454417 l -12.564500693874095 -41.70210017065364 a64.55378096479791,64.55378096479791 0 0,0 1.066704451320213,-0.3114002803023961 l 11.84480602483046 41.91219877987473" fill="#35ff65" stroke="none" /><path d="M 94.28887869178378 79.79150937346287 l -2.004849298875123 -7.094049675612932 a28.371903520208605,28.371903520208605 0 0,0 0.4711115544875066,-0.12877258418350823 l 1.8824398551638937 7.127508800622737" fill="#ff5e08" stroke="none" /><path d="M 94.63758080256005 79.69619591428918 l -1.863213449957949 -7.054711589102913 a28.296610169491526,28.296610169491526 0 0,0 0.4720024296532635,-0.12032392889110807 l 1.741502131619686 7.085738514162885" fill="#ff5d08" stroke="none" /><path d="M 94.98787191387505 79.60689891045804 l -1.411498913432841 -5.743037594968792 a26.913950456323338,26.913950456323338 0 0,0 0.45084239337135473,-0.10669982837747566 l 1.3124328330989523 5.7664833354871385" fill="#ff4a06" stroke="none" /><path d="M 95.692805502759 79.44645832069477 l -2.5312489173812027 -12.078890367596907 a33.34126466753585,33.34126466753585 0 0,0 0.5627268642391065,-0.11287771510687969 l 2.32295564367496 12.120672038780997" fill="#ffa10e" stroke="none" /><path d="M 96.40284397218896 79.31037775812273 l -1.559392932525644 -8.969099602899862 a30.103650586701434,30.103650586701434 0 0,0 0.5112901406131619,-0.08436725410414617 l 1.4047735857735961 8.994613119943635" fill="#ff760a" stroke="none" /><path d="M 96.75951476605007 79.25152402106235 l -0.7118927795574465 -4.5581723630391044 a25.613428943937418,25.613428943937418 0 0,0 0.43619793847327126,-0.06428423737602809 l 0.6333258606555264 4.569751084576101" fill="#ff3805" stroke="none" /><path d="M 97.47563105711357 79.15227682838746 l -0.8762884368233521 -7.236905207877236 a28.289765319426337,28.289765319426337 0 0,0 0.48393455488733234,-0.05437568588853209 l 0.7515871784263017 7.250916847236366" fill="#ff5d08" stroke="none" /></svg>