<?xml version="1.0" encoding="utf-8" ?>
<svg baseProfile="full" height="200mm" version="1.1" viewBox="0,0,200,200" width="200mm" xmlns="http://www.w3.org/2000/svg" xmlns:ev="http://www.w3.org/2001/xml-events" xmlns:xlink="http://www.w3.org/1999/xlink"><defs /><rect fill="#1a1a1a" height="200" width="200" x="0" y="0" /><rect fill="#1a1a1a" height="200" width="180" x="10" y="0" /><text alignment-baseline="middle" fill="#e1ed5e" style="dominant-baseline: central; font-size:9.0px; font-family:Arial;" text-anchor="middle" x="100.0" y="100.0">2025</text><line stroke="#e1ed5e" stroke-width="0.3" x1="100.0" x2="100.0" y1="15.0" y2="10.0" /><path d="M 100.0 14.0 a86.0,86.0 0 0,1 42.46469731375804,11.215312516191453" fill="none" id="id109" stroke="none" /><text fill="#e1ed5e" style="font-size:6.75px; font-family:Arial;" text-anchor="middle"><textPath startOffset="22.20632615414155" xlink:href="#id109">January</textPath></text><line stroke="#e1ed5e" stroke-width="0.3" x1="143.23703022742887" x2="145.7803849466894" y1="26.81831364943548" y2="22.513508569990506" /><path d="M 143.74570117128098 25.957352633546492 a86.0,86.0 0 0,1 28.547481713284135,27.462654790039103" fill="none" id="id110" stroke="none" /><text fill="#e1ed5e" style="font-size:6.75px; font-family:Arial;" text-anchor="middle"><textPath startOffset="19.985693538727396" xlink:href="#id110">February</textPath></text><path d="M 113.34407831869373 83.78471172551755 l 8.722989635524534 -10.599892190171085 a34.727645924364396,34.727645924364396 0 0,0 0.458309777480477,0.38382125835629627 l -8.904156949964129 10.448169774420968" fill="#ffb210" stroke="none" /><line stroke="#e1ed5e" stroke-width="0.3" x1="172.23445277983987" x2="176.4835382374775" y1="55.19839476539836" y2="52.563006222186495" /><path d="M 173.08426987136738 54.67131705675599 a86.0,86.0 0 0,1 12.851231095245387,41.99856678651699" fill="none" id="id111" stroke="none" /><text fill="#e1ed5e" style="font-size:6.75px; font-family:Arial;" text-anchor="middle"><textPath startOffset="22.20632615414155" xlink:href="#id111">March</textPath></text><path d="M 120.91429891909075 98.10471618934814 l 3.4319479819914265 -0.3110080559922717 a24.446011166840165,24.446011166840165 0 0,0 0.034370528488350066,0.4194075049140945 l -3.4367929942992714 0.25188663387040844" fill="#ff2703" stroke="none" /><path d="M 120.98425023603335 99.18683210126433 l 3.5783945614172787 -0.13866759849051805 a24.58108033141563,24.58108033141563 0 0,0 0.012745062536132709,0.42294657772784117 l -3.5802513184090565 0.0770508733376778" fill="#ff2904" stroke="none" /><line stroke="#e1ed5e" stroke-width="0.3" x1="184.98032266829074" x2="189.97916517819016" y1="98.17113171792111" y2="98.06355123074" /><path d="M 185.9800911702706 98.14961562048488 a86.0,86.0 0 0,1 -9.607161424134198,41.387399972396054" fill="none" id="id112" stroke="none" /><text fill="#e1ed5e" style="font-size:6.75px; font-family:Arial;" text-anchor="middle"><textPath startOffset="21.466115282336823" xlink:href="#id112">April</textPath></text><path d="M 120.89721153311464 102.0752229133903 l 3.4198697910727276 0.339614313613049 a24.436691325956215,24.436691325956215 0 0,0 -0.04517029124775376,0.4182207973102227 l -3.4135171983239223 -0.39843143280806315" fill="#ff2703" stroke="none" /><path d="M 120.81339534386255 102.79330883721812 l 3.401194997551274 0.45646507390076296 a24.43168876430527,24.43168876430527 0 0,0 -0.05952716861393894,0.41633287864152374 l -3.3928337779207336 -0.514943424522696" fill="#ff2703" stroke="none" /><path d="M 120.5718875245553 104.21870165774334 l 3.374618490133141 0.6920370627917747 a24.44484618672967,24.44484618672967 0 0,0 -0.08807822785485868,0.4114721577860141 l -3.3622062235538395 -0.7500230399939578" fill="#ff2703" stroke="none" /><path d="M 120.49622156327973 104.57218783832717 l 3.3569223648802895 0.7488443449699966 a24.439432455627966,24.439432455627966 0 0,0 -0.09512692275721474,0.4098042935352064 l -3.3435348761925217 -0.806517295853768" fill="#ff2703" stroke="none" /><path d="M 120.32669344350535 105.2749913415812 l 3.295725764445613 0.8552755970859308 a24.404894221763918,24.404894221763918 0 0,0 -0.10902238445805328,0.4057128498909265 l -3.2805153036457826 -0.9118793801524055" fill="#ff2603" stroke="none" /><path d="M 120.13307415673323 105.97154293290107 l 3.34461723443177 0.9920256218224204 a24.48863573323587,24.48863573323587 0 0,0 -0.12334485897266693,0.4030981358084532 l -3.3270456029529702 -1.0494507301829308" fill="#ff2703" stroke="none" /><path d="M 119.9155931802556 106.66101706037122 l 3.2477228652536154 1.086241178809538 a24.424561827158723,24.424561827158723 0 0,0 -0.13678821052703916,0.3975705689336155 l -3.2285438237833457 -1.141984450832454" fill="#ff2703" stroke="none" /><path d="M 119.79798401119884 107.00284435728193 l 3.229512910237163 1.1423272312691386 a24.425589750785626,24.425589750785626 0 0,0 -0.14361751166006737,0.3951737108216134 l -3.209371137571869 -1.197748739096883" fill="#ff2703" stroke="none" /><path d="M 119.54520255179757 107.68017299344265 l 3.1790939130337375 1.2492063538248719 a24.415721683967327,24.415721683967327 0 0,0 -0.1570714366915753,0.38983842453372236 l -3.1571198620847696 -1.3037441462014077" fill="#ff2603" stroke="none" /><path d="M 119.41010516605496 108.01547362559984 l 3.148758979695815 1.300291489366111 a24.406675956050556,24.406675956050556 0 0,0 -0.16369792194128505,0.38693353188477975 l -3.125910076562221 -1.3542995469170542" fill="#ff2603" stroke="none" /><path d="M 119.12269723197855 108.67885076344098 l 6.939554145719231 3.149521956285448 a28.620820185156784,28.620820185156784 0 0,0 -0.20746739614494192,0.4468663141301854 l -6.884312132734458 -3.2685083376944646" fill="#ff6109" stroke="none" /><line stroke="#e1ed5e" stroke-width="0.3" x1="174.80103733775053" x2="179.2010983576182" y1="140.37084112569926" y2="142.7455964860345" /><path d="M 175.68104954172406 140.8457921977663 a86.0,86.0 0 0,1 -30.038265399797805,32.042727171017184" fill="none" id="id113" stroke="none" /><text fill="#e1ed5e" style="font-size:6.75px; font-family:Arial;" text-anchor="middle"><textPath startOffset="22.206326154141568" xlink:href="#id113">May</textPath></text><path d="M 118.48025628344425 109.97397251340804 l 2.4147000970666377 1.3032369263105108 a23.743939329663267,23.743939329663267 0 0,0 -0.19721443579263734,0.35800148576882135 l -2.3919092518224905 -1.3446089304771374" fill="#ff1d02" stroke="none" /><path d="M 118.30583269289576 110.29060199501025 l 3.658263344612006 2.0564883719792184 a25.196669527448826,25.196669527448826 0 0,0 -0.21578908181523035,0.3762464530606903 l -3.622322266644396 -2.1191546708982236" fill="#ff3104" stroke="none" /><path d="M 117.35343817320211 111.8261652097733 l 2.8381121917111614 1.9341402739935916 a24.434498422218816,24.434498422218816 0 0,0 -0.23985263517640004,0.3455256100264458 l -2.804398649372625 -1.982707146207057" fill="#ff2703" stroke="none" /><path d="M 116.27256486870786 113.27417163493432 l 2.671321088376036 2.1791017522573735 a24.44738173167604,24.44738173167604 0 0,0 -0.2688094397130243,0.323798286748007 l -2.6334156487694687 -2.224761296119151" fill="#ff2703" stroke="none" /><path d="M 115.56566222782051 114.09645910891815 l 2.564367460087256 2.322323362301418 a24.45964828695712,24.45964828695712 0 0,0 -0.285308509859592,0.3096460383375348 l -2.524012542231942 -2.366120655440288" fill="#ff2703" stroke="none" /><path d="M 114.0293411484842 115.62618273729858 l 3.5903939054567213 3.9990581647244063 a26.3743273626743,26.3743273626743 0 0,0 -0.34042681517132845,0.3003870836415998 l -3.5210247373788053 -4.060268390138295" fill="#ff4206" stroke="none" /><path d="M 113.20401910651253 116.32954008644616 l 2.1418618985117344 2.648861641992646 a24.406470371325174,24.406470371325174 0 0,0 -0.32895564608664574,0.26134226025475005 l -2.0959487597077375 -2.685337816252522" fill="#ff2603" stroke="none" /><path d="M 112.04921762599082 117.19931262002967 l 0.6020224677070297 0.8593398300019061 a22.049235910104,22.049235910104 0 0,0 -0.31272443405477957,0.21509471731651073 l -0.5871411490293669 -0.869575336683511" fill="#ff0400" stroke="none" /><path d="M 111.7513745106137 117.40417183066458 l 1.9132802134754263 2.833630871474788 a24.419079567815224,24.419079567815224 0 0,0 -0.35038507177450995,0.23221611965815492 l -1.8642204429609521 -2.8661450122242615" fill="#ff2603" stroke="none" /><path d="M 111.1453310114006 117.79835938074945 l 2.173070954794773 3.4702511548327073 a25.094493918934354,25.094493918934354 0 0,0 -0.3680774330573321,0.2261032223127386 l -2.1130143218051325 -3.507142843973824" fill="#ff3004" stroke="none" /><line stroke="#e1ed5e" stroke-width="0.3" x1="143.8653032363475" x2="146.44561519142675" y1="172.8068346515853" y2="177.08958963109032" /><path d="M 144.38136562736335 173.6633856474863 a86.0,86.0 0 0,1 -40.68145358897372,12.25698825130547" fill="none" id="id114" stroke="none" /><text fill="#e1ed5e" style="font-size:6.75px; font-family:Arial;" text-anchor="middle"><textPath startOffset="21.466115282336833" xlink:href="#id114">June</textPath></text><path d="M 110.21172684928248 118.3499491758327 l 1.67783387729977 3.0149813864345942 a24.450396974314963,24.450396974314963 0 0,0 -0.3695237257334944,0.2014937983138013 l -1.625687339697627 -3.043415836508166" fill="#ff2703" stroke="none" /><path d="M 109.2508944713604 118.85261126421891 l 1.5158591156753156 3.08920426317941 a24.441077133431012,24.441077133431012 0 0,0 -0.3792874961054454,0.18208104739379397 l -1.4624589515696373 -3.1148395870727636" fill="#ff2703" stroke="none" /><path d="M 108.59647513512805 119.15986991738527 l 2.808105761843435 6.258721192750693 a27.859814060037266,27.859814060037266 0 0,0 -0.4392289734836935,0.1925450742255688 l -2.6999561137019876 -6.306130820270716" fill="#ff5708" stroke="none" /><path d="M 107.93186726928326 119.44442032107085 l 1.2977809674706018 3.1814196783028867 a24.435937515296484,24.435937515296484 0 0,0 -0.390834114216475,0.1555209599435952 l -1.2428257772122606 -3.203287482652551" fill="#ff2703" stroke="none" /><path d="M 107.2578585660854 119.70592522655815 l 0.9398365882705791 2.5517650096111857 a23.719337690859312,23.719337690859312 0 0,0 -0.38434412623891895,0.13781212936025233 l -0.8957729014019253 -2.5675646800113983" fill="#ff1c02" stroke="none" /><path d="M 105.88484417918355 120.15858648285463 l 0.9673103518424458 3.313530280436722 a24.45183606739263,24.45183606739263 0 0,0 -0.40504912621245454,0.11447092899400432 l -0.9101300575253856 -3.3296900027692455" fill="#ff2703" stroke="none" /><path d="M 105.18746579009965 120.34920634021253 l 0.852663144034354 3.3447966615537137 a24.451767539150836,24.451767539150836 0 0,0 -0.408748222706737,0.10046036834646584 l -0.7949616365844059 -3.35897828821421" fill="#ff2703" stroke="none" /><path d="M 104.13013068566511 120.58985236759428 l 0.677750452090735 3.378774865176274 a24.446079695081956,24.446079695081956 0 0,0 -0.4132928565959604,0.07920855961190487 l -0.6194899809230703 -3.389940623136647" fill="#ff2703" stroke="none" /><path d="M 103.41894727170886 120.7198165907248 l 0.5603430581684219 3.3958421907257197 a24.44176241584895,24.44176241584895 0 0,0 -0.41570099834011875,0.06492394661790227 l -0.501806196219786 -3.4049844446907276" fill="#ff2703" stroke="none" /><path d="M 102.70371172650421 120.8252237178851 l 0.44186778841997915 3.4034677060305523 a24.432031405514238,24.432031405514238 0 0,0 -0.4175231462184048,0.05055623842344012 l -0.383217219150194 -3.4105694731793434" fill="#ff2703" stroke="none" /><line stroke="#e1ed5e" stroke-width="0.3" x1="102.19456741930631" x2="102.32365962044197" y1="184.97166512339345" y2="189.96999836594603" /><path d="M 102.22038585953345 185.97133177190398 a86.0,86.0 0 0,1 -42.740103519485714,-10.115201625700543" fill="none" id="id115" stroke="none" /><text fill="#e1ed5e" style="font-size:6.75px; font-family:Arial;" text-anchor="middle"><textPath startOffset="22.20632615414155" xlink:href="#id115">July</textPath></text><path d="M 100.54218724476979 120.99299961872073 l 0.08840976766936061 3.4231462227815825 a24.424287714191546,24.424287714191546 0 0,0 -0.4203772440746711,0.007237175487709451 l -0.029472833702021573 -3.4241608755484516" fill="#ff2703" stroke="none" /><path d="M 99.09653310690486 120.98055641714683 l -0.14828752597385517 3.443573669861063 a24.446764977499893,24.446764977499893 0 0,0 -0.42026542121755744,-0.021722921834246813 l 0.2075410156049015 -3.440510941264614" fill="#ff2703" stroke="none" /><path d="M 98.37488393609728 120.93702456842531 l -0.26514736170513975 3.416000216588826 a24.426275033203567,24.426275033203567 0 0,0 -0.4189172261721989,-0.036145940985896026 l 0.32390890561888036 -3.410930023324266" fill="#ff2703" stroke="none" /><path d="M 97.2962882734958 120.8252237178851 l -0.4399885136519274 3.388992672657594 a24.41743489001217,24.41743489001217 0 0,0 -0.4163421576509754,-0.057701229332042046 l 0.49825926248973385 -3.3809168778329473" fill="#ff2603" stroke="none" /><path d="M 96.22490169976321 120.6578951692458 l -0.6206849324642126 3.3964795743654794 a24.45272693453595,24.45272693453595 0 0,0 -0.4134052368473934,-0.07923009755455716 l 0.679057783883301 -3.385292278462454" fill="#ff2703" stroke="none" /><path d="M 94.81253420990036 120.34920634021253 l -0.5377854957877172 2.1096058197518355 a23.177073713545422,23.177073713545422 0 0,0 -0.3857432747879396,-0.1018783048375621 l 0.5740192133871461 -2.1000361656106916" fill="#ff1502" stroke="none" /><path d="M 93.76903079525671 120.05430185196036 l -1.0188563775686728 3.279177390894977 a24.433813139800876,24.433813139800876 0 0,0 -0.4005733486699977,-0.12825093655470987 l 1.0751510713296109 -3.2611536076805607" fill="#ff2703" stroke="none" /><path d="M 93.08242187328487 119.8279376855182 l -1.1344003733216785 3.2515454832068134 a24.44374973486097,24.44374973486097 0 0,0 -0.39608237617311876,-0.14202104815972696 l 1.190202310124524 -3.2315368940071285" fill="#ff2703" stroke="none" /><path d="M 91.7346041902142 119.30500536409082 l -0.7965925142562034 1.8605549104500947 a23.023913093136407,23.023913093136407 0 0,0 -0.36298769588639773,-0.1591231386515268 l 0.8285008848003443 -1.8465672185041158" fill="#ff1302" stroke="none" /><path d="M 91.07499286063937 119.00905698771935 l -0.8030505570484263 1.7103889738789464 a22.88952921097888,22.88952921097888 0 0,0 -0.3552098859664967,-0.17052233133314246 l 0.8323731110151651 -1.6963123660462416" fill="#ff1101" stroke="none" /><path d="M 90.7491055286396 118.85261126421891 l -0.9997956357201334 2.0375065916325914 a23.269586839966976,23.269586839966976 0 0,0 -0.3580702884367614,-0.17954387603944474 l 1.0347198318396553 -2.0199948746838445" fill="#ff1602" stroke="none" /><line stroke="#e1ed5e" stroke-width="0.3" x1="58.666819895761336" x2="56.23545636021788" y1="174.27360380694188" y2="178.64263932499728" /><path d="M 58.180547188652646 175.14741091055294 a86.0,86.0 0 0,1 -31.652253787137756,-30.449443065178592" fill="none" id="id116" stroke="none" /><text fill="#e1ed5e" style="font-size:6.75px; font-family:Arial;" text-anchor="middle"><textPath startOffset="22.20632615414155" xlink:href="#id116">August</textPath></text><path d="M 89.7882731507175 118.34994917583269 l -1.1094697340778261 1.9936601843089043 a23.28157928228088,23.28157928228088 0 0,0 -0.3485044359717462,-0.19788991415182833 l 1.1436229369707795 -1.974267104362443" fill="#ff1602" stroke="none" /><path d="M 89.4739219176387 118.17145234162733 l -2.209857080855864 3.8149358490766456 a25.40876443580046,25.40876443580046 0 0,0 -0.37657256428059555,-0.22248570860508526 l 2.275197516164842 -3.776331568177811" fill="#ff3405" stroke="none" /><path d="M 88.24862548938628 117.40417183066458 l -1.1439492924495505 1.6942264952390984 a23.04426598094915,23.04426598094915 0 0,0 -0.3268369510164115,-0.22480143516751885 l 1.1729431280888523 -1.6742842707064785" fill="#ff1302" stroke="none" /><path d="M 87.95078237400918 117.19931262002967 l -1.1644894130763115 1.6622172559164312 a23.029532408963494,23.029532408963494 0 0,0 -0.3227124781131594,-0.2302467845860193 l 1.1929292190383578 -1.6419262094861926" fill="#ff1302" stroke="none" /><path d="M 87.65650970185807 116.9893568818739 l -1.1947418140834927 1.6444210325354518 a23.03261617984421,23.03261617984421 0 0,0 -0.31874402059253715,-0.23579920634104695 l 1.222870805094594 -1.6236118774546382" fill="#ff1302" stroke="none" /><path d="M 87.36589467227662 116.77436683061367 l -1.226787487825587 1.6288120773251142 a23.039126362814617,23.039126362814617 0 0,0 -0.3147268320999933,-0.2413191142136747 l 1.2546430484190672 -1.6074536212840727" fill="#ff1302" stroke="none" /><path d="M 86.24171649860922 115.8653595955263 l -0.9284640302071218 1.070657957386801 a22.417164040294605,22.417164040294605 0 0,0 -0.289349701869967,-0.25531746978728037 l 0.9467560849836765 -1.0545173458272317" fill="#ff0a01" stroke="none" /><path d="M 85.70375840098266 115.38237550388516 l -2.328131628907695 2.5050076756391393 a24.41983337847495,24.41983337847495 0 0,0 -0.3054388170796381,-0.2888114660785131 l 2.37090628037815 -2.464561572814695" fill="#ff2603" stroke="none" /><path d="M 85.44109423537348 115.13401014063109 l -2.4169428342753627 2.5124166578591303 a24.48623724477309,24.48623724477309 0 0,0 -0.3012390742059395,-0.29482583653116273 l 2.459831860857096 -2.470440718405398" fill="#ff2703" stroke="none" /><path d="M 84.9287848128048 114.62390073753433 l -2.4622044462811687 2.389126090411328 a24.430797897161952,24.430797897161952 0 0,0 -0.2902535247584118,-0.30432966029089464 l 2.5029645224185377 -2.346389313537933" fill="#ff2703" stroke="none" /><path d="M 83.28015986056508 112.70617746262583 l -2.551600277900992 1.9390787037627224 a24.204791755726188,24.204791755726188 0 0,0 -0.24923873853178471,-0.3338960202758648 l 2.5846002831278616 -1.8948698039775498" fill="#ff2303" stroke="none" /><line stroke="#e1ed5e" stroke-width="0.3" x1="26.63291911575756" x2="22.317208475507996" y1="142.92168965132927" y2="145.44649492493687" /><path d="M 25.769776987707644 143.4266507060508 a86.0,86.0 0 0,1 -11.730757126820373,-40.83630448921669" fill="none" id="id117" stroke="none" /><text fill="#e1ed5e" style="font-size:6.75px; font-family:Arial;" text-anchor="middle"><textPath startOffset="21.46611528233685" xlink:href="#id117">September</textPath></text><path d="M 80.45479744820244 107.68017299344265 l -3.1557501129340197 1.2400335441486852 a24.390640347470818,24.390640347470818 0 0,0 -0.1501833010145399,-0.3920812081502127 l 3.1766276935420685 -1.1855287691653147" fill="#ff2603" stroke="none" /><path d="M 79.76711848015287 105.62410040840567 l -3.260047571404704 0.906189998679815 a24.383650466807858,24.383650466807858 0 0,0 -0.10892748362385828,-0.40535968858291077 l 3.2751631313703373 -0.8499393769213653" fill="#ff2603" stroke="none" /><path d="M 79.67330655649465 105.27499134158121 l -3.293669501138083 0.8547419750694744 a24.40276984626831,24.40276984626831 0 0,0 -0.10201367106495579,-0.4074939060323373 l 3.3078944864980975 -0.7979202296397452" fill="#ff2603" stroke="none" /><path d="M 79.4281124754447 104.21870165774334 l -18.703693250511353 3.8355888164210103 a40.09292755912193,40.09292755912193 0 0,0 -0.13282226940427916,-0.677257890155114 l 18.766945452891296 -3.5130671991979416" fill="#fff517" stroke="none" /><path d="M 79.35854240842038 103.8639653848113 l -24.84211879050954 4.650305661120386 a46.2736267429832,46.2736267429832 0 0,0 -0.13982029727194017,-0.784186480637992 l 24.91848553012067 -4.222000429749181" fill="#c0ff1e" stroke="none" /><path d="M 79.07016306316243 101.71520430193888 l -6.341520053479543 0.5196888303231697 a27.362778722307247,27.362778722307247 0 0,0 -0.03442946563569803,-0.469762704261267 l 6.349526077779576 -0.4104529895651421" fill="#ff5007" stroke="none" /><path d="M 79.0235259727143 100.99374915477108 l -42.9940264720291 2.0368188386288497 a64.04224602944103,64.04224602944103 0 0,0 -0.04268832627765831,-1.1015960199124581 l 43.02271693115795 -1.2964455717023948" fill="#34ff5f" stroke="none" /><line stroke="#e1ed5e" stroke-width="0.3" x1="15.007084014347285" x2="10.007500721073583" y1="101.09737516637583" y2="101.16192664675087" /><path d="M 14.007167355692545 101.11028546245083 a86.0,86.0 0 0,1 10.666146001902534,-42.60595125391555" fill="none" id="id118" stroke="none" /><text fill="#e1ed5e" style="font-size:6.75px; font-family:Arial;" text-anchor="middle"><textPath startOffset="22.20632615414155" xlink:href="#id118">October</textPath></text><path d="M 79.00019446554 99.90962569577889 l -14.632562911086806 -0.06297237800089206 a35.63269841373437,35.63269841373437 0 0,0 0.007918930946356508,-0.6133299287633861 l 14.629310973022733 0.31483856482475014" fill="#ffbe11" stroke="none" /><path d="M 79.00486145842228 99.54816195383935 l -4.344712428132313 -0.09350290167266836 a25.345718453350216,25.345718453350216 0 0,0 0.013141520321965352,-0.4361030815312682 l 4.342459213354703 0.168276130628931" fill="#ff3404" stroke="none" /><path d="M 79.03285615573316 98.82574320788736 l -12.188658049638551 -0.6826210860112022 a33.20775804962098,33.20775804962098 0 0,0 0.03687549008502867,-0.5704475101371358 l 12.17510196854911 0.8923276604013498" fill="#ff9e0e" stroke="none" /><path d="M 79.05617556472873 98.46500227214037 l -14.490559747132902 -1.0620303066427597 a35.52942635335119,35.52942635335119 0 0,0 0.04995355488951702,-0.6095598973668395 l 14.470131708423889 1.3113041212173773" fill="#ffbc11" stroke="none" /><path d="M 79.12142395522702 97.74499172005258 l -18.04135495559007 -1.948571814432302 a39.14627842698316,39.14627842698316 0 0,0 0.07812412905228985,-0.6693198281184135 l 18.005140473534194 2.2588353808755772" fill="#ffea16" stroke="none" /><path d="M 79.32604984820605 96.31383870115002 l -41.21391628371644 -7.348433272965788 a62.86390291179763,62.86390291179763 0 0,0 0.1991117616370934,-1.063662992420291 l 41.08131879816949 8.056774342848652" fill="#33ff51" stroke="none" /><path d="M 79.46518482838121 95.60439243477599 l -8.806015037536968 -1.884983429116614 a30.005501838841155,30.005501838841155 0 0,0 0.1124572102636896,-0.5041236229691429 l 8.77226344027124 2.0362852216357163" fill="#ff740a" stroke="none" /><path d="M 79.81627453868168 94.20196356495316 l -31.21010713581994 -8.965507317368168 a53.47231295869053,53.47231295869053 0 0,0 0.26174468761669717,-0.882472966389255 l 31.051156551091537 9.501409670503962" fill="#71ff27" stroke="none" /><path d="M 79.91906864156998 93.8553929516997 l -6.642356350601121 -2.0325087975609186 a27.946365229422764,27.946365229422764 0 0,0 0.14471495082431748,-0.45878594103953024 l 6.606385916008599 2.1465449050268632" fill="#ff5808" stroke="none" /><path d="M 80.14247586403 93.16781622104843 l -7.853248614216924 -2.7019903099065696 a29.30507467946731,29.30507467946731 0 0,0 0.1682207842499163,-0.47558280992894664 l 7.8055747491571985 2.836770746262127" fill="#ff6a09" stroke="none" /><path d="M 80.52162464483688 92.15188598940014 l -20.57432516597207 -8.289687751134842 a43.181563945007724,43.181563945007724 0 0,0 0.2837199690832316,-0.6870504096011196 l 20.42858351000264 8.642612731189272" fill="#e4ff1b" stroke="none" /><path d="M 80.803312248108 91.48605970444005 l -38.78207894129275 -17.20027480320484 a63.425217740330176,63.425217740330176 0 0,0 0.4512181226904883,-0.9941993221198158 l 38.480258501638914 17.865296134166726" fill="#34ff58" stroke="none" /><path d="M 81.26839172434947 90.50648371742162 l -23.479013464663403 -11.899586695682062 a47.32231442715285,47.32231442715285 0 0,0 0.37450105994399263,-0.7234168465185394 l 23.270702971559295 12.301976264460938" fill="#b4ff20" stroke="none" /><line stroke="#e1ed5e" stroke-width="0.3" x1="26.266209847984243" x2="21.928928074336255" y1="57.711370442889674" y2="55.22380399835377" /><path d="M 25.398753493254645 57.213857153982495 a86.0,86.0 0 0,1 29.58750427330803,-30.492523968695096" fill="none" id="id119" stroke="none" /><text fill="#e1ed5e" style="font-size:6.75px; font-family:Arial;" text-anchor="middle"><textPath startOffset="21.46611528233685" xlink:href="#id119">November</textPath></text><path d="M 81.78341655067845 89.55222093294921 l -45.07537807150659 -25.85213592686208 a72.96270432021615,72.96270432021615 0 0,0 0.6342207522922706,-1.0840888513449085 l 44.62369764474399 26.62420419056088" fill="#3fffc1" stroke="none" /><path d="M 81.96595687620814 89.24020034530311 l -23.522237644921677 -14.03426634572173 a48.39080677320089,48.39080677320089 0 0,0 0.4329461000413703,-0.711649552955896 l 23.27717574659409 14.4370836718847" fill="#a8ff21" stroke="none" /><path d="M 82.34701348167596 88.62581576622439 l -5.122392138818287 -3.3004631734174397 a27.093599788541425,27.093599788541425 0 0,0 0.25597435039583616,-0.3898664970436057 l 5.064821153064531 3.3881477344387125" fill="#ff4c07" stroke="none" /><path d="M 82.54541684631803 88.32363383020206 l -11.947819744832774 -7.99257805489218 a35.37468958338092,35.37468958338092 0 0,0 0.3429248254161531,-0.5031998665972848 l 11.80847045374788 8.19705594475988" fill="#ffba11" stroke="none" /><path d="M 83.17141714833178 87.43820079747576 l -33.84036503369531 -25.26034867227474 a63.22861021462393,63.22861021462393 0 0,0 0.6585532533395203,-0.8665788866501523 l 33.40053584013168 25.83911233480592" fill="#33ff55" stroke="none" /><path d="M 83.39014120810768 87.1503855733568 l -40.85370609657982 -31.604987003062092 a72.65172315895614,72.65172315895614 0 0,0 0.7737267343960492,-0.9825543795029075 l 40.303625281589795 32.30353377651805" fill="#3fffbe" stroke="none" /><path d="M 83.84228863543731 86.58626213691792 l -6.565680052242797 -5.4506674321964255 a29.533342252882264,29.533342252882264 0 0,0 0.3280864426595093,-0.38835086431779625 l 6.470882996096163 5.562877246143338" fill="#ff6d0a" stroke="none" /><path d="M 84.07557802195018 86.31012108654704 l -20.186621116681295 -17.353998728496585 a47.62068639192281,47.62068639192281 0 0,0 0.5397195630135949,-0.6169927604847806 l 19.884909690089856 17.69890704518431" fill="#b1ff20" stroke="none" /><path d="M 84.5562425177563 85.77008943001954 l -3.055862521556469 -2.8156781434763896 a25.155278469405403,25.155278469405403 0 0,0 0.29615270774142993,-0.31591505996815794 l 3.006942491844583 2.8678626203225974" fill="#ff3104" stroke="none" /><path d="M 84.80347519578584 85.50635884689758 l -4.434094645231933 -4.229004818855881 a27.127452739987536,27.127452739987536 0 0,0 0.3251880613980772,-0.33513488210831754 l 4.360642320130737 4.304703896514321" fill="#ff4c07" stroke="none" /><path d="M 85.83668400450813 84.49514656593479 l -7.246126300072823 -7.932473319321196 a31.743857748423036,31.743857748423036 0 0,0 0.4066070926496326,-0.3650558624633892 l 7.108508219827219 8.056028190553864" fill="#ff8b0c" stroke="none" /><path d="M 86.10567301691215 84.25364557470407 l -5.853116106097304 -6.63330010954828 a29.846447789637878,29.846447789637878 0 0,0 0.3881547609388288,-0.3366039837456213 l 5.738067546511702 6.7330690867135825" fill="#ff720a" stroke="none" /><path d="M 86.65592168130627 83.78471172551755 l -30.618794875217034 -37.20695979604326 a69.18577027375402,69.18577027375402 0 0,0 0.9260897567452125,-0.7488335113956474 l 29.97380171990732 37.72849940470304" fill="#3bff99" stroke="none" /><path d="M 86.93701828274178 83.55741782278169 l -39.18894515177469 -49.32774653165494 a84.0,84.0 0 0,0 1.1398697793622974,-0.889686443107113 l 38.334042817252964 49.99501136398527" fill="#4dd2ff" stroke="none" /><path d="M 88.39885842347998 82.49532879139004 l -12.0241225381816 -18.142896560188554 a42.76566604556149,42.76566604556149 0 0,0 0.6171146179096391,-0.40138851364829586 l 11.710040894487674 18.347183997996382" fill="#e8ff1a" stroke="none" /><path d="M 89.00827224532344 82.1063720568725 l -28.298149175747216 -46.06705734815034 a75.06439696778847,75.06439696778847 0 0,0 1.1067992751297229,-0.6668341792040514 l 27.500987834399844 46.54733813681301" fill="#42ffd7" stroke="none" /><line stroke="#e1ed5e" stroke-width="0.3" x1="56.762969772571076" x2="54.21961505331055" y1="26.818313649435495" y2="22.513508569990535" /><path d="M 56.25429882871897 25.957352633546506 a86.0,86.0 0 0,1 42.265352541879196,-11.944610805530505" fill="none" id="id120" stroke="none" /><text fill="#e1ed5e" style="font-size:6.75px; font-family:Arial;" text-anchor="middle"><textPath startOffset="22.20632615414155" xlink:href="#id120">December</textPath></text><path d="M 89.63071344664047 81.73862282372117 l -0.36805125207915257 -0.6481760051506649 a21.745381685990544,21.745381685990544 0 0,0 0.3270877261208724,-0.18202396545589958 l 0.3568394368862346 0.654415368166749" fill="#ff0000" stroke="none" /><path d="M 89.94658935756843 81.56283822128135 l -0.6321540047219678 -1.1593205598239464 a22.320470691123635,22.320470691123635 0 0,0 0.33890441160402623,-0.1810309996758359 l 0.6121045465896362 1.170030286001532" fill="#ff0801" stroke="none" /><path d="M 90.26544431104013 81.39251694778311 l -0.9201422126999538 -1.758840482864725 a22.984989051797562,22.984989051797562 0 0,0 0.3521513890620453,-0.18038561911173676 l 0.8897303360491448 1.774418627288967" fill="#ff1202" stroke="none" /><path d="M 90.91171255644093 81.06846463323043 l -13.095618293541428 -27.279084471475073 a51.25960455941236,51.25960455941236 0 0,0 0.7987266424764599,-0.37501286839769826 l 12.62411343976536 27.500462322512778" fill="#89ff25" stroke="none" /><path d="M 91.23893434514133 80.91482961587045 l -3.0248309421829105 -6.589314152980083 a28.250425038261604,28.250425038261604 0 0,0 0.4436902542158398,-0.199070883806168 l 2.910958569500296 6.64040536730278" fill="#ff5c08" stroke="none" /><path d="M 93.25333710446033 80.11325718540243 l -3.2360503988141156 -9.538716104941019 a31.07269214829512,31.07269214829512 0 0,0 0.507989951127768,-0.16747630007166045 l 3.071377625443938 9.593006129271911" fill="#ff820c" stroke="none" /><path d="M 93.94186890950719 79.89281104454417 l -17.565739329263742 -58.30141912743861 a81.89015249165425,81.89015249165425 0 0,0 1.3531754279392747,-0.3950290139289121 l 16.559573683601048 58.595146470286224" fill="#4ae5ff" stroke="none" /><path d="M 94.28887869178378 79.79150937346287 l -2.0035507296292807 -7.08945475930556 a28.367128634036348,28.367128634036348 0 0,0 0.47103226815955507,-0.1287509122350207 l 1.8812205722460031 7.122892212366876" fill="#ff5e08" stroke="none" /><path d="M 94.63758080256005 79.69619591428918 l -1.8380857533018946 -6.959570233821838 a28.19820651801477,28.19820651801477 0 0,0 0.47036100468025177,-0.1199054931176358 l 1.7180158599366435 6.990178723108337" fill="#ff5b08" stroke="none" /><path d="M 94.98787191387505 79.60689891045804 l -1.4076640802117972 -5.727434613521695 a26.897883129978496,26.897883129978496 0 0,0 0.45057324552269,-0.10663612977751495 l 1.3088671477265732 5.750816655440081" fill="#ff4906" stroke="none" /><path d="M 95.692805502759 79.44645832069477 l -2.5331857795699424 -12.088132898378563 a33.35070796200272,33.35070796200272 0 0,0 0.5628862461802661,-0.11290968562488884 l 2.32473312392254 12.129946540080661" fill="#ffa00e" stroke="none" /><path d="M 96.40284397218896 79.31037775812273 l -1.541888158245059 -8.86841807435493 a30.001458672575325,30.001458672575325 0 0,0 0.5095544800828026,-0.08408085524492359 l 1.3890044720233707 8.89364519253948" fill="#ff740a" stroke="none" /><path d="M 96.75951476605007 79.25152402106235 l -0.7079212919597161 -4.53274335809909 a25.58769167512392,25.58769167512392 0 0,0 0.4357596315358068,-0.06421964232702318 l 0.6297926799952605 4.544257484587082" fill="#ff3705" stroke="none" /><path d="M 97.47563105711357 79.15227682838746 l -1.0378033517869902 -8.570790353603323 a29.63339348590113,29.63339348590113 0 0,0 0.506919125149234,-0.05695827016614175 l 0.8901175231280384 8.587384577240062" fill="#ff6f0a" stroke="none" /><path d="M 97.83486435360386 79.11191278185805 l -0.43783441250582533 -4.223995577712781 a25.246626615716462,25.246626615716462 0 0,0 0.432648883082439,-0.04108522463907906 l 0.36506040233315 4.230906346867041" fill="#ff3204" stroke="none" /><path d="M 98.19473922651362 79.07773832637324 l -1.3231105269283165 -15.33433012786464 a36.3913060503911,36.3913060503911 0 0,0 0.6245611296418476,-0.04847796406567241 l 1.0589592079241348 15.354833354118774" fill="#ffc712" stroke="none" /></svg>