<?xml version="1.0" encoding="utf-8" ?>
<svg baseProfile="full" height="200mm" version="1.1" viewBox="0,0,200,200" width="200mm" xmlns="http://www.w3.org/2000/svg" xmlns:ev="http://www.w3.org/2001/xml-events" xmlns:xlink="http://www.w3.org/1999/xlink"><defs /><rect fill="#1a1a1a" height="200" width="200" x="0" y="0" /><rect fill="#1a1a1a" height="200" width="180" x="10" y="0" /><text alignment-baseline="middle" fill="#e1ed5e" style="dominant-baseline: central; font-size:9.0px; font-family:Arial;" text-anchor="middle" x="100.0" y="100.0">2020</text><line stroke="#e1ed5e" stroke-width="0.3" x1="100.0" x2="100.0" y1="15.0" y2="10.0" /><path d="M 100.0 14.0 a86.0,86.0 0 0,1 42.35913384403234,11.155469271406648" fill="none" id="id49" stroke="none" /><text fill="#e1ed5e" style="font-size:6.75px; font-family:Arial;" text-anchor="middle"><textPath startOffset="22.145653131862478" xlink:href="#id49">January</textPath></text><path d="M 109.3889696526874 81.21577127319529 l 28.166908958062173 -56.352686180414125 a84.0,84.0 0 0,0 1.2842911131456847,0.6557681933086643 l -29.130127292921436 55.86086003543262" fill="#4dd2ff" stroke="none" /><line stroke="#e1ed5e" stroke-width="0.3" x1="143.13028292997686" x2="145.6673583964461" y1="26.7553504044142" y2="22.446841604673864" /><path d="M 143.63769802327073 25.89364864446614 a86.0,86.0 0 0,1 29.32050498858742,28.57503671076993" fill="none" id="id50" stroke="none" /><text fill="#e1ed5e" style="font-size:6.75px; font-family:Arial;" text-anchor="middle"><textPath startOffset="20.669276256404974" xlink:href="#id50">February</textPath></text><line stroke="#e1ed5e" stroke-width="0.3" x1="172.87174338648825" x2="177.1583165268699" y1="56.24261187166439" y2="53.66864786411523" /><path d="M 173.72905801456457 55.72781907015455 a86.0,86.0 0 0,1 12.242430191666344,42.057860355516425" fill="none" id="id51" stroke="none" /><text fill="#e1ed5e" style="font-size:6.75px; font-family:Arial;" text-anchor="middle"><textPath startOffset="22.145653131862474" xlink:href="#id51">March</textPath></text><line stroke="#e1ed5e" stroke-width="0.3" x1="184.99686870605535" x2="189.99668451229388" y1="99.2704041080226" y2="99.22748670261217" /><path d="M 185.99683186730306 99.26182062694052 a86.0,86.0 0 0,1 -10.086455211305974,41.156179273409016" fill="none" id="id52" stroke="none" /><text fill="#e1ed5e" style="font-size:6.75px; font-family:Arial;" text-anchor="middle"><textPath startOffset="21.40746469413373" xlink:href="#id52">April</textPath></text><line stroke="#e1ed5e" stroke-width="0.3" x1="174.33088141563837" x2="178.70328620479359" y1="141.23008692659167" y2="143.65538615756765" /><path d="M 175.20536237346943 141.71514677278685 a86.0,86.0 0 0,1 -30.301960400862466,31.631185727798858" fill="none" id="id53" stroke="none" /><text fill="#e1ed5e" style="font-size:6.75px; font-family:Arial;" text-anchor="middle"><textPath startOffset="22.145653131862474" xlink:href="#id53">May</textPath></text><line stroke="#e1ed5e" stroke-width="0.3" x1="143.1302829299769" x2="145.66735839644613" y1="173.24464959558577" y2="177.55315839532614" /><path d="M 143.63769802327073 174.10635135553383 a86.0,86.0 0 0,1 -40.68552437913181,11.842963189579606" fill="none" id="id54" stroke="none" /><text fill="#e1ed5e" style="font-size:6.75px; font-family:Arial;" text-anchor="middle"><textPath startOffset="21.407464694133747" xlink:href="#id54">June</textPath></text><line stroke="#e1ed5e" stroke-width="0.3" x1="101.45913802915013" x2="101.54496967792366" y1="184.9874750549273" y2="189.98673829345242" /><path d="M 101.47630435890484 185.9873277026323 a86.0,86.0 0 0,1 -42.54439059252881,-10.42667462771756" fill="none" id="id55" stroke="none" /><text fill="#e1ed5e" style="font-size:6.75px; font-family:Arial;" text-anchor="middle"><textPath startOffset="22.145653131862474" xlink:href="#id55">July</textPath></text><line stroke="#e1ed5e" stroke-width="0.3" x1="58.13341422392154" x2="55.67067388415222" y1="173.97424548756322" y2="178.32567169271397" /><path d="M 57.64086615596768 174.84453072859336 a86.0,86.0 0 0,1 -31.369924170532247,-30.572349798747897" fill="none" id="id56" stroke="none" /><text fill="#e1ed5e" style="font-size:6.75px; font-family:Arial;" text-anchor="middle"><textPath startOffset="22.145653131862474" xlink:href="#id56">August</textPath></text><path d="M 83.64595745247003 113.17365903436017 l -2.2906851994641455 1.8452138475910786 a23.941437204222787,23.941437204222787 0 0,0 -0.2550715810129369,-0.32227461007870717 l 2.322023211118644 -1.805619293597691" fill="#ff0901" stroke="none" /><line stroke="#e1ed5e" stroke-width="0.3" x1="26.387840678322732" x2="22.057713659400548" y1="142.50000000000003" y2="145.00000000000006" /><path d="M 25.521815274538298 143.00000000000003 a86.0,86.0 0 0,1 -11.493303480769221,-40.785679425670985" fill="none" id="id57" stroke="none" /><text fill="#e1ed5e" style="font-size:6.75px; font-family:Arial;" text-anchor="middle"><textPath startOffset="21.40746469413373" xlink:href="#id57">September</textPath></text><path d="M 79.34024301695615 103.76489593502545 l -5.354720209616123 0.9758083973073037 a26.442906443392793,26.442906443392793 0 0,0 -0.07754720092152943,-0.4472716475486701 l 5.370682228029887 -0.883743716838041" fill="#ff2d04" stroke="none" /><path d="M 79.2786578344484 103.40968896794605 l -3.6873881082893787 0.606758310003277 a24.736975609756097,24.736975609756097 0 0,0 -0.06535097599244467,-0.41960014549850466 l 3.6972605764200908 -0.5433699825733224" fill="#ff1402" stroke="none" /><line stroke="#e1ed5e" stroke-width="0.3" x1="15.003131293944662" x2="10.003315487706104" y1="100.72959589197737" y2="100.7725132973878" /><path d="M 14.003168132696942 100.73817937305945 a86.0,86.0 0 0,1 10.791469493833604,-42.45332614584628" fill="none" id="id58" stroke="none" /><text fill="#e1ed5e" style="font-size:6.75px; font-family:Arial;" text-anchor="middle"><textPath startOffset="22.145653131862435" xlink:href="#id58">October</textPath></text><path d="M 79.03789590574601 98.7389718711861 l -5.455061369215432 -0.3281629458596388 a26.464923188933383,26.464923188933383 0 0,0 0.03117320798881243,-0.4532516025785992 l 5.4486242000615555 0.421757972592563" fill="#ff2e04" stroke="none" /><path d="M 79.06263194458094 98.37931529534042 l -9.014760263319463 -0.6977994577094639 a30.04172697488169,30.04172697488169 0 0,0 0.04421337850938483,-0.5138264776125604 l 9.001453262112335 0.8524469826977049" fill="#ff6108" stroke="none" /><path d="M 79.13060592940154 97.66154086499901 l -13.43420710699697 -1.5053309274135256 a34.5182817619221,34.5182817619221 0 0,0 0.07103848207862921,-0.5883005383014451 l 13.406386538658673 1.735725142638407" fill="#ff9e0e" stroke="none" /><path d="M 79.17382384314186 97.30363454192245 l -19.50749331156535 -2.5256355628041023 a40.670310884601385,40.670310884601385 0 0,0 0.09558585026473775,-0.6916115964775824 l 19.461262944745407 2.8601354674817516" fill="#ffee16" stroke="none" /><path d="M 79.22317932658666 96.9465228501225 l -2.339831541145668 -0.34387466002406253 a23.364965416818347,23.364965416818347 0 0,0 0.06172635321743162,-0.3963274671539838 l 2.3335836957899687 0.38399030910949633" fill="#ff0000" stroke="none" /><path d="M 79.2786578344484 96.59031103205396 l -8.95216293042034 -1.473075003503141 a30.072550418638514,30.072550418638514 0 0,0 0.08819159552408752,-0.5086656869784356 l 8.925556517404019 1.6265337234021693" fill="#ff6109" stroke="none" /><path d="M 79.34024301695615 96.23510406497455 l -8.957144059933606 -1.6322900258874644 a30.104658172551872,30.104658172551872 0 0,0 0.09701399229118007,-0.5076182018785468 l 8.927803775360267 1.7858107927993259" fill="#ff6209" stroke="none" /><path d="M 79.56144815229197 95.17655741523228 l -17.464627228947098 -4.121604472317044 a38.944381507098655,38.944381507098655 0 0,0 0.15913874787700333,-0.6493403975690443 l 17.391300954553795 4.420800694494205" fill="#ffd814" stroke="none" /><path d="M 79.83685265289637 94.1308016681162 l -9.60062352183299 -2.794601586219164 a30.99908846013833,30.99908846013833 0 0,0 0.1531114062675507,-0.5096580746785957 l 9.55123579556181 2.958997264488483" fill="#ff6e0a" stroke="none" /><path d="M 79.94057633289273 93.78553927170692 l -17.671161975491167 -5.474571151317241 a39.49975391336003,39.49975391336003 0 0,0 0.20621746414379166,-0.6459732693055937 l 17.574579795570116 5.777113454314226" fill="#ffdf14" stroke="none" /><path d="M 80.05021161711548 93.44210830539832 l -20.750452478128885 -6.821085885918192 a42.84281325081908,42.84281325081908 0 0,0 0.23566521482486957,-0.6967023326652817 l 20.63030184173165 7.1762898930576355" fill="#f5ff19" stroke="none" /><path d="M 80.28708602549916 92.7611449362534 l -5.073316114570406 -1.8629919500206797 a26.404560611576265,26.404560611576265 0 0,0 0.159897615102592,-0.4241474210390934 l 5.040587815653378 1.949807651253918" fill="#ff2d04" stroke="none" /><path d="M 80.5471966667186 92.08871423366112 l -16.604295420938556 -6.752822396503313 a38.92493338187113,38.92493338187113 0 0,0 0.2570420125335625,-0.6168072572214873 l 16.485927563868515 7.036862163166064" fill="#ffd814" stroke="none" /><path d="M 80.83023694016515 91.42560881287825 l -7.817076266950696 -3.496478785011024 a29.563413178012375,29.563413178012375 0 0,0 0.21118910707670902,-0.4614863125282111 l 7.755902695018941 3.6301540797539067" fill="#ff5a08" stroke="none" /><path d="M 81.29705330413844 90.45014215332179 l -14.644754496307531 -7.477715993821694 a37.443389879868946,37.443389879868946 0 0,0 0.297214807771407,-0.5699485831430265 l 14.514231619561185 7.7280108200692075" fill="#ffc512" stroke="none" /><path d="M 81.46374523516351 90.13048839642627 l -13.636475514788733 -7.260655134087093 a36.44896687295231,36.44896687295231 0 0,0 0.2988028166140368,-0.5497635277072073 l 13.509827348559346 7.49367349526892" fill="#ffb811" stroke="none" /><line stroke="#e1ed5e" stroke-width="0.3" x1="26.387840678322718" x2="22.05771365940052" y1="57.49999999999999" y2="54.99999999999999" /><path d="M 25.521815274538284 56.99999999999999 a86.0,86.0 0 0,1 29.574782752854787,-30.34633250058573" fill="none" id="id59" stroke="none" /><text fill="#e1ed5e" style="font-size:6.75px; font-family:Arial;" text-anchor="middle"><textPath startOffset="21.40746469413373" xlink:href="#id59">November</textPath></text><path d="M 82.18462484594161 88.88188828441811 l -13.626329970400068 -8.503837700536874 a37.062133236257736,37.062133236257736 0 0,0 0.34146986151523684,-0.5368473389384143 l 13.478342417258942 8.73649871415396" fill="#ffc011" stroke="none" /><path d="M 82.37810715431573 88.57770195909679 l -7.011293776708802 -4.544635918014407 a29.355354932653803,29.355354932653803 0 0,0 0.2777234100917209,-0.42050864010671246 l 6.932245927696353 4.664324436460181" fill="#ff5708" stroke="none" /><path d="M 83.8745106332314 86.54754324733833 l -5.764178568200691 -4.808682771707899 a28.50660939206407,28.50660939206407 0 0,0 0.3167022355784618,-0.3730744371749836 l 5.680781769115115 4.906923991332438" fill="#ff4b07" stroke="none" /><line stroke="#e1ed5e" stroke-width="0.3" x1="56.869717070023135" x2="54.33264160355391" y1="26.7553504044142" y2="22.446841604673864" /><path d="M 56.362301976729285 25.89364864446614 a86.0,86.0 0 0,1 42.16139366436587,-11.88097634709845" fill="none" id="id60" stroke="none" /><text fill="#e1ed5e" style="font-size:6.75px; font-family:Arial;" text-anchor="middle"><textPath startOffset="22.145653131862474" xlink:href="#id60">December</textPath></text></svg>